<?xml version="1.0" encoding="UTF-8"?>
<svg version="1.1" xmlns="http://www.w3.org/2000/svg" width="3000" height="2000">
<path d="M0 0 C0.81855469 0.73476563 1.63710938 1.46953125 2.48046875 2.2265625 C3.16496094 2.81695313 3.84945312 3.40734375 4.5546875 4.015625 C16.38325691 14.90846579 24.01014121 30.22577508 31.48046875 44.2265625 C31.73103027 43.71907471 31.9815918 43.21158691 32.23974609 42.6887207 C45.65838197 15.75103739 63.67701884 -4.41335994 92.48046875 -14.7734375 C120.83920875 -24.20663673 152.5216673 -22.91813281 179.42553711 -9.54370117 C186.74458961 -5.69851411 193.37947209 -1.39250669 199.48046875 4.2265625 C200.83205078 5.44085937 200.83205078 5.44085937 202.2109375 6.6796875 C223.32274661 26.5975874 230.56108308 54.06109538 231.59279346 82.3011198 C231.76442211 90.09261064 231.75705796 97.8845673 231.74191809 105.67757702 C231.73732852 109.18389308 231.74440864 112.69019053 231.74987793 116.19650269 C231.75870194 123.03496545 231.75688244 129.87338395 231.75105265 136.71184835 C231.74651277 142.26959536 231.74593322 147.82733009 231.74810028 153.38507843 C231.74840675 154.1797871 231.74871321 154.97449577 231.74902897 155.79328652 C231.74966848 157.40819325 231.75031691 159.02309999 231.75097415 160.63800672 C231.75665576 175.72339175 231.75015146 190.80875234 231.73937342 205.89413336 C231.73041907 218.8278719 231.73200962 231.76157458 231.74121094 244.6953125 C231.75191622 259.74994377 231.75612842 274.80455378 231.74998641 289.85918832 C231.74934935 291.46407079 231.74872061 293.06895327 231.74810028 294.67383575 C231.74779173 295.46330976 231.74748318 296.25278377 231.74716528 297.06618123 C231.74544066 302.62104813 231.74834796 308.17590149 231.75305939 313.7307663 C231.75867016 320.4937626 231.75714676 327.25671248 231.7464979 334.01970348 C231.74124705 337.46773242 231.73917473 340.91568397 231.7457962 344.36371231 C231.75125211 348.10223254 231.74441694 351.84053426 231.73443604 355.57904053 C231.73889748 356.66628347 231.74335892 357.75352642 231.74795556 358.87371612 C231.6825067 371.49088304 231.6825067 371.49088304 228.078125 375.96875 C222.94479026 379.75670694 219.30414305 380.37995277 213.09082031 380.40356445 C212.34084778 380.41013565 211.59087524 380.41670685 210.81817627 380.42347717 C208.33581438 380.44318952 205.85351296 380.4548688 203.37109375 380.46484375 C202.52204216 380.46891928 201.67299057 380.4729948 200.79821014 380.47719383 C196.30330143 380.49804684 191.80842317 380.51235128 187.31347656 380.52172852 C182.67868847 380.53278498 178.04438153 380.56717806 173.40976334 380.60690022 C169.8391635 380.63308946 166.26867785 380.64142244 162.69799042 380.64500999 C160.99001571 380.64987083 159.28204593 380.6614705 157.57416534 380.68004799 C155.1782915 380.70448701 152.78365654 380.70346615 150.38769531 380.6965332 C149.338479 380.71574829 149.338479 380.71574829 148.26806641 380.73535156 C142.82564292 380.67822989 139.81322848 379.32437515 135.48046875 376.2265625 C131.6575428 371.6187479 132.05778061 366.95336471 132.09519958 361.25544739 C132.08996389 360.24298736 132.08472819 359.23052733 132.07933384 358.18738669 C132.06534979 354.78992415 132.07267998 351.39284025 132.07983398 347.99536133 C132.07409236 345.56080284 132.06700996 343.12624719 132.0586853 340.69169617 C132.04355538 335.4441487 132.03743474 330.19667176 132.03921318 324.94910622 C132.04160043 317.34243433 132.02558265 309.73588524 132.00476063 302.12924548 C131.97122269 289.76170974 131.94957261 277.394185 131.93676758 265.02661133 C131.93599809 264.28650673 131.9352286 263.54640213 131.93443579 262.78387012 C131.93133447 259.78633356 131.92825164 256.78879699 131.92519575 253.79126038 C131.91668856 245.56795013 131.9057812 237.34464376 131.89379883 229.12133789 C131.89273081 228.38607987 131.89166279 227.65082185 131.89056241 226.89328329 C131.87240257 214.58718604 131.84636674 202.28111458 131.81566769 189.97504252 C131.79721247 182.39949363 131.78620408 174.82400294 131.78514577 167.24843123 C131.78390088 161.42272891 131.77275282 155.59707751 131.75820541 149.77139473 C131.75395821 147.39720775 131.75304351 145.02301186 131.75588036 142.64882278 C132.85466989 110.78372946 132.85466989 110.78372946 119.48046875 83.2265625 C110.30739723 74.7128661 99.19475412 72.81421284 86.984375 72.953125 C74.67423848 73.91378225 63.7138405 79.53053957 55.16796875 88.3515625 C37.66795815 109.54522287 40.1702462 142.8593862 40.22509766 168.71557617 C40.22233716 170.93610257 40.21865093 173.15662798 40.21412659 175.37715149 C40.20611358 180.09834828 40.20382047 184.81949802 40.20607376 189.54070091 C40.2089399 197.00888722 40.19443904 204.47698151 40.17709351 211.94514465 C40.13184172 232.48729526 40.10649426 253.02943945 40.10022752 273.57163546 C40.10002353 274.23756363 40.09981954 274.9034918 40.09960938 275.58959961 C40.09940944 276.2547001 40.0992095 276.9198006 40.09900351 277.60505565 C40.09527094 288.69585936 40.07597279 299.78658151 40.04451501 310.87734205 C40.02431357 318.30118443 40.02192212 325.72475086 40.03279519 333.14860952 C40.03539796 337.75198253 40.02142292 342.3551936 40.00271416 346.9585247 C39.99738446 349.09265809 39.99890217 351.22682114 40.00774956 353.36094284 C40.0188475 356.27216043 40.00546721 359.18227931 39.98599243 362.09342957 C39.99511709 362.93825384 40.00424175 363.78307811 40.01364291 364.65350312 C39.94436666 369.96934941 39.02190544 373.01764924 35.48046875 377.2265625 C30.99937275 380.22501853 26.99472932 380.66048831 21.734375 380.61474609 C20.60634964 380.62263153 20.60634964 380.62263153 19.45553589 380.63067627 C16.98446515 380.64381574 14.51404536 380.63516002 12.04296875 380.625 C10.31713742 380.62702248 8.59130693 380.62993537 6.86547852 380.63369751 C3.25431149 380.63811265 -0.35663241 380.63171598 -3.96777344 380.61767578 C-8.5879645 380.60058431 -13.20763267 380.61042984 -17.82780457 380.62839317 C-21.38981031 380.63925295 -24.95169286 380.63577462 -28.51370239 380.6280098 C-30.21688906 380.62601385 -31.92008705 380.62844573 -33.6232605 380.63544846 C-36.00695266 380.64309922 -38.38980743 380.63140881 -40.7734375 380.61474609 C-41.47179718 380.62081879 -42.17015686 380.62689148 -42.88967896 380.63314819 C-47.48681936 380.57385484 -50.60635456 379.6213049 -54.51953125 377.2265625 C-58.46026588 373.07281519 -59.64732531 369.81512165 -59.63978577 364.19265556 C-59.64116012 363.39461097 -59.64253447 362.59656637 -59.64395046 361.7743386 C-59.63855802 360.46785572 -59.63855802 360.46785572 -59.63305664 359.13497925 C-59.6332055 358.20504469 -59.63335436 357.27511013 -59.63350773 356.31699574 C-59.63281187 353.1929157 -59.624963 350.06889407 -59.6171875 346.94482422 C-59.61526868 344.70745883 -59.61380471 342.47009302 -59.61276245 340.23272705 C-59.60959727 335.40806157 -59.60332182 330.58341351 -59.59469604 325.75875473 C-59.58117691 318.11676921 -59.57527926 310.47478951 -59.57055664 302.83279419 C-59.56321714 292.10418245 -59.55310436 281.37557871 -59.54003906 270.64697266 C-59.53879734 269.62568595 -59.53879734 269.62568595 -59.53753054 268.58376719 C-59.53079504 263.06761424 -59.52387821 257.55146152 -59.51692772 252.03530884 C-59.51088064 247.23398854 -59.50489768 242.43266817 -59.49902344 237.63134766 C-59.49819531 236.95556682 -59.49736718 236.27978599 -59.49651396 235.58352695 C-59.48277046 224.26737113 -59.47308228 212.95121605 -59.46611309 201.63505375 C-59.46115525 194.05323095 -59.4513307 186.47143532 -59.43768311 178.8896234 C-59.4301679 174.1469692 -59.42689662 169.40431861 -59.42471695 164.66165924 C-59.42286109 162.47936151 -59.4192931 160.29706437 -59.41378403 158.1147728 C-59.38951418 148.17851551 -59.41617019 138.26229017 -59.94750977 128.33792114 C-59.98427039 127.64220123 -60.02103102 126.94648132 -60.0589056 126.22967899 C-61.00717554 110.75748082 -63.97496823 94.25022712 -74.51953125 82.2265625 C-84.05747121 74.1423606 -95.19194741 71.43969545 -107.51953125 72.2265625 C-117.86958178 73.51420658 -128.40326288 77.23920534 -135.33203125 85.34765625 C-151.38595584 106.97201588 -150.82743856 135.85774406 -150.77490234 161.58520508 C-150.77765936 163.86395899 -150.78134354 166.14271194 -150.78587341 168.42146301 C-150.79391914 173.28682064 -150.79617092 178.1521325 -150.79392624 183.01749611 C-150.79107185 190.71203431 -150.80551994 198.40648231 -150.82290649 206.10099792 C-150.84600597 216.8844676 -150.86517172 227.66792913 -150.87792969 238.45141602 C-150.87914524 239.47367237 -150.87914524 239.47367237 -150.88038535 240.51658037 C-150.89164042 250.2175286 -150.89689749 259.91847107 -150.89977248 269.61942496 C-150.89997647 270.30487068 -150.90018046 270.9903164 -150.90039062 271.6965332 C-150.90059056 272.38113201 -150.9007905 273.06573082 -150.90099649 273.77107505 C-150.9047292 285.18713988 -150.92403307 296.60309651 -150.95548499 308.0191223 C-150.9757014 315.66875656 -150.97806972 323.31812298 -150.96720481 330.96777308 C-150.96460198 335.71536652 -150.97857847 340.46280295 -150.99728584 345.21035576 C-151.00261644 347.41221165 -151.00109631 349.61409629 -150.99225044 351.81594086 C-150.98115521 354.81942807 -150.9945303 357.82184972 -151.01400757 360.82527161 C-151.00488291 361.69753429 -150.99575825 362.56979697 -150.98635709 363.46849185 C-151.05461435 368.87054242 -151.9490055 371.92673341 -155.51953125 376.2265625 C-159.99821998 380.16237987 -164.08420941 380.37851174 -169.83325195 380.38769531 C-170.57507721 380.39266022 -171.31690247 380.39762512 -172.08120728 380.40274048 C-174.53591846 380.4173478 -176.99056499 380.424162 -179.4453125 380.4296875 C-181.15301007 380.4354405 -182.86070762 380.44119822 -184.56840515 380.44696045 C-188.15034282 380.45746662 -191.73225807 380.46331168 -195.31420898 380.46679688 C-199.89744276 380.47227824 -204.48037895 380.49630014 -209.06351948 380.52476883 C-212.59204465 380.54342064 -216.12049853 380.54860218 -219.64906883 380.55013275 C-221.33831597 380.5531545 -223.02756199 380.56116688 -224.71676064 380.57431793 C-227.08394426 380.59143054 -229.45040606 380.58948566 -231.81762695 380.58300781 C-232.51134903 380.5922226 -233.20507111 380.60143738 -233.91981506 380.6109314 C-239.63836162 380.56207079 -243.53362801 378.94410044 -247.83203125 375.2265625 C-250.81765725 371.6880428 -250.64604203 368.50053593 -250.65095901 364.04610634 C-250.65480016 362.74391014 -250.6586413 361.44171394 -250.66259885 360.10005724 C-250.66181855 358.64634548 -250.66093976 357.19263377 -250.65997314 355.73892212 C-250.66255594 354.20134512 -250.66556886 352.6637688 -250.66897655 351.1261934 C-250.67705967 346.88983413 -250.67883684 342.65349178 -250.67957401 338.4171257 C-250.68142226 333.85261834 -250.68896838 329.28811982 -250.69570923 324.72361755 C-250.70930185 314.73824195 -250.71531856 304.75287036 -250.71971989 294.76748705 C-250.72248044 288.53590211 -250.72671741 282.30431872 -250.73122406 276.07273483 C-250.74341736 258.82840637 -250.75371693 241.58407916 -250.75709915 224.33974648 C-250.75731872 223.23569065 -250.75753828 222.13163483 -250.7577645 220.99412277 C-250.75798278 219.88738876 -250.75820106 218.78065476 -250.75842595 217.64038336 C-250.75886942 215.39762537 -250.75931598 213.15486737 -250.75976562 210.91210938 C-250.75998705 209.79961812 -250.76020848 208.68712687 -250.76043662 207.54092376 C-250.76438641 189.50609811 -250.78184568 171.47131282 -250.80512515 153.43650277 C-250.82881813 134.93242898 -250.84130005 116.42837546 -250.84246707 97.92428625 C-250.84338493 87.53003389 -250.8491651 77.13583412 -250.86728668 66.74159622 C-250.88265991 57.89244402 -250.88782456 49.04336068 -250.87954858 40.19419767 C-250.87563235 35.67716114 -250.87661894 31.16026339 -250.89060593 26.64324379 C-250.90328658 22.51040921 -250.90219906 18.37781852 -250.89001521 14.24498455 C-250.88804806 12.74768465 -250.89118335 11.25036782 -250.89985958 9.75309177 C-250.91088839 7.72165617 -250.90170726 5.69014067 -250.89146805 3.65870094 C-250.89206514 2.5291403 -250.89266222 1.39957965 -250.89327741 0.2357899 C-250.31227238 -4.44218794 -248.44840686 -6.9578394 -244.95703125 -10.0234375 C-240.91422173 -12.92596741 -238.58388717 -12.90820473 -233.59472656 -12.93457031 C-232.88230804 -12.93953522 -232.16988953 -12.94450012 -231.43588257 -12.94961548 C-229.0731307 -12.96424916 -226.71044604 -12.97104212 -224.34765625 -12.9765625 C-222.70579018 -12.98231427 -221.06392413 -12.988072 -219.42205811 -12.99383545 C-215.9753793 -13.00434976 -212.52872384 -13.01018917 -209.08203125 -13.01367188 C-204.67251876 -13.01914852 -200.26331633 -13.04315679 -195.85390091 -13.07164383 C-192.46005362 -13.09030177 -189.06628041 -13.09547755 -185.67238617 -13.09700775 C-184.04733338 -13.10002919 -182.42228173 -13.10804054 -180.79727936 -13.12119293 C-178.51858744 -13.13831502 -176.24064484 -13.1363582 -173.96191406 -13.12988281 C-172.66666809 -13.13352844 -171.37142212 -13.13717407 -170.03692627 -13.14093018 C-164.9316513 -12.60753795 -161.68985011 -11.01589261 -158.18261719 -7.29248047 C-155.83412269 -2.32313231 -155.91657109 2.09687895 -155.91015625 7.53125 C-155.89362 8.61036652 -155.87708374 9.68948303 -155.86004639 10.80130005 C-155.81161266 14.23477904 -155.79020489 17.66781522 -155.76953125 21.1015625 C-155.74136783 23.43491805 -155.71143989 25.76825302 -155.6796875 28.1015625 C-155.60585491 33.80981557 -155.55418521 39.51794435 -155.51953125 45.2265625 C-155.27340591 44.69092682 -155.02728058 44.15529114 -154.7736969 43.60342407 C-153.63428672 41.13359557 -152.48518687 38.66838964 -151.3359375 36.203125 C-150.9490979 35.36080322 -150.5622583 34.51848145 -150.16369629 33.65063477 C-146.47921509 25.77898347 -141.91288366 19.01231635 -136.51953125 12.2265625 C-135.875 11.39898438 -135.23046875 10.57140625 -134.56640625 9.71875 C-119.4074063 -8.56122053 -96.73182347 -17.91963174 -73.54370117 -20.30883789 C-46.97288635 -22.6711672 -20.61560738 -17.78951402 0 0 Z " fill="#000000" transform="translate(989.51953125,675.7734375)"/>
<path d="M0 0 C1.2981665 0.24943359 1.2981665 0.24943359 2.62255859 0.50390625 C33.25996849 6.55408045 64.60998558 20.71883957 82.80322266 47.19018555 C99.66204696 73.16061291 101.1541012 103.55876796 101.1418457 133.62304688 C101.14488901 135.20386347 101.14841362 136.78467921 101.15237427 138.36549377 C101.16017151 141.73190909 101.16537277 145.09831427 101.16866493 148.46473694 C101.17465616 153.80558388 101.19126852 159.14636702 101.21000671 164.48718262 C101.21634134 166.32740018 101.22266699 168.16761777 101.22898388 170.00783539 C101.23214969 170.92841327 101.2353155 171.84899115 101.23857725 172.79746532 C101.28040898 185.20171744 101.31363618 197.60593577 101.32592773 210.01025391 C101.33434578 218.42009068 101.35696156 226.82976442 101.3952834 235.2395196 C101.41489423 239.67149964 101.42749848 244.1032369 101.42244911 248.53526306 C101.41775424 252.70526693 101.43186743 256.8748104 101.45946121 261.0447216 C101.4662886 262.55983404 101.46659278 264.07499498 101.45926094 265.59010506 C101.35152782 290.38802412 110.22902249 308.50603495 124.67773438 328.18066406 C128.78688159 333.83453501 131.60717813 338.42572866 131.4453125 345.6171875 C129.84377799 354.18680198 118.25857863 361.08418535 111.87597656 366.42675781 C108.83865246 368.97393591 105.82421208 371.5476295 102.8125 374.125 C102.23000488 374.62265869 101.64750977 375.12031738 101.04736328 375.63305664 C97.40832093 378.75435739 93.8428932 381.94294829 90.3125 385.1875 C85.04382693 390.01323153 79.59652247 394.5607552 74 399 C73.01 399.845625 72.02 400.69125 71 401.5625 C66.47199998 403.73216668 61.91876741 403.93953984 57 403 C40.44867988 393.57342033 28.33307687 376.50247731 17.74609375 361.21875 C17.21685303 360.45498047 16.6876123 359.69121094 16.14233398 358.90429688 C15 357 15 357 15 355 C10.75220264 358.6446358 6.60525398 362.36727693 2.55029297 366.22631836 C-28.79245209 395.83728898 -65.24359884 406.98804993 -107.85546875 406.2421875 C-136.83500933 405.33249563 -164.38931778 395.77567931 -184.55224609 374.35058594 C-207.50054671 348.62864532 -212.7808014 314.32937569 -211 281 C-208.25966779 247.4265105 -193.10991434 218.31432592 -167.7734375 196.21484375 C-124.92766002 161.99856793 -67.32634035 158.78151899 -14.98046875 153.13671875 C-13.91629227 153.02136276 -12.85211578 152.90600677 -11.75569153 152.78715515 C-10.77694565 152.68296768 -9.79819977 152.57878021 -8.78979492 152.47143555 C-7.50560921 152.33417305 -7.50560921 152.33417305 -6.19548035 152.19413757 C-4 152 -4 152 -1 152 C-1.04485188 147.02298807 -1.11538228 142.04716233 -1.20751953 137.07080078 C-1.23536489 135.38567665 -1.25675604 133.70043074 -1.27099609 132.01513672 C-1.41427952 115.99604988 -2.57870931 99.51871576 -13.77734375 87.015625 C-25.37069357 75.9201491 -39.98255963 74.42413705 -55.23828125 74.6875 C-68.70356109 75.21305979 -82.35952274 80.35952274 -92 90 C-98.62932447 97.65937887 -101.9557406 105.42442043 -105 115 C-106.60111315 119.85437093 -107.9267056 123.84414449 -111.4375 127.625 C-120.47879665 131.11462327 -131.79375203 128.79977345 -141.23828125 127.7578125 C-143.04669746 127.56516312 -143.04669746 127.56516312 -144.89164734 127.36862183 C-147.41713922 127.09788689 -149.94227069 126.82376998 -152.46704102 126.54638672 C-156.3188662 126.12430239 -160.17195814 125.71571375 -164.02539062 125.30859375 C-166.49227395 125.04246676 -168.959074 124.77556656 -171.42578125 124.5078125 C-173.14007072 124.32643234 -173.14007072 124.32643234 -174.88899231 124.14138794 C-191.55522277 122.28758754 -191.55522277 122.28758754 -198 116 C-202.37888877 107.24222245 -196.87705724 93.6464032 -194 85 C-181.95110101 52.06679001 -158.08740528 28.00999737 -126.58911133 13.24487305 C-110.77963182 6.14632448 -94.07923111 1.7217474 -77 -1 C-76.29536621 -1.11714355 -75.59073242 -1.23428711 -74.86474609 -1.35498047 C-50.80602585 -5.17103485 -23.86645202 -4.76297687 0 0 Z M-89.8203125 235.59765625 C-102.29233294 249.34370028 -106.56157267 266.98349559 -106.24609375 285.1328125 C-105.33284554 299.48385581 -101.32160882 312.4532081 -91.265625 323.02734375 C-81.93915087 331.1478083 -71.47363396 333.53786831 -59.40234375 333.3125 C-43.5346871 331.85508033 -30.87857548 322.98932547 -20.6171875 311.28125 C-11.66346767 299.99045754 -6.04645033 287.06276122 -3 273 C-2.82049805 272.20279541 -2.64099609 271.40559082 -2.45605469 270.58422852 C-0.16609443 258.58818892 -0.78432088 246.34449086 -0.875 234.1875 C-0.88504867 231.83789443 -0.89417118 229.48828472 -0.90234375 227.13867188 C-0.92421039 221.42568951 -0.95753877 215.71286449 -1 210 C-31.61942965 209.84029275 -66.64146338 213.36875997 -89.8203125 235.59765625 Z " fill="#000000" transform="translate(1493,655)"/>
<path d="M0 0 C0.80824219 0.73734375 1.61648438 1.4746875 2.44921875 2.234375 C3.22652344 2.93046875 4.00382812 3.6265625 4.8046875 4.34375 C25.44820064 23.81474002 33.40750529 51.56688129 34.62498856 79.22782516 C34.9333867 89.82412622 34.89341751 100.4288856 34.88946652 111.02862239 C34.89143181 115.66516516 34.91185801 120.30162584 34.9306488 124.93812561 C34.97130416 135.68702804 34.99015844 146.4359137 35.00682068 157.18487549 C35.02929676 170.89150601 35.06296336 184.59808939 35.11401981 198.30464369 C35.13378213 203.79604164 35.14351051 209.28733345 35.14497197 214.77876556 C35.14774413 218.2035993 35.15862005 221.62837525 35.17148209 225.05318451 C35.17571933 226.62600983 35.17665094 228.19884856 35.17380714 229.77167702 C35.13233964 255.70178183 41.54366975 275.28111032 56.58984375 296.23828125 C66.66290066 310.2780158 66.66290066 310.2780158 65.44921875 318.234375 C60.85889652 327.37102277 51.00048803 333.65891911 43.19921875 339.953125 C40.36822297 342.30156468 37.65538277 344.74347402 34.94921875 347.234375 C30.5099685 351.32050307 25.92089015 355.1468688 21.22265625 358.9296875 C17.33044596 362.16405943 13.64305282 365.60435192 9.95703125 369.0703125 C4.61638479 373.67890773 0.66073184 375.10148468 -6.375 374.88671875 C-12.49390485 373.62982194 -16.21757951 369.50192217 -20.55078125 365.234375 C-21.57732695 364.29067913 -22.60603491 363.34933078 -23.63671875 362.41015625 C-34.66211822 352.12067951 -43.30263921 339.79817082 -51.55078125 327.234375 C-55.47515148 330.56155846 -59.32501747 333.94042928 -63.11328125 337.421875 C-83.8442233 356.05783497 -106.30467112 369.8909062 -134.11328125 374.921875 C-134.77303955 375.04135498 -135.43279785 375.16083496 -136.11254883 375.28393555 C-169.15149194 380.84072284 -206.93773166 378.57374103 -235.1640625 358.77734375 C-257.92642028 342.0567467 -271.07184486 317.79135716 -275.72607422 290.14160156 C-280.56921077 254.80218509 -275.05373781 217.8469366 -253.81860352 188.53344727 C-244.61901209 176.48265075 -233.48576919 166.12233697 -220.55078125 158.234375 C-219.48988281 157.56277344 -218.42898438 156.89117188 -217.3359375 156.19921875 C-176.04603347 131.19401433 -114.35701231 123.234375 -66.55078125 123.234375 C-66.62075042 118.5240198 -66.70920518 113.81446268 -66.81323242 109.10473633 C-66.84604395 107.50977606 -66.87420452 105.91471183 -66.8972168 104.31958008 C-67.13996902 87.9208927 -68.01113115 70.51619934 -79.77734375 57.82421875 C-91.64333136 47.18664836 -105.94777034 45.36893538 -121.22265625 45.8515625 C-135.13155546 46.63301655 -148.25682333 52.19553818 -158.421875 61.796875 C-164.85080956 69.15771017 -168.51513879 77.41897864 -171.11328125 86.734375 C-173.94306072 96.58965307 -173.94306072 96.58965307 -178.28033447 99.32522583 C-186.51581176 102.62293684 -198.14027609 99.9451192 -206.75390625 98.9921875 C-208.55876495 98.79953812 -208.55876495 98.79953812 -210.40008545 98.60299683 C-212.92138003 98.33224568 -215.44231526 98.05812858 -217.96289062 97.78076172 C-221.80376249 97.35904767 -225.64585461 96.95024637 -229.48828125 96.54296875 C-231.95190558 96.27680573 -234.41545026 96.00990409 -236.87890625 95.7421875 C-238.01660461 95.6212674 -239.15430298 95.50034729 -240.32647705 95.37576294 C-256.95292601 93.52625796 -256.95292601 93.52625796 -261.48828125 89.859375 C-264.32101786 86.25407386 -265.94627586 83.75593854 -265.48828125 79.109375 C-263.72470435 65.34536678 -258.95612335 52.45759687 -252.55078125 40.234375 C-252.2480127 39.64172852 -251.94524414 39.04908203 -251.63330078 38.43847656 C-246.73788743 28.93790201 -240.73215477 21.09564187 -233.55078125 13.234375 C-232.90625 12.50734375 -232.26171875 11.7803125 -231.59765625 11.03125 C-206.771266 -15.52219348 -169.36180784 -26.0746871 -134.55078125 -30.765625 C-133.4047644 -30.92140015 -133.4047644 -30.92140015 -132.2355957 -31.08032227 C-88.27314 -36.26032951 -34.58325696 -29.98249482 0 0 Z M-155.890625 207.25390625 C-169.32178688 222.30232992 -172.48345817 240.25375318 -171.72998047 259.77294922 C-170.79276755 272.64621987 -166.12522038 285.8796808 -156.45703125 294.7421875 C-146.35329011 302.65126356 -135.22341886 305.30170272 -122.55078125 304.234375 C-107.81481647 302.15598607 -95.4309748 293.74408807 -86.17578125 282.296875 C-68.82838606 258.38560055 -66.18954163 232.07576434 -66.42578125 203.296875 C-66.43583656 201.14909274 -66.44495788 199.0013059 -66.453125 196.85351562 C-66.47492377 191.64702001 -66.50931144 186.44074957 -66.55078125 181.234375 C-97.14105726 181.07410485 -133.15397703 184.34182118 -155.890625 207.25390625 Z " fill="#000000" transform="translate(622.55078125,683.765625)"/>
<path d="M0 0 C26.5705746 -0.78651637 52.27049453 7.20123605 72.03515625 25.16015625 C72.98261719 25.98580078 72.98261719 25.98580078 73.94921875 26.828125 C98.07496991 49.13618258 103.80664419 85.96981643 105.03515625 117.16015625 C105.23432708 126.07098877 105.20303489 134.98587142 105.2121582 143.8984375 C105.21843203 146.60009417 105.2250679 149.30174803 105.23207092 152.00340271 C105.25168301 160.06587546 105.26187273 168.12834919 105.27079871 176.19083977 C105.27431504 179.23148253 105.27846043 182.27212428 105.28263837 185.31276619 C105.3010735 198.73042897 105.31682973 212.1480918 105.32453632 225.56576538 C105.32644585 228.83697511 105.32836626 232.10818483 105.33032227 235.37939453 C105.33080601 236.19232271 105.33128975 237.00525089 105.33178815 237.84281325 C105.34010948 251.04579321 105.36549537 264.24868321 105.39790294 277.4516238 C105.43095481 291.02806677 105.44898256 304.60446388 105.45218056 318.1809473 C105.45434519 325.79562558 105.46308931 333.41017182 105.48864174 341.02481079 C105.51032141 347.499593 105.51841192 353.97421094 105.50867496 360.44902533 C105.50412497 363.75119788 105.50823182 367.05295979 105.5254364 370.35510063 C105.54304658 373.93461356 105.53610228 377.51326095 105.52290344 381.09277344 C105.53935731 382.65724952 105.53935731 382.65724952 105.55614358 384.25333118 C105.50304923 390.20105158 105.02573529 393.6450884 101.03515625 398.16015625 C96.55406025 401.15861228 92.54941682 401.59408206 87.2890625 401.54833984 C86.16103714 401.55622528 86.16103714 401.55622528 85.01022339 401.56427002 C82.53915265 401.57740949 80.06873286 401.56875377 77.59765625 401.55859375 C75.87182492 401.56061623 74.14599443 401.56352912 72.42016602 401.56729126 C68.80899899 401.5717064 65.19805509 401.56530973 61.58691406 401.55126953 C56.966723 401.53417806 52.34705483 401.54402359 47.72688293 401.56198692 C44.16487719 401.5728467 40.60299464 401.56936837 37.04098511 401.56160355 C35.33779844 401.5596076 33.63460045 401.56203948 31.931427 401.56904221 C29.54773484 401.57669297 27.16488007 401.56500256 24.78125 401.54833984 C24.08289032 401.55441254 23.38453064 401.56048523 22.66500854 401.56674194 C18.06822033 401.50745314 14.9460394 400.5592374 11.03515625 398.16015625 C7.43700663 394.27026477 5.91230468 391.29732515 5.90487099 386.0178299 C5.90124664 385.17014211 5.89762229 384.32245433 5.89388812 383.44907904 C5.89495637 382.5174955 5.89602462 381.58591197 5.89712524 380.62609863 C5.89430396 379.63647078 5.89148268 378.64684293 5.88857591 377.62722635 C5.88021128 374.2950962 5.87889001 370.96299919 5.87744141 367.63085938 C5.8727742 365.24748134 5.86763079 362.86410421 5.86204529 360.48072815 C5.85075027 355.33738793 5.84232252 350.19405356 5.83592606 345.05070496 C5.82558699 336.9044276 5.80501598 328.75819088 5.7828064 320.61193848 C5.77532591 317.82198347 5.76791213 315.0320283 5.76051903 312.24207306 C5.75866846 311.54469909 5.7568179 310.84732512 5.75491125 310.1288186 C5.73397593 302.18663174 5.71515625 294.24444035 5.69726562 286.30224609 C5.69562744 285.57622588 5.69398926 284.85020566 5.69230144 284.10218483 C5.66609919 272.37523915 5.64741166 260.64829033 5.63067372 248.92132789 C5.61318264 236.86048227 5.58425698 224.79969755 5.54578435 212.73890066 C5.52459329 205.97603066 5.50884288 199.213238 5.50697708 192.45033264 C5.50481484 186.07436878 5.48878603 179.69858468 5.46258736 173.3226757 C5.45545062 170.99568107 5.45326569 168.66866451 5.45668983 166.34166145 C5.4840409 144.19953253 5.34543806 118.23764643 -10.96484375 101.16015625 C-21.4882045 92.96249121 -33.10487676 91.98626606 -45.96484375 93.16015625 C-53.44158483 94.70103029 -59.28826823 98.14786084 -64.96484375 103.16015625 C-65.57070312 103.68480469 -66.1765625 104.20945312 -66.80078125 104.75 C-84.1247481 120.82573343 -88.08233508 149.30369453 -89.07884932 171.72528362 C-89.25675108 178.31182446 -89.23427267 184.89893117 -89.22021484 191.48730469 C-89.22297177 193.66739024 -89.22665589 195.84747478 -89.23118591 198.02755737 C-89.23923261 202.6828523 -89.24148316 207.3380994 -89.23923874 211.99340057 C-89.23638459 219.35601159 -89.25083167 226.71852832 -89.26821899 234.08111572 C-89.31505867 255.00328193 -89.33920879 275.92543984 -89.34570312 296.84765625 C-89.34945068 308.4326143 -89.36744361 320.01746378 -89.40079749 331.60237527 C-89.42101163 338.92167859 -89.4233833 346.240702 -89.41251731 353.56002188 C-89.40991399 358.10330692 -89.42389342 362.64642797 -89.44259834 367.18967056 C-89.44792779 369.29638446 -89.44641074 371.40312842 -89.43756294 373.50983047 C-89.42646297 376.38420546 -89.43984803 379.25746806 -89.45932007 382.1317749 C-89.45019541 382.96581022 -89.44107075 383.79984554 -89.43166959 384.65915465 C-89.50159209 389.95875813 -90.4872475 392.93359254 -93.96484375 397.16015625 C-98.44353248 401.09597362 -102.52952191 401.31210549 -108.27856445 401.32128906 C-109.02038971 401.32625397 -109.76221497 401.33121887 -110.52651978 401.33633423 C-112.98123096 401.35094155 -115.43587749 401.35775575 -117.890625 401.36328125 C-119.59832257 401.36903425 -121.30602012 401.37479197 -123.01371765 401.3805542 C-126.59565532 401.39106037 -130.17757057 401.39690543 -133.75952148 401.40039062 C-138.34275526 401.40587199 -142.92569145 401.42989389 -147.50883198 401.45836258 C-151.03735715 401.47701439 -154.56581103 401.48219593 -158.09438133 401.4837265 C-159.78362847 401.48674825 -161.47287449 401.49476063 -163.16207314 401.50791168 C-165.52925676 401.52502429 -167.89571856 401.52307941 -170.26293945 401.51660156 C-170.95666153 401.52581635 -171.65038361 401.53503113 -172.36512756 401.54452515 C-176.95666539 401.50529397 -180.0616978 400.56064032 -183.96484375 398.16015625 C-188.08046943 393.59959807 -189.08946563 391.16592924 -189.09906483 385.08992386 C-189.10352267 383.78685201 -189.10798051 382.48378016 -189.11257344 381.14122128 C-189.11248414 379.68132606 -189.11229427 378.22143084 -189.11201477 376.76153564 C-189.11531232 375.22140941 -189.11903765 373.68128403 -189.12315625 372.14115977 C-189.13319681 367.89307225 -189.13689634 363.64499885 -189.13954556 359.39690113 C-189.14344253 354.82144886 -189.15302127 350.24600785 -189.16175842 345.67056274 C-189.18153995 334.61306128 -189.19159113 323.55555887 -189.20048621 312.49804413 C-189.20486631 307.29468292 -189.21023383 302.09132274 -189.21547508 296.88796234 C-189.23248897 279.59735449 -189.24698406 262.30674729 -189.25422382 245.01613235 C-189.25613381 240.52703094 -189.25805413 236.03792952 -189.26000977 231.54882812 C-189.26049351 230.43304307 -189.26097725 229.31725801 -189.26147565 228.16766128 C-189.26977933 210.08493568 -189.29512125 192.00227615 -189.32759044 173.91957942 C-189.36063268 155.3669422 -189.37867001 136.81433859 -189.38186806 118.26167178 C-189.38403578 107.8399666 -189.39282264 97.41835778 -189.41832924 86.99668121 C-189.43999752 78.12263411 -189.44810578 69.24870676 -189.43836246 60.3746362 C-189.4338065 55.84528938 -189.4357789 51.31618985 -189.4551239 46.78687668 C-189.47267628 42.64155351 -189.47182279 38.4966595 -189.45622661 34.35133228 C-189.45383842 32.85061711 -189.45823651 31.34987284 -189.47005526 29.84920231 C-189.48511654 27.81077206 -189.47314518 25.77219559 -189.45982838 23.7337532 C-189.46080519 22.60099244 -189.46178199 21.46823168 -189.4627884 20.30114484 C-188.84442546 16.40056885 -187.40118763 14.23463266 -184.96484375 11.16015625 C-180.48965172 8.19188416 -176.8942842 7.77845493 -171.5859375 7.75610352 C-170.51643356 7.74580864 -170.51643356 7.74580864 -169.42532349 7.73530579 C-167.08412386 7.71710398 -164.74359849 7.72086505 -162.40234375 7.7265625 C-160.76619246 7.72199795 -159.13004309 7.71669156 -157.49389648 7.7106781 C-154.07104687 7.70176038 -150.64843076 7.7041553 -147.22558594 7.71411133 C-142.84740834 7.72560768 -138.4700365 7.70537309 -134.09196472 7.67619419 C-130.71523961 7.65781727 -127.33870716 7.65812744 -123.96194458 7.66383171 C-122.34806181 7.6639847 -120.7341658 7.6579589 -119.12033081 7.64554024 C-116.86096107 7.63060049 -114.60307449 7.64132658 -112.34375 7.65844727 C-110.41897827 7.65869652 -110.41897827 7.65869652 -108.45532227 7.65895081 C-103.31553144 8.39698461 -99.26643934 11.16348791 -95.96484375 15.16015625 C-94.9665947 18.15490339 -94.81160343 20.23360959 -94.75952148 23.3659668 C-94.72960365 24.95727669 -94.72960365 24.95727669 -94.69908142 26.58073425 C-94.68236893 27.7245607 -94.66565643 28.86838715 -94.6484375 30.046875 C-94.6276564 31.21902054 -94.60687531 32.39116608 -94.58546448 33.59883118 C-94.52000557 37.34837911 -94.46110079 41.09799788 -94.40234375 44.84765625 C-94.35915507 47.38737716 -94.31554067 49.92709087 -94.27148438 52.46679688 C-94.16432789 58.69784147 -94.06255455 64.92895676 -93.96484375 71.16015625 C-93.51165016 70.1872187 -93.51165016 70.1872187 -93.04930115 69.19462585 C-91.65174129 66.20459798 -90.24391676 63.21950976 -88.8359375 60.234375 C-88.36103882 59.21436401 -87.88614014 58.19435303 -87.39685059 57.14343262 C-76.13087763 33.3417464 -58.75345865 14.43916849 -33.69140625 5.375 C-22.55863044 1.74576176 -11.61949651 0.62766714 0 0 Z " fill="#000000" transform="translate(2548.96484375,654.83984375)"/>
<path d="M0 0 C41.46890777 -0.85173623 80.07343391 13.25900217 110.12158203 41.93115234 C152.89458304 83.75080024 166.91971643 146.35105075 167.98046875 204.203125 C168.34882534 257.6411421 155.24666297 316.08911746 118.32617188 356.63525391 C116.97103546 358.13544302 115.65377443 359.66289314 114.33984375 361.19921875 C96.04752284 382.28713316 70.57018109 396.45853097 43.98046875 404.125 C42.87960938 404.44339844 41.77875 404.76179688 40.64453125 405.08984375 C1.91831972 414.69968143 -39.61276458 408.01229757 -73.96875 388.4453125 C-115.22676772 363.26888709 -138.93363172 319.48716985 -150.22900391 273.62890625 C-154.35044913 255.36115397 -157.10995804 236.7224967 -157.2578125 217.984375 C-157.26760635 216.95152374 -157.27740021 215.91867249 -157.28749084 214.85452271 C-157.77064067 150.6728637 -146.06074853 86.96578719 -99.49121094 39.57373047 C-95.59322049 35.73652487 -91.41526094 32.37071807 -87.01953125 29.125 C-86.49085449 28.73248047 -85.96217773 28.33996094 -85.41748047 27.93554688 C-59.97206518 9.30362689 -31.16020308 1.28994372 0 0 Z M-22.01953125 84.125 C-22.61121094 84.50914062 -23.20289062 84.89328125 -23.8125 85.2890625 C-39.94775778 97.32589096 -45.70002299 121.51757698 -48.48657227 140.26760864 C-50.85053477 158.80483873 -51.46894499 177.12798024 -51.34210205 195.80517578 C-51.32864402 198.48764762 -51.33395094 201.16995416 -51.33897114 203.85244465 C-51.80988145 266.46931297 -51.80988145 266.46931297 -24.70703125 321 C-15.78031442 329.48645359 -5.26438099 332.63008494 6.83203125 332.37109375 C19.74205654 331.36199748 29.96486637 326.16380429 38.8203125 316.77734375 C61.74839142 288.62514559 61.35618199 246.20877646 61.24121094 211.92211914 C61.22985142 208.50736853 61.23658115 205.09293099 61.24808788 201.67819118 C61.30879374 180.43964785 60.73112048 159.17173992 57.16796875 138.1875 C56.99692627 137.16229248 56.82588379 136.13708496 56.6496582 135.08081055 C53.5448423 117.23612841 49.19650609 95.73466442 33.6328125 84.41796875 C16.59131141 73.59253297 -4.98856674 72.68283744 -22.01953125 84.125 Z " fill="#000000" transform="translate(2140.01953125,654.875)"/>
<path d="M0 0 C4.03344863 1.49349091 7.61924554 3.56036841 11.3125 5.75 C13.43743525 6.95454131 15.56243664 8.15896596 17.6875 9.36328125 C18.74710938 9.97510254 19.80671875 10.58692383 20.8984375 11.21728516 C25.49831664 13.86120183 30.15162857 16.40312168 34.8125 18.9375 C35.70283936 19.42323486 36.59317871 19.90896973 37.51049805 20.40942383 C57.18282137 31.11232686 77.0927213 41.15307089 97.48925781 50.40429688 C100.93391707 51.96996397 104.36963954 53.55400233 107.8046875 55.140625 C187.90294126 91.87810084 272.99527618 118.14648364 553 161 C554.30146973 161.07202637 555.60293945 161.14405273 556.94384766 161.21826172 C654.77672445 166.39046682 753.54581064 156.6941572 1057.91723633 73.12329102 C1080.01083481 63.94758917 1080.01083481 63.94758917 1090.1875 67.0625 C1094.59038383 68.90290544 1097.41053191 72.05755724 1100 76 C1101.80884399 81.42653197 1101.83684753 86.84393048 1099.5 92.125 C1094.71068226 100.52702109 1085.5915568 105.5541718 1077.76513672 110.81298828 C1076.02736147 111.98160007 1074.29658352 113.16002108 1072.56640625 114.33984375 C1011.28520429 155.90559448 943.52485205 185.72745282 873.3125 208.5 C872.56129883 208.74371338 871.81009766 208.98742676 871.03613281 209.23852539 C855.03216903 214.4138927 838.94533607 219.17480907 822.625 223.25 C821.87874359 223.43709534 821.13248718 223.62419067 820.36361694 223.81695557 C807.07587411 227.13354334 793.71807815 230.07626131 780.3125 232.875 C779.41887756 233.06195435 778.52525513 233.24890869 777.60455322 233.44152832 C766.10401926 235.83821319 754.58223547 238.03589479 743 240 C742.04125977 240.165 741.08251953 240.33 740.09472656 240.5 C736.03014709 241.15669444 731.95636223 241.73411231 727.87890625 242.3046875 C726.99507767 242.42842743 726.11124908 242.55216736 725.20063782 242.67965698 C679.11781469 249.100323 633.53961544 252.3647664 587.01763916 252.19561768 C583.18034004 252.18461117 579.34307525 252.18515475 575.50576305 252.18575573 C571.78175353 252.18548445 568.05776694 252.18001583 564.33376503 252.17275429 C562.5711414 252.16959009 560.80851521 252.16760552 559.0458889 252.16686058 C556.61021793 252.16469329 554.17466024 252.15595118 551.73901367 252.14526367 C550.66790848 252.14594345 550.66790848 252.14594345 549.57516479 252.14663696 C545.91780307 252.12316373 542.56111341 251.8251716 539 251 C536.96496035 250.79287085 534.92661539 250.6168654 532.88671875 250.46484375 C531.72076172 250.37783203 530.55480469 250.29082031 529.35351562 250.20117188 C528.14373047 250.11416016 526.93394531 250.02714844 525.6875 249.9375 C524.48931641 249.84662109 523.29113281 249.75574219 522.05664062 249.66210938 C514.98259138 249.12292627 514.98259138 249.12292627 507.89453125 249.06640625 C503.48683255 248.9912499 499.39449523 248.28103567 495.06298828 247.50830078 C492.27577842 247.04576524 489.52779097 246.71627158 486.71484375 246.46484375 C434.78160442 241.8117864 382.96540249 229.60128303 333 215 C332.28817566 214.79266235 331.57635132 214.58532471 330.84295654 214.3717041 C277.62327708 198.83145179 226.8094471 176.87655023 177.25 152.1875 C176.40646973 151.76807129 175.56293945 151.34864258 174.69384766 150.91650391 C162.91523398 145.01218805 151.47588784 138.59760075 140.1875 131.8125 C133.23697797 127.63486943 126.32985898 123.48912107 119 120 C119 119.34 119 118.68 119 118 C118.03513672 117.67322266 118.03513672 117.67322266 117.05078125 117.33984375 C112.82748098 115.48505247 109.06801358 113.0438293 105.1875 110.5625 C104.35162354 110.03116455 103.51574707 109.4998291 102.65454102 108.95239258 C95.20575494 104.18864225 87.9014927 99.23079873 80.65869141 94.16064453 C79.24848814 93.17387586 77.83370817 92.193653 76.41796875 91.21484375 C69.89688775 86.6934128 63.48229525 82.02361226 57.06689453 77.35400391 C56.31263184 76.80663574 55.55836914 76.25926758 54.78125 75.6953125 C54.10126953 75.20047363 53.42128906 74.70563477 52.72070312 74.19580078 C51.00633167 72.94350481 51.00633167 72.94350481 49 72 C49 71.34 49 70.68 49 70 C48.01 69.7215625 48.01 69.7215625 47 69.4375 C43.34184303 67.68463312 40.81273909 65.31503406 37.8671875 62.55859375 C35.97995431 60.79044854 35.97995431 60.79044854 33 60 C31.87040049 58.87040049 30.74500072 57.73630347 29.640625 56.58203125 C27.59749451 54.61186971 25.41468935 52.88420631 23.1875 51.125 C19.49795228 48.20906712 15.90949767 45.22772558 12.390625 42.109375 C9.79126215 39.81581955 7.17161212 37.54692769 4.54858398 35.28051758 C2.57707411 33.575107 0.61071711 31.86388715 -1.35546875 30.15234375 C-3.50542023 28.28371512 -5.66888791 26.44609146 -7.86328125 24.62890625 C-12.47048608 20.7606639 -15.49292457 17.92065348 -17 12 C-17 7.77341673 -16.39699607 5.62196051 -14.125 2.0625 C-9.49530621 -0.9930979 -5.41389956 -0.75845012 0 0 Z " fill="#FF9900" transform="translate(687,1096)"/>
<path d="M0 0 C0.9882584 -0.00382555 1.9765168 -0.00765109 2.99472243 -0.01159257 C6.30956962 -0.02191972 9.62424352 -0.01793092 12.93910217 -0.01396179 C15.31431234 -0.0183084 17.68952111 -0.02349138 20.06472778 -0.02944946 C25.84865525 -0.04146302 31.63252868 -0.04399025 37.41646712 -0.0416492 C42.11786569 -0.03986587 46.81925017 -0.04161599 51.52064705 -0.04587364 C52.18987468 -0.04646883 52.85910232 -0.04706402 53.54860957 -0.04767724 C54.90816152 -0.048889 56.26771346 -0.05010313 57.6272654 -0.05131962 C70.3757814 -0.06219486 83.12427095 -0.0600327 95.87278844 -0.05393478 C107.53406425 -0.04876519 119.19525653 -0.06002217 130.85651582 -0.07903299 C142.83258242 -0.09840726 154.80860949 -0.10666815 166.78469187 -0.10290974 C173.50744886 -0.10099713 180.23013475 -0.10349115 186.95287895 -0.11762428 C193.27381529 -0.13017592 199.59458412 -0.12828367 205.91551781 -0.11521339 C208.23669745 -0.11284231 210.55788878 -0.11560125 212.87905502 -0.12383652 C216.04513541 -0.13426037 219.21064923 -0.12623803 222.37670898 -0.11352539 C223.29743082 -0.12089968 224.21815266 -0.12827396 225.16677517 -0.13587171 C230.28397089 -0.0925806 233.82354919 0.40889279 238.25184631 3.26069641 C243.36772259 8.57924501 242.83344621 14.35014231 242.78309631 21.30757141 C242.78692322 22.47395142 242.79075012 23.64033142 242.79469299 24.84205627 C242.79741061 27.30648157 242.79006009 29.77093578 242.77333069 32.23530579 C242.75199813 35.98401749 242.77309962 39.73079566 242.79872131 43.47944641 C242.7960765 45.88049227 242.79094837 48.28153693 242.78309631 50.68257141 C242.79119324 51.79332031 242.79929016 52.90406921 242.80763245 54.04847717 C242.67437081 65.26225215 238.79154003 73.15861937 232.37684631 82.13569641 C231.81022278 82.94595276 231.24359924 83.75620911 230.6598053 84.59101868 C229.4657853 86.29626997 228.26739703 87.99847027 227.06483459 89.69770813 C225.29287312 92.20269756 223.53387374 94.71623783 221.77919006 97.23335266 C218.86663393 101.40930507 215.94397797 105.57805572 213.01795959 109.74458313 C210.09162768 113.91361503 207.17206532 118.08738161 204.25184631 122.26069641 C203.08521242 123.92738602 201.91854575 125.59405268 200.75184631 127.26069641 C200.17434631 128.08569641 199.59684631 128.91069641 199.00184631 129.76069641 C187.91851298 145.59402974 176.83517965 161.42736308 165.75184631 177.26069641 C165.17418518 178.08593811 164.59652405 178.91117981 164.00135803 179.76142883 C162.83636268 181.42568469 161.67132371 183.08991002 160.50624084 184.75410461 C157.5636422 188.95740564 154.62183727 193.16125822 151.68153381 197.36616516 C146.22008155 205.17508375 140.75214175 212.97907531 135.25184631 220.76069641 C124.81832524 235.52508009 114.46223427 250.34102748 104.25184631 265.26069641 C105.0495343 265.24498596 105.84722229 265.22927551 106.66908264 265.21308899 C148.6787045 264.50126513 188.93190103 270.36251727 227.25184631 288.26069641 C227.94020569 288.58215637 228.62856506 288.90361633 229.33778381 289.2348175 C238.57128445 293.6372187 244.98266739 297.80830415 248.59547424 307.63967896 C250.01792757 313.31980334 249.70176495 319.22800983 249.68544006 325.04975891 C249.69000877 326.48126979 249.69531638 327.91277849 249.70132446 329.34428406 C249.71021899 332.33148666 249.70787254 335.31842135 249.69789124 338.30561829 C249.68637414 342.12328046 249.70667226 345.94002138 249.73580837 349.75756264 C249.75419346 352.70880443 249.75387396 355.65982598 249.74817085 358.61111069 C249.74801809 360.01845472 249.75402525 361.4258141 249.76646233 362.83310318 C249.78142078 364.80191677 249.76804024 366.77088319 249.7535553 368.73970032 C249.75330605 370.41559738 249.75330605 370.41559738 249.75305176 372.12535095 C248.98541769 376.92736979 246.67944647 380.10318277 242.93934631 383.13569641 C238.6666825 384.92425336 235.2152246 384.9964241 230.91810608 383.38618469 C228.14869315 382.10202718 225.41907947 380.75215031 222.68934631 379.38569641 C195.42068057 366.34822404 166.23133743 358.70394447 136.25184631 355.26069641 C135.43514465 355.16498352 134.61844299 355.06927063 133.7769928 354.97065735 C125.42724349 354.09676443 117.0756157 354.01737365 108.68934631 354.01069641 C107.53841995 354.0096843 107.53841995 354.0096843 106.36424255 354.00865173 C64.57175609 354.0665803 22.93643372 363.5522276 -14.16612244 383.05757141 C-18.08682872 384.88446632 -21.51499474 384.95709409 -25.74815369 384.26069641 C-30.14602128 381.77494516 -31.79480115 378.83285659 -33.74815369 374.26069641 C-34.12910461 371.14122009 -34.12910461 371.14122009 -34.13633728 367.77485657 C-34.14579376 366.50558319 -34.15525024 365.23630981 -34.16499329 363.92857361 C-34.15961724 362.55229887 -34.15346273 361.17602699 -34.14659119 359.79975891 C-34.14861649 358.3669266 -34.15153172 356.9340953 -34.1552887 355.50126648 C-34.15970484 352.49698581 -34.15331371 349.49297315 -34.13926697 346.48872375 C-34.12232999 342.68556675 -34.13192082 338.88305231 -34.14998436 335.07991982 C-34.16097502 332.11627115 -34.15730456 329.15276735 -34.14960098 326.18911362 C-34.14763268 324.79004715 -34.14993613 323.39096647 -34.15703964 321.99191666 C-34.24716834 299.21926936 -27.66648182 283.8856349 -14.51670837 265.72407532 C-11.29125657 261.23141813 -8.14953661 256.68045939 -4.99815369 252.13569641 C-3.63106724 250.16817827 -2.2638787 248.20073107 -0.89659119 246.23335266 C-0.21177673 245.24738098 0.47303772 244.2614093 1.17860413 243.24555969 C10.08579822 230.42180145 19.00263575 217.60504067 27.96327209 204.81855774 C32.40652446 198.47545361 36.83171421 192.11992861 41.25184631 185.76069641 C46.80652294 177.76919805 52.37737715 169.78933391 57.96278381 161.81929016 C62.40616171 155.47591584 66.83154676 149.12016952 71.25184631 142.76069641 C76.7999128 134.77870804 82.3637111 126.80803875 87.94300842 118.84785461 C93.26033408 111.25763586 98.55116261 103.64907264 103.83583069 96.03608704 C104.46940491 95.12407532 105.10297913 94.2120636 105.75575256 93.27241516 C106.31077454 92.47279358 106.86579651 91.673172 107.43763733 90.84931946 C108.90326782 88.75806927 110.38006138 86.67625437 111.86523438 84.59890747 C112.31292647 83.97257825 112.76061857 83.34624903 113.2218771 82.70094013 C113.56176694 82.2256597 113.90165678 81.75037928 114.25184631 81.26069641 C113.30154824 81.25711388 113.30154824 81.25711388 112.33205223 81.25345898 C96.90789711 81.1942907 81.48392224 81.11872905 66.05994225 81.0249815 C58.60097543 80.98003983 51.14205619 80.94062146 43.68299866 80.91426086 C37.18073023 80.89126753 30.67861256 80.8578547 24.17646372 80.81199485 C20.73446018 80.78808044 17.29260578 80.76934008 13.85052109 80.7630825 C10.00545147 80.75589691 6.16075521 80.72544632 2.31581116 80.69306946 C1.17789124 80.69450455 0.03997131 80.69593964 -1.13243103 80.69741821 C-8.19298771 80.61323598 -12.85019697 80.09569471 -18.08981323 74.96990967 C-20.09186245 71.69918303 -20.26023742 69.73117857 -20.28160095 65.9132843 C-20.30535545 64.02090782 -20.30535545 64.02090782 -20.32958984 62.09030151 C-20.32574798 60.72131479 -20.32070871 59.35233097 -20.31455994 57.98335266 C-20.31979886 56.56997265 -20.32607633 55.15659614 -20.33334351 53.7432251 C-20.34373578 50.78509538 -20.33920431 47.82744703 -20.3245697 44.86933899 C-20.3073904 41.08836753 -20.33086982 37.30891702 -20.3660593 33.52811527 C-20.38807809 30.61028069 -20.38658114 27.69280748 -20.37829399 24.7749157 C-20.37747675 23.38152334 -20.38429668 21.98810384 -20.39906502 20.59478951 C-20.50877668 8.37008703 -20.50877668 8.37008703 -17.52134705 4.48506165 C-11.88445312 -0.03626423 -6.95729766 -0.02848887 0 0 Z " fill="#000000" transform="translate(1699.7481536865234,661.7393035888672)"/>
<path d="M0 0 C25.9381341 -0.41171641 64.39882355 -0.53157933 85.44140625 17.00390625 C93.13540589 26.3466201 90.84233438 44.6275228 89.97314453 55.97949219 C88.08492702 75.20678963 83.81044683 93.95729791 78.50390625 112.50390625 C78.05772949 114.07483032 78.05772949 114.07483032 77.60253906 115.67749023 C77.31862305 116.63856689 77.03470703 117.59964355 76.7421875 118.58984375 C76.49122314 119.44368652 76.24025879 120.2975293 75.98168945 121.17724609 C75.19140625 123.12890625 75.19140625 123.12890625 73.19140625 124.12890625 C73.07667969 124.91910156 72.96195313 125.70929688 72.84375 126.5234375 C71.91882934 131.63542416 69.84668095 136.08068431 67.75390625 140.81640625 C67.30942139 141.82864258 66.86493652 142.84087891 66.40698242 143.88378906 C56.887505 165.26450519 45.23509313 184.58705336 30.26953125 202.62109375 C28.82409804 204.36539473 27.42037273 206.14475699 26.05078125 207.94921875 C25.13039063 209.02816406 25.13039063 209.02816406 24.19140625 210.12890625 C23.53140625 210.12890625 22.87140625 210.12890625 22.19140625 210.12890625 C22.19140625 210.78890625 22.19140625 211.44890625 22.19140625 212.12890625 C20.6875 213.64453125 20.6875 213.64453125 18.62890625 215.37890625 C17.90058594 215.99636719 17.17226562 216.61382813 16.421875 217.25 C15.68582031 217.87003906 14.94976563 218.49007813 14.19140625 219.12890625 C13.54816406 219.69738281 12.90492188 220.26585937 12.2421875 220.8515625 C11.64792969 221.37621094 11.05367187 221.90085937 10.44140625 222.44140625 C9.9103125 222.91191406 9.37921875 223.38242188 8.83203125 223.8671875 C4.73847228 227.01532928 0.34263672 228.34002225 -4.80859375 228.12890625 C-7.30859375 226.75390625 -7.30859375 226.75390625 -8.80859375 224.12890625 C-9.6113307 217.83628762 -8.34281144 212.68025411 -5.94921875 206.9140625 C-5.64877151 206.15366165 -5.34832428 205.3932608 -5.03877258 204.6098175 C-4.3934005 202.97966933 -3.74146659 201.3521061 -3.08352661 199.72698975 C-1.32578525 195.37850981 0.37582349 191.00800152 2.0859375 186.640625 C2.43411026 185.75522034 2.78228302 184.86981567 3.14100647 183.95758057 C23.74816766 132.49285857 23.74816766 132.49285857 31.19140625 78.12890625 C30.86140625 77.46890625 30.53140625 76.80890625 30.19140625 76.12890625 C30.06340031 74.54732172 29.96293434 72.96343597 29.87890625 71.37890625 C29.3764735 66.52205635 28.7114391 63.73080033 25.19140625 60.12890625 C8.80919351 49.30494426 -12.20883149 49.89526155 -31.12109375 49.87890625 C-31.9402829 49.87789917 -32.75947205 49.87689209 -33.60348511 49.87585449 C-56.23152012 49.89435012 -78.69417313 51.75769155 -101.171875 54.25390625 C-102.44004814 54.39430328 -102.44004814 54.39430328 -103.73384094 54.53753662 C-107.77375528 54.98793618 -111.81102532 55.45312538 -115.84594727 55.94628906 C-133.86179893 58.09343613 -133.86179893 58.09343613 -139.80859375 54.12890625 C-140.91277786 50.65861334 -140.9816497 48.67114823 -139.87109375 45.19140625 C-135.01249238 37.97711937 -127.64462876 33.45480566 -120.18359375 29.25390625 C-119.2719043 28.73997314 -118.36021484 28.22604004 -117.42089844 27.6965332 C-81.40538949 7.86828901 -40.59488174 1.37398061 0 0 Z " fill="#FF9900" transform="translate(1805.80859375,1070.87109375)"/>
</svg>
