<?xml version="1.0" encoding="UTF-8"?>
<svg version="1.1" xmlns="http://www.w3.org/2000/svg" width="1500" height="354">
<path d="M0 0 C5.03929881 4.15638034 9.91051113 8.48297663 14.6875 12.9375 C15.47769531 13.66195312 16.26789063 14.38640625 17.08203125 15.1328125 C49.21057531 45.75614206 66.26229853 90.72098985 67.66381836 134.54296875 C68.50814746 183.11628385 50.62237939 226.61844584 17.6875 261.9375 C16.96304687 262.72769531 16.23859375 263.51789063 15.4921875 264.33203125 C0.2817303 280.29012109 -27.23057599 302.22092525 -50.046875 304.2734375 C-62.5621641 304.55977543 -70.8682767 302.30238616 -80.109375 293.51171875 C-85.83559076 286.82098083 -88.77746327 278.17129454 -88.578125 269.3671875 C-87.41322358 258.71176568 -83.33891805 250.98983819 -75.3125 243.9375 C-70.9848962 240.79397668 -66.49105673 238.47629109 -61.6875 236.1875 C-35.4185951 223.26530632 -16.41537308 202.56042098 -6.65332031 174.86987305 C-2.70057247 163.15173634 -0.93936302 152.08556485 -1 139.6875 C-1.00491455 138.49672852 -1.0098291 137.30595703 -1.01489258 136.07910156 C-1.13132404 127.32584412 -1.85564205 119.37799586 -4.3125 110.9375 C-4.6528125 109.71546875 -4.993125 108.4934375 -5.34375 107.234375 C-9.72319609 92.85322094 -16.78987207 80.55805629 -26.3125 68.9375 C-27.35857422 67.64392578 -27.35857422 67.64392578 -28.42578125 66.32421875 C-45.15236487 46.66207383 -70.8229413 33.88464836 -96.3125 30.9375 C-129.39246843 28.5297487 -158.43784439 36.9704597 -183.69189453 58.64868164 C-203.14034121 75.99693507 -216.81457744 102.52652 -218.48950195 128.70385742 C-219.23227586 163.11707581 -210.62126393 190.74764958 -186.80859375 216.5 C-176.40242067 226.66189672 -164.03359248 233.8095171 -150.9375 239.9375 C-141.62560937 244.55004769 -135.99641724 251.24547739 -132.3125 260.9375 C-130.05206352 270.39945526 -131.30899921 279.05876841 -135.3125 287.9375 C-140.26743895 295.24108001 -146.66487165 300.77415543 -155.125 303.52734375 C-174.80125089 307.21664079 -191.41372743 297.45287423 -207.3125 286.9375 C-217.36265208 280.05421697 -226.54844673 272.37934543 -235.3125 263.9375 C-236.0653125 263.24785156 -236.818125 262.55820312 -237.59375 261.84765625 C-265.37139049 235.62999195 -284.42084833 194.05313059 -286.41950989 155.89445496 C-286.47563986 153.76643728 -286.50278512 151.64043503 -286.515625 149.51171875 C-286.52268463 148.73076843 -286.52974426 147.94981812 -286.53701782 147.14520264 C-286.76358741 114.73247167 -286.76358741 114.73247167 -283.3125 100.9375 C-283.11914062 100.12716309 -282.92578125 99.31682617 -282.7265625 98.48193359 C-276.75148465 73.97765987 -266.23558837 50.58559422 -250.3125 30.9375 C-249.89242676 30.41591309 -249.47235352 29.89432617 -249.03955078 29.35693359 C-218.9063613 -7.85984585 -177.05509817 -31.05067699 -129.41435242 -36.85331726 C-83.06445317 -41.46620007 -36.70780524 -28.80503282 0 0 Z " fill="#00AA13" transform="translate(286.3125,38.0625)"/>
<path d="M0 0 C0.99 0.99 0.99 0.99 2 2 C2.33 -5.26 2.66 -12.52 3 -20 C20.82 -20 38.64 -20 57 -20 C57.09050678 7.42634036 57.1641019 34.85255867 57.20724869 62.27901077 C57.2278204 75.01532613 57.25583733 87.75154169 57.30175781 100.48779297 C57.34179125 111.59659959 57.36747193 122.70533389 57.37635398 133.81421065 C57.38154089 139.6891207 57.39361821 145.56382394 57.42292023 151.4386673 C57.45035085 156.98396712 57.4583899 162.52897768 57.45243073 168.07433891 C57.45351873 170.09455126 57.46130604 172.11477469 57.4768219 174.13492775 C57.69093852 203.48697688 50.62237522 229.89369352 29.7421875 251.3203125 C6.86334945 273.67769555 -23.3214487 281.46652153 -54.51171875 281.15234375 C-91.36141376 280.37323959 -124.11923573 267.15611347 -151 242 C-150.46270542 238.09161523 -148.8466575 236.6736887 -145.875 234.1875 C-141.1636263 230.1056633 -136.75425263 225.81036198 -132.375 221.375 C-119.84162362 208.76827426 -119.84162362 208.76827426 -117 207 C-112.13896313 207 -111.30169719 208.04559367 -107.625 211.0625 C-87.77860457 226.60715312 -64.52323188 229.45256734 -40 228 C-27.90235397 226.52702301 -16.03972188 220.19496202 -7.75 211.30078125 C0.29705278 200.7210623 2.3351402 189.91553985 2.125 177 C2.11597656 175.93910156 2.10695313 174.87820312 2.09765625 173.78515625 C2.07427524 171.18986362 2.04150556 168.59505535 2 166 C1.39704102 166.53206055 0.79408203 167.06412109 0.17285156 167.61230469 C-19.09667147 184.35297346 -45.05945941 189.59740708 -70.01953125 187.859375 C-91.17755906 186.13218906 -110.95865973 179.86053146 -128 167 C-128.5269043 166.60329102 -129.05380859 166.20658203 -129.59667969 165.79785156 C-150.77829339 149.59423135 -163.43889759 126.44249791 -167.60522461 100.23217773 C-168.27880606 94.71730769 -168.3394565 89.23776308 -168.3125 83.6875 C-168.30831055 82.50341553 -168.30412109 81.31933105 -168.29980469 80.09936523 C-168.18731553 71.3736774 -167.43068823 63.41796789 -165 55 C-164.73316406 54.01 -164.46632813 53.02 -164.19140625 52 C-159.75736596 37.18045199 -152.11711576 24.57800078 -142 13 C-141.34386719 12.24203125 -140.68773437 11.4840625 -140.01171875 10.703125 C-122.15500447 -8.41541277 -95.40376576 -18.25977414 -69.76171875 -19.8984375 C-44.6111078 -20.57747788 -19.79570259 -16.49641882 0 0 Z M-99.953125 48.44921875 C-109.88466185 60.82573318 -113.60419004 75.21477 -112 91 C-110.6274593 99.28177103 -108.6550938 107.91683402 -104 115 C-103.51917969 115.73476562 -103.03835938 116.46953125 -102.54296875 117.2265625 C-94.3880701 128.64724024 -81.95438544 134.75909709 -68.43383789 137.60961914 C-50.68650905 140.45624155 -33.30580449 137.32838972 -18 128 C-8.97890804 121.4380991 -1.66332709 112.41032308 0.54614258 101.23852539 C1.33991956 95.57448466 1.18454282 89.89781639 1.1875 84.1875 C1.19974609 82.95451172 1.21199219 81.72152344 1.22460938 80.45117188 C1.24652603 66.76787624 -1.27935213 56.32407377 -10.734375 46.046875 C-24.83470512 33.30795606 -41.09792178 29.26081106 -59.72119141 29.87695312 C-74.85289427 30.69400672 -89.74930889 37.16681134 -99.953125 48.44921875 Z " fill="#000000" transform="translate(609,73)"/>
<path d="M0 0 C17.82 0 35.64 0 54 0 C54.33 44.22 54.66 88.44 55 134 C59.95 129.38 64.9 124.76 70 120 C88.75 102.5 88.75 102.5 90.62475586 100.75024414 C91.87559131 99.58278686 93.12640509 98.41530637 94.37719727 97.24780273 C97.48923821 94.34304226 100.60164652 91.43867748 103.71484375 88.53515625 C104.95575099 87.37762756 106.19663638 86.22007545 107.4375 85.0625 C108.05077148 84.49047852 108.66404297 83.91845703 109.29589844 83.32910156 C112.57346599 80.27038046 115.84640585 77.20685924 119.11328125 74.13671875 C119.80429932 73.48759521 120.49531738 72.83847168 121.20727539 72.16967773 C122.50798303 70.94732036 123.808024 69.72425292 125.10717773 68.50024414 C126.32658234 67.3543812 127.55680241 66.21990785 128.7980957 65.09779358 C131.0704023 62.9957358 131.0704023 62.9957358 133.2099762 60.47909546 C138.26512101 55.09530849 142.37700813 52.12646321 149.8581543 51.86474609 C152.85199697 51.83045961 155.83245021 51.91963813 158.82421875 52.0234375 C160.42270953 52.04212949 162.02125829 52.05634484 163.61982727 52.0663147 C167.79213532 52.10418242 171.96086446 52.20211418 176.1317749 52.31335449 C180.40181064 52.41635012 184.67243491 52.46147037 188.94335938 52.51171875 C197.29720075 52.61840738 205.6481531 52.78867002 214 53 C212.54822517 56.04055527 211.16885054 58.03549501 208.68359375 60.328125 C208.00989746 60.95533447 207.33620117 61.58254395 206.64208984 62.22875977 C205.55081787 63.22927368 205.55081787 63.22927368 204.4375 64.25 C202.89702274 65.68086829 201.35666159 67.11186158 199.81640625 68.54296875 C199.02250488 69.27692871 198.22860352 70.01088867 197.41064453 70.76708984 C193.54694821 74.34591976 189.71090712 77.95394065 185.875 81.5625 C184.84717407 82.52494629 184.84717407 82.52494629 183.79858398 83.50683594 C180.56554334 86.54233926 177.37475594 89.60676549 174.25 92.75390625 C171.95218691 95.06763577 169.62359212 97.27618262 167.125 99.375 C164.1153247 101.96634205 161.28911384 104.67254783 158.5 107.5 C155.77170593 110.26560408 153.01483166 112.91287031 150.0625 115.4375 C145.97564092 118.93936136 142.23847915 122.74437268 138.4609375 126.57421875 C135.68493051 129.3105685 132.7906914 131.84770435 129.7890625 134.33203125 C127.60041987 136.37253432 125.82433573 138.63318559 124 141 C124.40613525 141.53141602 124.81227051 142.06283203 125.23071289 142.61035156 C132.73812123 152.43784896 140.22487357 162.27888932 147.625 172.1875 C152.98296681 179.35769962 158.43314899 186.44814128 163.94628906 193.49951172 C168.13996829 198.87125725 172.25284699 204.29749287 176.32763672 209.75976562 C180.4524833 215.28481431 184.62782654 220.77016609 188.8125 226.25 C194.3485264 233.50935508 199.87685311 240.77439862 205.375 248.0625 C206.01155518 248.90135742 206.64811035 249.74021484 207.30395508 250.60449219 C207.89200928 251.38598633 208.48006348 252.16748047 209.0859375 252.97265625 C209.8601001 253.99758179 209.8601001 253.99758179 210.64990234 255.04321289 C211.97657963 256.96605529 212.97785123 258.9038336 214 261 C205.76815853 261.44343538 197.54141506 261.77928847 189.30052757 261.98443127 C185.47173507 262.08299112 181.65118853 262.21608982 177.82714844 262.43334961 C153.25659723 263.79286408 153.25659723 263.79286408 146.29296875 259.22384644 C141.88628857 254.92454347 139.00851301 250.00649623 136.3190918 244.51304626 C134.08236289 240.2517786 131.14441488 236.51752085 128.25 232.6875 C127.168242 231.194031 126.08962972 229.69827308 125.015625 228.19921875 C124.50451172 227.48813965 123.99339844 226.77706055 123.46679688 226.04443359 C120.90647979 222.47584251 118.35533354 218.9007355 115.80541992 215.32470703 C112.40572415 210.56008018 108.98753392 205.80894057 105.5625 201.0625 C105.01891846 200.30839844 104.47533691 199.55429688 103.9152832 198.77734375 C101.20920915 195.03028627 98.48636252 191.29754618 95.7265625 187.58984375 C94.95783813 186.55428345 94.95783813 186.55428345 94.17358398 185.49780273 C93.20330749 184.19342084 92.22902972 182.89200315 91.25024414 181.59399414 C88 177.22150395 88 177.22150395 88 175 C81.6432472 179.5170724 76.19565757 184.67217637 70.75170898 190.21704102 C67.16498033 193.86306319 63.49957225 197.33442164 59.5859375 200.6328125 C59.06257813 201.08398438 58.53921875 201.53515625 58 202 C57.48120773 202.40825516 56.96241547 202.81651031 56.42790222 203.23713684 C54.43012888 205.70355294 54.60240556 207.42205626 54.56762695 210.57299805 C54.54783279 211.71395432 54.52803864 212.85491058 54.50764465 214.03044128 C54.50125473 215.26176285 54.49486481 216.49308441 54.48828125 217.76171875 C54.47033005 219.02264847 54.45237885 220.28357819 54.43388367 221.5827179 C54.38884576 224.93155514 54.35657259 228.2800242 54.33044434 231.62902832 C54.30064235 235.04774192 54.25427241 238.46622787 54.20898438 241.88476562 C54.121376 248.58986249 54.06144145 255.29440751 54 262 C36.18 262 18.36 262 0 262 C0 175.54 0 89.08 0 0 Z " fill="#000000" transform="translate(1286,0)"/>
<path d="M0 0 C18.10769338 17.01246999 26.06763722 40.13495444 29.75 64.0703125 C29.75 73.6403125 29.75 83.2103125 29.75 93.0703125 C-22.72 93.0703125 -75.19 93.0703125 -129.25 93.0703125 C-125.32795161 107.45115659 -119.70447848 116.21038513 -107.0546875 124.05078125 C-89.15272379 133.61344751 -68.44474437 136.25110091 -48.65234375 131.23828125 C-38.44374918 127.73383834 -29.29332402 122.78311556 -21.16796875 115.63671875 C-19.25 114.0703125 -19.25 114.0703125 -16.25 113.0703125 C-14.43505859 113.9597168 -14.43505859 113.9597168 -12.3984375 115.39453125 C-11.63700439 115.92312744 -10.87557129 116.45172363 -10.09106445 116.99633789 C-9.27726318 117.57762451 -8.46346191 118.15891113 -7.625 118.7578125 C-6.7899292 119.3448999 -5.9548584 119.9319873 -5.09448242 120.53686523 C-3.35095744 121.76346159 -1.61003121 122.99375933 0.12841797 124.22753906 C2.66014037 126.00714799 5.21596166 127.74381329 7.78515625 129.46875 C9.33606058 130.52325651 10.88684705 131.57793637 12.4375 132.6328125 C13.17371582 133.12031982 13.90993164 133.60782715 14.66845703 134.11010742 C16.69921875 135.51171875 16.69921875 135.51171875 19.75 138.0703125 C19.75 142.0703125 19.75 142.0703125 17.8359375 144.515625 C-4.24122622 166.33829692 -32.00972761 178.67214646 -63.25 180.0703125 C-64.05824219 180.1115625 -64.86648438 180.1528125 -65.69921875 180.1953125 C-100.74294873 181.07553178 -133.70239705 170.2081554 -159.25 146.0703125 C-175.24172217 129.23976903 -184.44686731 105.15164755 -185.25 82.0703125 C-185.30994141 80.71486328 -185.30994141 80.71486328 -185.37109375 79.33203125 C-185.99537381 52.19420973 -177.88479851 25.19716472 -159.25 5.0703125 C-158.50363281 4.23242188 -157.75726562 3.39453125 -156.98828125 2.53125 C-116.00826398 -41.22592547 -43.19814812 -37.04841176 0 0 Z M-119.7890625 33.1796875 C-124.59364741 39.39738562 -128.25 46.16958738 -128.25 54.0703125 C-93.93 54.0703125 -59.61 54.0703125 -24.25 54.0703125 C-28.27266312 39.32054772 -34.15110011 30.62977301 -47.25 23.0703125 C-69.89146715 12.15833383 -101.99600262 13.91110558 -119.7890625 33.1796875 Z " fill="#000000" transform="translate(1224.25,81.9296875)"/>
<path d="M0 0 C0.79792969 0.65355469 1.59585938 1.30710937 2.41796875 1.98046875 C23.12392654 19.60460957 33.31214939 44.36426752 36 71 C37.82428369 95.79026598 30.89977249 122.61420228 14.8203125 141.90234375 C14.21960938 142.59457031 13.61890625 143.28679687 13 144 C12.35804688 144.78503906 11.71609375 145.57007813 11.0546875 146.37890625 C-7.88208548 168.7047327 -35.53014526 179.95579145 -64.25 182.6875 C-66.16562769 182.80928825 -68.08241365 182.91441735 -70 183 C-70.83144531 183.04125 -71.66289063 183.0825 -72.51953125 183.125 C-102.81171744 183.86950842 -133.03111794 174.53773086 -155.50390625 153.828125 C-174.24620606 135.96449418 -186.53898113 111.70460367 -187.30078125 85.546875 C-187.32025065 83.28133029 -187.32374049 81.01560048 -187.3125 78.75 C-187.30686035 77.55850342 -187.3012207 76.36700684 -187.29541016 75.1394043 C-186.92707918 48.3952936 -176.29149803 24.66924795 -157.8125 5.375 C-116.65417227 -34.29911619 -43.73590763 -37.33943119 0 0 Z M-100 28 C-100.94875 28.4125 -101.8975 28.825 -102.875 29.25 C-116.15612519 35.74299454 -123.82066807 46.51390696 -129 60 C-133.42626783 73.0967419 -132.50117673 89.46763175 -127 102 C-126.5875 102.95003906 -126.175 103.90007812 -125.75 104.87890625 C-119.6205422 117.39902033 -109.67720434 125.24268346 -96.87109375 130.21484375 C-81.1520483 135.53018884 -65.43791028 134.93462984 -50.1015625 128.53515625 C-37.01053593 122.05559272 -27.77431015 111.81656421 -23 98 C-17.99689873 80.3277552 -19.44417976 64.34151173 -28.12109375 48.12890625 C-35.52988008 35.79119762 -46.46748386 29.29209555 -60 25 C-72.86614577 22.06251778 -87.91347566 22.6282114 -100 28 Z " fill="#000000" transform="translate(885,79)"/>
<path d="M0 0 C18.48 0 36.96 0 56 0 C56.04414646 30.718462 56.08105339 61.43689322 56.10213066 92.15537707 C56.10463187 95.78750404 56.10722054 99.41963094 56.10986328 103.05175781 C56.1103879 103.77480486 56.11091252 104.4978519 56.11145304 105.24280946 C56.12013974 116.92807515 56.13590009 128.61332103 56.15430559 140.298575 C56.17305305 152.30163309 56.18412694 164.30468084 56.18817699 176.30775297 C56.1906675 183.04424398 56.19662384 189.7806938 56.21146011 196.51716995 C56.225092 202.86511048 56.22921132 209.21298792 56.22621536 215.5609417 C56.22676302 217.88359737 56.23070688 220.20625528 56.23841095 222.52889824 C56.3025401 242.87018715 55.7586503 261.55584846 44 279 C43.4225 279.886875 42.845 280.77375 42.25 281.6875 C29.36125528 294.93426541 10.26381997 299.50120519 -7.66622925 300.08712769 C-10.45770699 300.11450411 -13.24749853 300.11281612 -16.0390625 300.09765625 C-16.93326904 300.09664917 -17.82747559 300.09564209 -18.7487793 300.09460449 C-22.04086619 300.08943221 -25.33293459 300.07547173 -28.625 300.0625 C-36.00875 300.041875 -43.3925 300.02125 -51 300 C-51 283.17 -51 266.34 -51 249 C-33.5625 248.6875 -33.5625 248.6875 -28.11547852 248.61206055 C-16.75065955 248.42351868 -16.75065955 248.42351868 -6 245 C-2.56570334 240.878844 -0.88118207 237.28974396 -0.8613348 231.94515705 C-0.85586036 231.11710255 -0.85038591 230.28904805 -0.84474558 229.43590099 C-0.84376747 228.52637571 -0.84278936 227.61685044 -0.84178162 226.67976379 C-0.83684364 225.71348216 -0.83190566 224.74720053 -0.82681805 223.75163764 C-0.81140613 220.49954731 -0.80307242 217.24747679 -0.79467773 213.99536133 C-0.78510212 211.66982345 -0.77509222 209.34428733 -0.76467896 207.01875305 C-0.73758958 200.69269735 -0.71660186 194.36663416 -0.69667697 188.04055238 C-0.677053 182.10302943 -0.65289723 176.16552642 -0.62875474 170.22802039 C-0.58107958 158.46656099 -0.53781519 146.70508965 -0.49731445 134.94360352 C-0.45795914 123.5174873 -0.41653283 112.09138168 -0.37231445 100.6652832 C-0.36959018 99.96114042 -0.36686591 99.25699763 -0.36405908 98.53151719 C-0.3503796 94.99908814 -0.33665933 91.46665925 -0.32291877 87.93423045 C-0.20895519 58.62284201 -0.10295631 29.31142948 0 0 Z " fill="#000000" transform="translate(952,54)"/>
<path d="M0 0 C1.0098999 0.01087646 2.0197998 0.02175293 3.06030273 0.03295898 C22.12948791 0.44071611 36.46919597 7.98046965 49.5625 21.375 C50.45195312 22.21611328 50.45195312 22.21611328 51.359375 23.07421875 C63.08354832 35.08204143 67.03257221 52.88225165 66.91894531 69.00830078 C66.74164966 75.79050194 65.80274101 81.94521737 63.5625 88.375 C63.29566406 89.21933594 63.02882812 90.06367188 62.75390625 90.93359375 C60.27839672 97.98604534 56.13870526 103.52968519 51.5625 109.375 C50.799375 110.426875 50.03625 111.47875 49.25 112.5625 C38.2581274 124.06562249 22.54917871 132.04215517 6.58203125 132.84375 C4.51327324 132.8777046 2.44399866 132.88753646 0.375 132.875 C-0.71562744 132.87000488 -1.80625488 132.86500977 -2.92993164 132.85986328 C-21.47922722 132.46242732 -35.26320621 125.28179544 -48.4375 112.375 C-49.06527344 111.78332031 -49.69304687 111.19164062 -50.33984375 110.58203125 C-62.40783107 98.18566333 -66.96898159 80.74842555 -66.85766602 63.94604492 C-66.3291441 46.00162824 -59.15012073 30.95380367 -46.4375 18.375 C-45.55191406 17.43914062 -45.55191406 17.43914062 -44.6484375 16.484375 C-40.48219966 12.40990451 -35.77310657 9.75543702 -30.625 7.125 C-29.98554443 6.7954834 -29.34608887 6.4659668 -28.68725586 6.12646484 C-19.38959706 1.59073859 -10.30316866 -0.15168289 0 0 Z " fill="#00AA13" transform="translate(176.4375,110.625)"/>
</svg>
