<?xml version="1.0" encoding="UTF-8"?>
<svg version="1.1" xmlns="http://www.w3.org/2000/svg" width="2400" height="783">
<path d="M0 0 C3.29900532 0.01608914 6.5967831 0.00003328 9.89575195 -0.01904297 C28.57762304 -0.03777114 47.09161204 1.63175704 65.36645508 5.64111328 C66.34171143 5.8516333 67.31696777 6.06215332 68.32177734 6.27905273 C88.41792104 10.75147872 107.4585286 17.28106318 126.36645508 25.39111328 C127.15600586 25.72723633 127.94555664 26.06335938 128.7590332 26.40966797 C153.13344313 36.91963472 175.48653633 51.899006 195.36645508 69.39111328 C196.12442383 70.03822266 196.88239258 70.68533203 197.66333008 71.35205078 C202.46884313 75.46840111 206.94647539 79.8653362 211.36645508 84.39111328 C205.80808767 91.16827293 199.61013846 97.27461681 193.40551758 103.44970703 C192.24802082 104.60533557 191.09074697 105.76118742 189.9336853 106.91725159 C186.9077529 109.93939066 183.87882811 112.95851281 180.84924316 115.97698975 C177.75028213 119.06566775 174.65419795 122.15722663 171.55786133 125.24853516 C165.49685113 131.29886427 159.43267261 137.34600521 153.36645508 143.39111328 C149.64480257 141.63919537 146.85346478 139.29641521 143.80395508 136.57861328 C130.90368549 125.40998633 116.42083318 116.34888306 101.36645508 108.39111328 C100.23208008 107.77751953 99.09770508 107.16392578 97.92895508 106.53173828 C48.82855838 80.84495667 -11.90612844 79.30017782 -64.20629883 95.171875 C-96.66341528 105.62349952 -125.08414118 123.99903858 -149.63354492 147.39111328 C-150.41213867 148.11685547 -151.19073242 148.84259766 -151.99291992 149.59033203 C-158.61749046 155.94475165 -164.12815279 163.07489245 -169.63354492 170.39111328 C-170.063125 170.95459473 -170.49270508 171.51807617 -170.93530273 172.09863281 C-178.18666527 181.65267975 -184.09942257 191.76093805 -189.63354492 202.39111328 C-190.16310791 203.39319824 -190.16310791 203.39319824 -190.70336914 204.41552734 C-201.60815257 225.28547668 -207.97683408 248.21843125 -211.63354492 271.39111328 C-211.76341797 272.20386719 -211.89329102 273.01662109 -212.02709961 273.85400391 C-217.90937277 312.70666526 -211.95832099 353.01937192 -197.63354492 389.39111328 C-197.34286133 390.13345215 -197.05217773 390.87579102 -196.75268555 391.640625 C-186.72563606 416.74698455 -171.36364034 439.01884316 -152.63354492 458.39111328 C-152.16625977 458.88417969 -151.69897461 459.37724609 -151.2175293 459.88525391 C-114.11484094 498.99620686 -59.70803144 521.56093655 -6.18676758 523.51708984 C17.43579038 524.03684533 40.45443701 522.38868673 63.36645508 516.39111328 C64.06109863 516.21354492 64.75574219 516.03597656 65.47143555 515.85302734 C97.0482552 507.65372356 125.41109106 491.37546634 149.36645508 469.39111328 C150.15294434 468.6725415 150.15294434 468.6725415 150.95532227 467.93945312 C181.97577005 439.24019727 192.30254517 400.7106628 200.36645508 360.39111328 C134.36645508 360.39111328 68.36645508 360.39111328 0.36645508 360.39111328 C0.36645508 332.67111328 0.36645508 304.95111328 0.36645508 276.39111328 C93.42645508 276.39111328 186.48645508 276.39111328 282.36645508 276.39111328 C285.65910463 294.5006858 286.7485967 312.08349303 286.67895508 330.45361328 C286.67679993 331.48258728 286.67464478 332.51156128 286.67242432 333.57171631 C286.61842948 349.68433748 286.11048824 365.4767071 283.36645508 381.39111328 C283.16777832 382.54595215 282.96910156 383.70079102 282.7644043 384.890625 C271.31903901 449.02753716 240.28409389 509.64610559 187.36645508 549.39111328 C186.84647949 549.79281738 186.32650391 550.19452148 185.79077148 550.60839844 C147.59268738 580.11152334 102.89347675 597.89684646 55.36645508 605.39111328 C54.32199219 605.55627441 53.2775293 605.72143555 52.20141602 605.89160156 C20.99485858 610.56147792 -12.49368418 610.48013708 -43.63354492 605.39111328 C-44.70088867 605.21950684 -45.76823242 605.04790039 -46.86791992 604.87109375 C-102.60945902 595.63312245 -156.2247769 572.09467493 -198.63354492 534.39111328 C-199.98769282 533.22442483 -201.34185727 532.05775559 -202.69604492 530.89111328 C-204.01096538 529.72717534 -205.32323378 528.56023778 -206.63354492 527.39111328 C-207.95032227 526.23095703 -207.95032227 526.23095703 -209.29370117 525.04736328 C-221.52571498 514.08851033 -232.44766791 502.13203352 -242.36303711 489.046875 C-243.57613327 487.46593377 -244.82670393 485.91395956 -246.07885742 484.36376953 C-275.91069682 447.09795086 -294.52396863 400.14690683 -302.63354492 353.39111328 C-302.79725586 352.50456055 -302.9609668 351.61800781 -303.12963867 350.70458984 C-310.52004577 309.27860954 -306.59986625 264.72000507 -295.63354492 224.39111328 C-295.40441406 223.52373535 -295.1752832 222.65635742 -294.93920898 221.76269531 C-289.60932157 201.76981576 -281.39377323 182.61211708 -271.63354492 164.39111328 C-271.29532715 163.75334961 -270.95710938 163.11558594 -270.60864258 162.45849609 C-253.62138718 130.63407067 -230.07082235 100.86932048 -202.63354492 77.39111328 C-201.72088867 76.58931641 -200.80823242 75.78751953 -199.86791992 74.96142578 C-159.22725904 39.53345682 -109.61032726 16.74452058 -57.13354492 5.51611328 C-55.88504761 5.24758545 -55.88504761 5.24758545 -54.61132812 4.97363281 C-51.62663951 4.37913203 -48.63858904 3.87385628 -45.63354492 3.39111328 C-44.86493134 3.26690002 -44.09631775 3.14268677 -43.30441284 3.01470947 C-28.8354672 0.73829787 -14.63880571 -0.08448589 0 0 Z " fill="#367FFF" transform="translate(305.633544921875,-0.39111328125)"/>
<path d="M0 0 C39.20728643 -1.19694063 76.8948004 9.5770882 106.00048828 36.640625 C107.06941977 37.66148119 108.13723005 38.68351344 109.20361328 39.70703125 C111.5045258 42.07270174 111.5045258 42.07270174 113.75048828 43.078125 C114.08048828 32.848125 114.41048828 22.618125 114.75048828 12.078125 C141.81048828 12.078125 168.87048828 12.078125 196.75048828 12.078125 C196.81673904 59.40834623 196.87208738 106.7385234 196.90368427 154.06877779 C196.90743598 159.66824778 196.91131898 165.26771766 196.9152832 170.8671875 C196.91607013 171.98184797 196.91685707 173.09650844 196.91766784 174.24494649 C196.93068899 192.24637315 196.95432451 210.2477708 196.98194667 228.2491803 C197.01009279 246.74760704 197.02668391 265.24601868 197.03275377 283.74446595 C197.0368512 295.1407088 197.04974874 306.53686961 197.07423768 317.93308719 C197.09020879 325.76898735 197.09486318 333.60484567 197.09099241 341.4407609 C197.08908838 345.94823109 197.09181353 350.45555889 197.10810471 354.96300316 C197.25615969 398.12906454 193.09012667 441.60280268 171.75048828 480.078125 C171.26193359 481.03976562 170.77337891 482.00140625 170.27001953 482.9921875 C163.66265267 495.83676061 154.72655563 506.73518672 144.75048828 517.078125 C143.49171875 518.44904297 143.49171875 518.44904297 142.20751953 519.84765625 C120.56111468 542.73848377 89.998455 556.17053645 59.75048828 563.078125 C58.85845703 563.28985352 57.96642578 563.50158203 57.04736328 563.71972656 C42.2657913 567.0893696 27.59220806 567.46763002 12.50048828 567.515625 C11.58007751 567.52188904 10.65966675 567.52815308 9.71136475 567.53460693 C-10.49337404 567.62151194 -29.92375589 565.04313127 -49.24951172 559.078125 C-49.91192871 558.87380859 -50.5743457 558.66949219 -51.25683594 558.45898438 C-75.09239183 550.84610721 -97.12797903 537.19476678 -115.24951172 520.078125 C-116.53761874 518.99056158 -117.82920706 517.90710587 -119.12451172 516.828125 C-135.20599576 502.68028634 -147.3600009 484.93894243 -157.24951172 466.078125 C-157.88863624 464.89182018 -158.52795269 463.70561873 -159.16748047 462.51953125 C-162.32670232 456.49749052 -162.32670232 456.49749052 -163.24951172 454.078125 C-162.24951172 451.078125 -162.24951172 451.078125 -159.06152344 449.29882812 C-157.64780634 448.64063839 -156.22819327 447.99502483 -154.80419922 447.359375 C-154.04315887 447.01104614 -153.28211853 446.66271729 -152.49801636 446.30383301 C-144.20347582 442.53945062 -135.79808093 439.04136636 -127.37451172 435.578125 C-125.0016345 434.59806016 -122.6292359 433.61684342 -120.25688171 432.63551331 C-118.71192952 431.99654208 -117.16677742 431.35805399 -115.62141418 430.72007751 C-111.33656125 428.94949922 -107.06234551 427.1570409 -102.80029297 425.33203125 C-101.91132324 424.95175781 -101.02235352 424.57148437 -100.10644531 424.1796875 C-98.54893575 423.51079137 -96.99312236 422.83792462 -95.43945312 422.16015625 C-92.52807732 420.9131323 -90.45425566 420.078125 -87.24951172 420.078125 C-86.99371338 420.59084961 -86.73791504 421.10357422 -86.47436523 421.63183594 C-81.17915719 432.1679906 -75.88865999 442.03142848 -68.24951172 451.078125 C-67.40775391 452.08230469 -66.56599609 453.08648438 -65.69873047 454.12109375 C-47.59831705 475.08522392 -23.33356739 486.39469408 4.12548828 488.828125 C32.78777893 490.58972638 60.47429267 482.74862904 82.29345703 463.87890625 C104.62929993 442.92823191 112.71764606 411.82572424 113.75048828 382.078125 C113.97890694 370.7467946 113.87949721 359.41007039 113.75048828 348.078125 C113.24984863 348.5925415 112.74920898 349.10695801 112.23339844 349.63696289 C108.05434023 353.88161169 103.83832655 357.87316017 99.12548828 361.515625 C98.52921631 361.97807617 97.93294434 362.44052734 97.31860352 362.91699219 C64.99511093 387.62922029 26.07527435 396.31871103 -14.30517578 391.30883789 C-53.14508196 385.5083312 -88.47020846 367.54457875 -117.24951172 341.078125 C-117.79559082 340.57732422 -118.34166992 340.07652344 -118.90429688 339.56054688 C-156.43914861 304.6868727 -177.5326206 253.92505851 -179.53466797 203.13671875 C-180.78665395 149.04735996 -161.0426933 97.86729937 -124.01513672 58.5234375 C-94.04188555 27.41250113 -56.06590896 7.42387769 -13.24951172 1.078125 C-12.26724609 0.92730469 -11.28498047 0.77648437 -10.27294922 0.62109375 C-6.84935028 0.21352245 -3.4435915 0.1195951 0 0 Z M-64.24951172 116.078125 C-81.60851607 136.96113775 -91.07553302 164.07661491 -92.24951172 191.078125 C-92.31138672 192.4703125 -92.31138672 192.4703125 -92.37451172 193.890625 C-93.03166411 224.11963485 -82.94911886 254.08909003 -63.24951172 277.078125 C-62.234375 278.31175781 -62.234375 278.31175781 -61.19873047 279.5703125 C-47.04671801 296.1801699 -27.26374032 306.86441065 -6.24951172 312.078125 C-5.29689453 312.32175781 -4.34427734 312.56539062 -3.36279297 312.81640625 C21.94934298 318.12437199 48.57833844 312.41699084 70.14501953 298.5625 C96.95424774 280.53100403 111.65528308 253.53702445 118.53173828 222.55859375 C119.03538899 219.73296513 119.43492447 216.93049402 119.75048828 214.078125 C119.86005859 213.0984375 119.96962891 212.11875 120.08251953 211.109375 C123.27777441 178.04913784 115.32867121 142.61640782 94.37548828 116.265625 C76.35454511 95.42401246 52.80076512 80.37837549 24.75048828 78.078125 C-9.96969869 76.175649 -41.42210575 89.96249498 -64.24951172 116.078125 Z " fill="#3680FF" transform="translate(1652.24951171875,215.921875)"/>
<path d="M0 0 C32.76138867 30.57541972 52.08966863 73.55928571 57.70507812 117.59130859 C57.79934082 118.32824951 57.89360352 119.06519043 57.99072266 119.82446289 C63.92183735 171.79864055 49.39751646 224.69985087 17.16992188 265.86083984 C1.79268636 284.94992281 -16.20138977 300.23509737 -37.29492188 312.59130859 C-37.94912109 312.97673828 -38.60332031 313.36216797 -39.27734375 313.75927734 C-57.5133262 324.35024435 -77.66074724 331.41937165 -98.29492188 335.59130859 C-99.06143066 335.75356934 -99.82793945 335.91583008 -100.61767578 336.08300781 C-125.02767852 341.05741216 -152.94144009 340.58077868 -177.29492188 335.59130859 C-178.1332959 335.41970215 -178.97166992 335.2480957 -179.83544922 335.07128906 C-231.06769795 324.1577375 -275.14632466 293.9311183 -304.29492188 250.59130859 C-319.95516848 225.77371228 -328.74706622 198.45445723 -333.29492188 169.59130859 C-333.46507812 168.51369263 -333.46507812 168.51369263 -333.63867188 167.41430664 C-334.67849594 159.63512283 -334.53880883 151.73855694 -334.54492188 143.90380859 C-334.54559662 143.12641327 -334.54627136 142.34901794 -334.54696655 141.54806519 C-334.4739694 88.45594148 -314.34476169 39.5545497 -277.29492188 1.59130859 C-274.73329746 -0.88784904 -272.05930205 -3.15915385 -269.29492188 -5.40869141 C-268.20636886 -6.32143829 -267.11782835 -7.23420009 -266.02929688 -8.14697266 C-257.25775639 -15.41746948 -248.15751461 -21.71192952 -238.29492188 -27.40869141 C-237.6276709 -27.79653809 -236.96041992 -28.18438477 -236.27294922 -28.58398438 C-213.36926811 -41.7308627 -187.5837511 -49.78661906 -161.29492188 -52.40869141 C-160.32039062 -52.51826172 -159.34585938 -52.62783203 -158.34179688 -52.74072266 C-99.70376247 -58.37899519 -43.56122316 -39.29027642 0 0 Z M-219.88867188 62.59130859 C-230.40611808 75.7039688 -237.67983288 89.67436988 -242.60742188 105.71630859 C-242.85008789 106.50287842 -243.09275391 107.28944824 -243.34277344 108.09985352 C-252.3191683 138.96811379 -248.42275494 174.34437077 -233.35742188 202.71630859 C-219.01009583 228.52840861 -196.45282486 247.94928965 -168.09179688 256.59521484 C-142.41855835 263.33047804 -116.48822971 262.05432826 -92.29492188 250.59130859 C-91.33585938 250.14013672 -90.37679687 249.68896484 -89.38867188 249.22412109 C-62.49035385 235.54308003 -43.79670899 210.74059219 -34.1171875 182.62255859 C-23.75257508 150.47631454 -26.04938904 114.61292268 -41.23486328 84.34716797 C-55.43610153 57.57126501 -78.10075377 38.10575416 -106.91601562 28.84521484 C-148.25690146 16.50120174 -191.72196129 30.40078221 -219.88867188 62.59130859 Z " fill="#FA3812" transform="translate(955.294921875,269.40869140625)"/>
<path d="M0 0 C2.01133796 1.834604 3.99060977 3.7004507 5.95800781 5.58203125 C6.99494122 6.5733343 8.0367755 7.55953176 9.08300781 8.54101562 C46.0939636 43.34999748 63.92474502 93.52900782 65.67675781 143.59277344 C66.51781092 182.91309584 56.8291577 225.78191918 33.48925781 258.04589844 C32.81636719 258.98820312 32.14347656 259.93050781 31.45019531 260.90136719 C18.66155244 278.36712856 4.24931068 294.53045928 -13.51074219 307.04589844 C-14.09968262 307.46323242 -14.68862305 307.88056641 -15.29541016 308.31054688 C-48.9928869 331.98210591 -89.08832872 344.26138032 -130.19824219 344.29589844 C-131.28714249 344.29691055 -131.28714249 344.29691055 -132.39804077 344.29794312 C-179.67159947 344.22855764 -225.7455144 328.42589925 -261.51074219 297.04589844 C-262.38214844 296.2840625 -263.25355469 295.52222656 -264.15136719 294.73730469 C-272.76424506 287.09144154 -280.47604325 279.18513145 -287.51074219 270.04589844 C-287.96610352 269.45583008 -288.42146484 268.86576172 -288.890625 268.2578125 C-306.93306965 244.56410723 -318.62098953 217.17506277 -324.51074219 188.04589844 C-324.67445312 187.24410156 -324.83816406 186.44230469 -325.00683594 185.61621094 C-334.66827828 135.63221998 -324.48831434 80.33465483 -296.20874023 38.02294922 C-265.90359736 -6.40200544 -220.89592181 -34.82498561 -168.35449219 -44.91894531 C-109.20520023 -55.69174116 -45.1505497 -40.37302583 0 0 Z M-214.51074219 69.04589844 C-217.10671308 72.24325255 -219.35522559 75.53870397 -221.51074219 79.04589844 C-222.49494141 80.63337891 -222.49494141 80.63337891 -223.49902344 82.25292969 C-240.85218985 111.00025066 -245.76282593 145.57669343 -237.93847656 178.22265625 C-232.13429474 200.72998353 -222.13131038 219.70281162 -205.51074219 236.04589844 C-204.25970703 237.295 -204.25970703 237.295 -202.98339844 238.56933594 C-182.39022911 258.12784036 -154.4007084 266.66066738 -126.51464844 266.25292969 C-96.25701139 265.30719722 -70.50712882 250.20504938 -49.90917969 228.80761719 C-35.4617361 213.21746076 -27.99390216 193.51979481 -23.51074219 173.04589844 C-23.26453125 171.97597656 -23.01832031 170.90605469 -22.76464844 169.80371094 C-17.01609087 139.91121157 -23.79297233 105.4861548 -40.26074219 79.85839844 C-58.60707473 53.79102246 -82.99019258 36.82738785 -114.51074219 31.04589844 C-152.7373307 24.57274615 -189.13115844 40.97113765 -214.51074219 69.04589844 Z " fill="#FCBD05" transform="translate(1375.5107421875,263.9541015625)"/>
<path d="M0 0 C1.66050282 1.48637715 3.30747713 2.9880717 4.9375 4.5078125 C6.97440253 6.40336414 9.06651803 8.19758943 11.1953125 9.98828125 C35.43256222 31.27448859 52.65675159 63.46870046 64.3203125 93.05078125 C64.69494629 93.99977295 65.06958008 94.94876465 65.45556641 95.92651367 C67.31863273 100.82994567 68.65160389 105.32212654 69.1328125 110.55078125 C53.63793983 117.28144532 38.08228064 123.84500859 22.4453125 130.23828125 C21.21864365 130.73982224 21.21864365 130.73982224 19.9671936 131.25149536 C19.14053192 131.58946136 18.31387024 131.92742737 17.4621582 132.27563477 C15.77293528 132.96627451 14.08372639 133.65694857 12.39453125 134.34765625 C11.55060318 134.69271713 10.70667511 135.03777802 9.83717346 135.39329529 C0.46497 139.22834363 -8.88950047 143.10593075 -18.2421875 146.98828125 C-19.09184082 147.3408902 -19.94149414 147.69349915 -20.81689453 148.05679321 C-25.12211081 149.84352515 -29.4271086 151.63078256 -33.73193359 153.41845703 C-42.17187773 156.92324573 -50.61310398 160.42494325 -59.0546875 163.92578125 C-59.89373627 164.27375763 -60.73278503 164.62173401 -61.59725952 164.98025513 C-80.05135384 172.63291014 -98.516288 180.25927317 -116.98251343 187.88259888 C-124.12416684 190.83090182 -131.26532505 193.78040192 -138.40625 196.73046875 C-139.43907608 197.15713837 -140.47190216 197.58380798 -141.536026 198.02340698 C-147.54701638 200.50660288 -147.54701638 200.50660288 -153.55795288 202.9899292 C-154.48137482 203.37143127 -155.40479675 203.75293335 -156.35620117 204.14599609 C-157.71069115 204.70563553 -157.71069115 204.70563553 -159.09254456 205.27658081 C-160.8477463 206.00145053 -162.60314246 206.72584973 -164.35874939 207.44973755 C-168.5404099 209.17414761 -172.71912677 210.90502699 -176.89208984 212.65039062 C-178.07661995 213.14378937 -178.07661995 213.14378937 -179.28507996 213.64715576 C-180.7666729 214.2644523 -182.24714156 214.8844568 -183.72627258 215.50762939 C-188.64200282 217.55078125 -188.64200282 217.55078125 -190.8671875 217.55078125 C-180.60268265 240.3004771 -161.36742449 259.92415878 -137.9296875 268.86328125 C-108.55040034 279.56013778 -76.65265724 277.84963226 -48.37109375 264.95703125 C-29.09605633 255.14596778 -14.65882015 239.64901567 -1.8671875 222.55078125 C1.49521852 223.80146596 4.3673334 225.21600744 7.33032227 227.23364258 C8.12628311 227.77213333 8.92224396 228.31062408 9.74232483 228.86543274 C10.59434982 229.44866806 11.44637482 230.03190338 12.32421875 230.6328125 C13.22414047 231.24283615 14.12406219 231.8528598 15.05125427 232.48136902 C17.93565933 234.43755564 20.81571874 236.40002062 23.6953125 238.36328125 C27.44480682 240.91412698 31.19627174 243.46204949 34.94921875 246.0078125 C35.87062653 246.63317902 36.7920343 247.25854553 37.74136353 247.90286255 C47.11971102 254.25051707 56.61002939 260.42256078 66.1328125 266.55078125 C64.47477143 270.97847262 62.20009137 274.38345914 59.2578125 278.05078125 C58.7716748 278.66099121 58.28553711 279.27120117 57.78466797 279.89990234 C41.50513741 300.0840213 22.61656708 316.56908961 0.1328125 329.55078125 C-0.99125 330.20691406 -2.1153125 330.86304688 -3.2734375 331.5390625 C-24.65056806 343.66876611 -48.58492057 350.51681015 -72.8671875 353.55078125 C-73.61516602 353.64649414 -74.36314453 353.74220703 -75.13378906 353.84082031 C-126.7556639 359.76533824 -179.26200066 345.34728183 -220.2421875 313.48828125 C-238.44810386 298.3427076 -254.12466195 281.21352497 -265.8671875 260.55078125 C-266.2590625 259.86806152 -266.6509375 259.1853418 -267.0546875 258.48193359 C-280.84164393 234.20935053 -289.92162343 206.49615613 -291.8671875 178.55078125 C-291.93276855 177.66551758 -291.99834961 176.78025391 -292.06591797 175.86816406 C-294.15913443 145.69974459 -291.35090044 115.08560384 -280.8671875 86.55078125 C-280.44397217 85.39400879 -280.44397217 85.39400879 -280.01220703 84.21386719 C-273.8442388 67.60704538 -266.28361691 51.93811468 -255.8671875 37.55078125 C-254.73990234 35.97683594 -254.73990234 35.97683594 -253.58984375 34.37109375 C-224.63283958 -4.82086182 -181.14501811 -29.1210166 -133.2421875 -36.32421875 C-85.93307425 -42.53017525 -36.63645742 -31.29572044 0 0 Z M-182.8671875 78.55078125 C-197.40338665 96.66436365 -206.20621794 120.73845252 -205.9296875 143.98828125 C-205.92517578 144.71982422 -205.92066406 145.45136719 -205.91601562 146.20507812 C-205.90436898 147.98701544 -205.88643941 149.76890988 -205.8671875 151.55078125 C-198.19109517 149.16531416 -190.83591474 146.12011188 -183.43722534 143.00204468 C-179.44540978 141.32000503 -175.44891672 139.64912908 -171.453125 137.9765625 C-170.17612984 137.44153862 -170.17612984 137.44153862 -168.87333679 136.89570618 C-159.66482368 133.0405906 -150.43509059 129.23724809 -141.20516968 125.43374634 C-123.30832101 118.05736667 -105.42765281 110.64321657 -87.58227539 103.14306641 C-86.7162117 102.77907745 -85.85014801 102.4150885 -84.95783997 102.04006958 C-83.22016273 101.30974955 -81.48252213 100.57934235 -79.74491882 99.84884644 C-74.34841487 97.58315678 -68.94312135 95.33987674 -63.53094482 93.1118927 C-59.95069701 91.63692811 -56.37383507 90.15386262 -52.79736328 88.66976929 C-51.10627173 87.97055399 -49.41357789 87.27520027 -47.71923828 86.58389282 C-45.39716147 85.6360655 -43.08094963 84.67511672 -40.765625 83.7109375 C-39.73156021 83.29500336 -39.73156021 83.29500336 -38.67660522 82.8706665 C-37.03631792 82.179654 -35.44510845 81.374314 -33.8671875 80.55078125 C-32.51604096 77.62955896 -32.51604096 77.62955896 -33.9140625 75.23828125 C-45.97336131 56.208929 -62.65659156 46.32879531 -84.2421875 40.73828125 C-122.19485594 33.37622517 -158.03748819 50.06278768 -182.8671875 78.55078125 Z " fill="#FA3812" transform="translate(2330.8671875,253.44921875)"/>
<path d="M0 0 C28.71 0 57.42 0 87 0 C87 189.75 87 379.5 87 575 C58.29 575 29.58 575 0 575 C0 385.25 0 195.5 0 0 Z " fill="#38B137" transform="translate(1910,21)"/>
</svg>
