<?xml version="1.0" encoding="UTF-8"?>
<svg version="1.1" xmlns="http://www.w3.org/2000/svg" width="4454" height="2634">
<path d="M0 0 C1.0209375 0.72703125 2.041875 1.4540625 3.09375 2.203125 C22.26296826 16.22692152 40.77091849 32.93405445 55 52 C56.03604464 53.33495658 57.07254518 54.66955941 58.109375 56.00390625 C67.8324208 68.68978629 76.05313765 82.14758109 84 96 C84.42007324 96.72670898 84.84014648 97.45341797 85.27294922 98.20214844 C102 127.37222099 102 127.37222099 102 136 C105.3 136 108.6 136 112 136 C112.22429688 135.35160156 112.44859375 134.70320312 112.6796875 134.03515625 C114.4647184 129.93169764 116.77166185 126.23687479 119.125 122.4375 C119.6192749 121.63538086 120.1135498 120.83326172 120.62280273 120.00683594 C134.60601754 97.42153001 150.3700303 75.87734687 168 56 C168.83402344 55.05382812 169.66804688 54.10765625 170.52734375 53.1328125 C182.42785967 39.89371775 194.88404219 26.88189831 209 16 C210.13573086 15.0673446 211.26832958 14.13086715 212.3984375 13.19140625 C266.7275089 -31.71773434 337.15635882 -50.16870138 406.875 -44.25 C460.21775604 -39.12394135 510.24039332 -20.16897482 551 15 C551.75667969 15.64582031 552.51335937 16.29164063 553.29296875 16.95703125 C565.91453972 28.01411938 577.78102913 39.88372694 587.77783203 53.37646484 C588.96254013 54.95023808 590.19748318 56.48580176 591.43359375 58.01953125 C639.761611 118.25557195 659.74091279 199.69553748 668 275 C668.13868158 276.26074042 668.27736315 277.52148084 668.4202472 278.82042551 C671.58092092 309.02826077 671.44140015 339.28471487 671.40906171 369.61952338 C671.40134797 377.43880117 671.41147515 385.25803499 671.42174067 393.07730627 C671.44124543 408.38261705 671.44378745 423.68789369 671.43854547 438.99321395 C671.43396649 452.37065605 671.43461468 465.74808474 671.44038582 479.12552643 C671.44114271 480.92840271 671.44189869 482.73127899 671.44265376 484.53415526 C671.44379907 487.25154641 671.44494896 489.96893755 671.44611301 492.68632868 C671.4567898 517.88645133 671.46157098 543.08656957 671.45364285 568.28669357 C671.45319709 569.70654398 671.45319709 569.70654398 671.45274232 571.15507824 C671.45029397 578.83941554 671.4476821 586.52375278 671.44505819 594.20809001 C671.43493205 624.24942493 671.44336736 654.29070408 671.46655273 684.33203125 C671.49261728 718.15779479 671.50547789 751.9835248 671.49836498 785.80929875 C671.49764898 789.41330416 671.49697459 793.01730958 671.49632454 796.621315 C671.49615473 797.50858897 671.49598492 798.39586294 671.49580997 799.31002399 C671.49350819 812.69589982 671.50147678 826.0817444 671.51461601 839.46761322 C671.52951171 854.66915806 671.53038929 869.87062961 671.5125451 885.07217285 C671.50297453 893.57531839 671.50443301 902.07829297 671.52177979 910.58142714 C671.53225749 916.26080911 671.52818568 921.94006066 671.51229975 927.61942976 C671.50365712 930.85447053 671.50347461 934.08910923 671.51656907 937.32414493 C671.52968544 940.81202777 671.51820215 944.29900266 671.50057125 947.78684616 C671.51022176 948.78612098 671.51987227 949.78539579 671.52981523 950.81495166 C671.44804863 958.68105581 669.42637813 965.04590231 665.3125 971.75 C657.6803898 979.17583696 650.00150826 982.30894614 639.37335205 982.26742554 C638.08992672 982.27422221 638.08992672 982.27422221 636.78057361 982.28115618 C633.92039223 982.29379213 631.06040147 982.29218032 628.20019531 982.29052734 C626.14659379 982.29651314 624.09299451 982.3033188 622.03939819 982.31088257 C616.46486763 982.32854568 610.89039847 982.33323812 605.31584263 982.33451414 C601.83118871 982.33593625 598.34655038 982.34020701 594.86190033 982.34550858 C582.69959015 982.36401068 570.53732379 982.37217906 558.375 982.37060547 C547.04719568 982.36940439 535.719582 982.39049981 524.39182591 982.4220928 C514.65913602 982.4482675 504.92650833 982.45897224 495.19378352 982.45769465 C489.38413844 982.45718532 483.57466275 982.46285243 477.7650528 982.48405075 C472.29846883 982.50345282 466.83221547 982.50354393 461.36561966 982.48901749 C459.36378876 982.48693067 457.36193707 982.49162263 455.36014175 982.5037384 C443.7831851 982.56924655 434.71280656 982.38914275 424.75 975.875 C415.63701188 966.34778515 413.68568922 956.24391168 413.74666691 943.47542095 C413.74356964 942.44689385 413.74047236 941.41836676 413.73728123 940.35867217 C413.72932298 936.91375518 413.73556079 933.46901217 413.74171448 930.02409363 C413.73885948 927.52840178 413.73512129 925.0327108 413.73057598 922.53702146 C413.72267575 917.11124197 413.72092308 911.68551432 413.72458839 906.25973129 C413.72998624 898.19034741 413.72387697 890.12100086 413.71529961 882.05162117 C413.70112727 868.46945814 413.69578531 854.8873055 413.69503975 841.30513573 C413.69385991 822.73563644 413.67864529 804.16616672 413.65954458 785.59667818 C413.65064529 776.9377528 413.6423755 768.27882681 413.63422298 759.6199007 C413.63340523 758.75302105 413.63258748 757.8861414 413.63174495 756.99299267 C413.612407 736.35983316 413.59886816 715.72667067 413.58666992 695.09350586 C413.58613313 694.19084873 413.58559634 693.28819161 413.58504328 692.35818123 C413.57256093 671.32002602 413.56177988 650.28187045 413.55297852 629.24371338 C413.54990878 621.95699055 413.54681637 614.67026773 413.54370117 607.38354492 C413.54312845 606.03463019 413.54312845 606.03463019 413.54254416 604.65846466 C413.53376939 584.09869479 413.52258168 563.53893123 413.50257015 542.97916889 C413.50130616 541.68016482 413.50130616 541.68016482 413.50001662 540.35491825 C413.49152967 531.70469238 413.48253372 523.05446718 413.47282485 514.4042426 C413.46806403 510.14708729 413.46344842 505.88993184 413.45893669 501.63277626 C413.45804881 500.79502712 413.45716093 499.95727797 413.45624614 499.09414249 C413.44236539 485.66128399 413.43966918 472.22844573 413.44161635 458.79558114 C413.4434198 445.26743175 413.43467093 431.73932268 413.41530795 418.21118673 C413.40417849 410.19413092 413.40123475 402.17717329 413.4105043 394.1601146 C413.41653447 388.14279812 413.40670437 382.12560968 413.39118993 376.10830597 C413.38735167 373.69692453 413.38840082 371.28552841 413.39524681 368.87415364 C413.4938846 331.08974961 408.70047746 292.31749827 392 258 C391.69336426 257.36223633 391.38672852 256.72447266 391.07080078 256.06738281 C386.40387381 246.48191643 380.81565941 238.18306444 374 230 C373.28070312 229.11570312 372.56140625 228.23140625 371.8203125 227.3203125 C353.99056639 206.35566598 326.99395469 194.84397326 300 192 C294.41302701 191.71191199 288.84329744 191.65929785 283.25 191.6875 C282.49954407 191.68932281 281.74908813 191.69114563 280.97589111 191.69302368 C270.04332243 191.73775405 259.61137982 192.13330916 249 195 C248.35579102 195.16628906 247.71158203 195.33257813 247.04785156 195.50390625 C215.11250592 203.88751668 189.7291587 223.97705433 173.0234375 252.30859375 C146.77162621 299.52267226 140.62901089 353.79731999 140.7484436 407.0020752 C140.74629775 409.3892992 140.743267 411.77652254 140.73944318 414.16374445 C140.73232773 419.96399528 140.73419828 425.76419145 140.74007672 431.56444246 C140.74657559 438.52891497 140.74122575 445.49336666 140.73542418 452.45783803 C140.72496136 465.30727838 140.72305387 478.15670558 140.72560501 491.00614929 C140.72903892 509.36152145 140.71561096 527.71686107 140.69883054 546.07222442 C140.69215372 553.45535806 140.68601345 560.83849218 140.67987633 568.22162628 C140.67919233 569.0415425 140.67850834 569.86145871 140.67780361 570.70622088 C140.66166696 590.17051882 140.6508031 609.63481876 140.64160156 629.09912109 C140.64119553 629.94957936 140.64078949 630.80003763 140.64037116 631.67626736 C140.63093274 651.54095281 140.62407263 671.40563712 140.62164307 691.27032471 C140.62148322 692.55432691 140.62148322 692.55432691 140.62132015 693.86426855 C140.62078691 698.18158188 140.62027217 702.49889521 140.61975877 706.81620854 C140.61965656 707.66961683 140.61955435 708.52302512 140.61944905 709.40229427 C140.61924349 711.12482917 140.61904093 712.84736407 140.61884138 714.56989897 C140.61546058 743.02984171 140.59855659 771.4897515 140.56673984 799.94967708 C140.56226692 803.96746338 140.55797704 807.98524986 140.55381393 812.0030365 C140.55299348 812.79365086 140.55217302 813.58426523 140.5513277 814.3988376 C140.53859023 827.11066287 140.54056843 839.82244529 140.54844838 852.53427279 C140.55613073 865.29820076 140.54972976 878.06205736 140.52880932 890.82597113 C140.51790059 897.73777875 140.51346054 904.64944419 140.52728081 911.56125069 C140.53932073 917.88806813 140.53299745 924.2145918 140.51208882 930.54138368 C140.50778255 932.82944922 140.5102305 935.11753956 140.52012999 937.40558773 C140.6275335 964.17258337 140.6275335 964.17258337 131 974.27734375 C123.76792041 980.5065373 116.98242756 982.14933553 107.65182495 982.14717102 C106.80200047 982.15084771 105.95217598 982.1545244 105.07659924 982.1583125 C102.22407438 982.16934056 99.37158595 982.17319171 96.51904297 982.17700195 C94.47558985 982.1832673 92.43213787 982.18991417 90.38868713 982.19691467 C83.67319532 982.21795022 76.95770329 982.22831708 70.2421875 982.23828125 C67.92940382 982.24232909 65.61662026 982.24644602 63.30383682 982.25063133 C52.43716714 982.26968244 41.57050424 982.28391325 30.70382106 982.2922433 C18.16558906 982.30201367 5.6275337 982.32832842 -6.91063607 982.36874419 C-16.60506181 982.39891952 -26.29943697 982.41371356 -35.99390876 982.41702431 C-41.78235643 982.41937331 -47.57061537 982.42831436 -53.3590126 982.45348549 C-58.80749861 982.4767956 -64.25567204 982.48098747 -69.70419502 982.47072411 C-71.69957965 982.47022934 -73.69497982 982.47653214 -75.69031715 982.49028015 C-88.68056925 982.57474712 -99.26474529 982.37152467 -109.2421875 973 C-114.17500215 967.38755311 -117.12183843 961.15791732 -117.12830919 953.66666973 C-117.13147745 952.79999184 -117.13464571 951.93331394 -117.13790998 951.04037309 C-117.13551843 949.61615277 -117.13551843 949.61615277 -117.13307858 948.16316032 C-117.1353216 947.14824512 -117.13756463 946.13332992 -117.13987562 945.08765972 C-117.1462334 941.65900474 -117.14545045 938.23038759 -117.14476013 934.80172729 C-117.14789251 932.32954988 -117.15146699 929.857373 -117.15544754 927.38519681 C-117.16313478 921.9953689 -117.16773642 916.60555132 -117.16966438 911.21571922 C-117.17256135 903.19980811 -117.18118197 895.1839104 -117.1910775 887.16800523 C-117.20760746 873.67821745 -117.219787 860.18842914 -117.22979546 846.6986351 C-117.24421319 827.40561048 -117.26697581 808.11260059 -117.29146057 788.81958647 C-117.30125201 781.0752513 -117.31077284 773.33091579 -117.32029057 765.58658028 C-117.32134933 764.72606451 -117.3224081 763.86554875 -117.32349895 762.97895675 C-117.34866253 742.48499683 -117.37114909 721.99103419 -117.39282227 701.49707031 C-117.3937727 700.60021145 -117.39472314 699.70335259 -117.39570238 698.77931618 C-117.41782843 677.8795512 -117.4386996 656.97978543 -117.45739746 636.08001709 C-117.45820121 635.18267312 -117.45900496 634.28532915 -117.45983307 633.36079294 C-117.46388351 628.83653809 -117.46792513 624.31228323 -117.47196633 619.78802837 C-117.47276532 618.89395201 -117.47356431 617.99987565 -117.47438752 617.07870607 C-117.47599983 615.27411816 -117.47761065 613.46953025 -117.47921998 611.66494234 C-117.50589941 581.79513629 -117.53929732 551.92534351 -117.57999813 522.05555317 C-117.58574745 517.82930367 -117.59140618 513.60305406 -117.59700203 509.37680435 C-117.59810383 508.54510361 -117.59920564 507.71340287 -117.60034083 506.85649908 C-117.61779338 493.51317102 -117.62799704 480.16984691 -117.63525448 466.82650981 C-117.64267788 453.38852702 -117.65714128 439.95056663 -117.67868023 426.51259892 C-117.69122352 418.54627114 -117.69835222 410.57998298 -117.69743004 402.61364514 C-117.69735142 396.63743918 -117.70774355 390.66129659 -117.72192169 384.68510558 C-117.72603363 382.28774283 -117.72690291 379.89037151 -117.72395759 377.49300705 C-117.66392727 321.72907638 -125.16568457 261.96618068 -166.30078125 220.69140625 C-188.61545545 199.61846514 -217.79722363 191.54126802 -247.9375 191.625 C-248.70868164 191.62587616 -249.47986328 191.62675232 -250.27441406 191.62765503 C-280.66121906 191.74129098 -310.20099725 200.0559457 -333 221 C-333.71833008 221.65476318 -333.71833008 221.65476318 -334.45117188 222.32275391 C-371.40931363 256.38528053 -383.95614698 309.35210672 -388.75 357.5625 C-388.92341919 359.2959668 -388.92341919 359.2959668 -389.1003418 361.06445312 C-390.96649606 381.75226799 -391.14940714 402.56185426 -391.13130188 423.3190918 C-391.13301007 425.64429287 -391.13516248 427.96949365 -391.13771313 430.29469395 C-391.14225911 435.29479626 -391.14374117 440.29488629 -391.14274788 445.29499054 C-391.14127712 452.73017501 -391.14534127 460.16534578 -391.15082836 467.60052748 C-391.15942751 479.35432072 -391.16482347 491.10811251 -391.16802987 502.86190836 C-391.17319769 521.50605269 -391.18870035 540.15017819 -391.20760635 558.79431315 C-391.2116263 562.77321441 -391.21554763 566.75211576 -391.21947271 570.73101711 C-391.22025536 571.52389021 -391.22103802 572.31676332 -391.22184439 573.13366288 C-391.22342988 574.74009847 -391.22501471 576.34653406 -391.22659888 577.95296965 C-391.22819015 579.56512715 -391.2297844 581.17728465 -391.23138161 582.78944214 C-391.25016256 601.74960071 -391.26727584 620.7097605 -391.28295898 639.66992188 C-391.28399236 640.91259579 -391.28399236 640.91259579 -391.28504662 642.18037422 C-391.30735254 669.09772971 -391.31916133 696.01507963 -391.32662554 722.93244289 C-391.33438918 750.65546828 -391.3554337 778.37845583 -391.39216815 806.10145855 C-391.39734133 810.01487396 -391.40234869 813.92828956 -391.40724754 817.84170532 C-391.40869798 818.99682687 -391.40869798 818.99682687 -391.41017772 820.1752842 C-391.42530934 832.5591277 -391.42621569 844.94293326 -391.42159041 857.32678346 C-391.41720823 869.76036004 -391.42710861 882.19385874 -391.45167748 894.62741244 C-391.46457234 901.36087108 -391.47049575 908.09416221 -391.45926094 914.82762909 C-391.44911003 920.99037147 -391.45730567 927.15280633 -391.4801239 933.3155123 C-391.48512704 935.54504163 -391.48337353 937.77459847 -391.47419123 940.00411451 C-391.46268822 943.03525289 -391.47581235 946.06534271 -391.49498463 949.09642029 C-391.48579507 949.96115156 -391.47660551 950.82588284 -391.46713749 951.71681809 C-391.55818524 959.04734688 -393.55412634 965.5983858 -397.859375 971.5859375 C-405.62871277 978.93791415 -412.52174445 982.14964229 -423.2658844 982.14717102 C-424.11893801 982.15084771 -424.97199162 982.1545244 -425.85089535 982.1583125 C-428.72034577 982.16935922 -431.58976 982.17319489 -434.45922852 982.17700195 C-436.51238622 982.18326597 -438.5655428 982.18991271 -440.61869812 982.19691467 C-446.20578664 982.21433256 -451.7928666 982.22487907 -457.37997556 982.2331202 C-460.8711412 982.2382698 -464.36230418 982.24434562 -467.85346794 982.25063133 C-478.77780615 982.26968754 -489.70213759 982.28391651 -500.62648922 982.2922433 C-513.23378147 982.3020115 -525.84089796 982.32831844 -538.44812828 982.36874419 C-548.19348885 982.39891972 -557.93879909 982.41371364 -567.68420547 982.41702431 C-573.50396673 982.41937357 -579.32354031 982.42831774 -585.14325142 982.45348549 C-590.62209237 982.47679552 -596.10062247 982.4809875 -601.5795002 982.47072411 C-603.58617182 982.47022932 -605.5928589 982.47653288 -607.59948349 982.49028015 C-631.06144959 982.641971 -631.06144959 982.641971 -640.3984375 973.96875 C-646.91169767 965.96220579 -649.12400473 957.2911633 -649.12649983 947.18014926 C-649.12802638 946.51458729 -649.12955293 945.84902532 -649.13112573 945.16329481 C-649.13502566 942.93083013 -649.13180964 940.69843314 -649.12863445 938.46596813 C-649.12998101 936.84324719 -649.13176485 935.22052657 -649.13394669 933.59780654 C-649.13868607 929.12016711 -649.13717199 924.64254796 -649.13466892 920.16490752 C-649.13303901 915.3005118 -649.13717403 910.43612047 -649.14057809 905.57172614 C-649.1457386 897.04002449 -649.14714817 888.50832851 -649.14612198 879.97662544 C-649.14459972 867.28974691 -649.14875287 854.60287467 -649.1539966 841.91599736 C-649.16367867 817.94127873 -649.16648116 793.96656223 -649.16705366 769.99184188 C-649.1675128 751.48138046 -649.169569 732.97091989 -649.17275429 714.46045876 C-649.1736518 709.13671504 -649.17454171 703.81297131 -649.17542917 698.48922759 C-649.17553975 697.82782273 -649.17565034 697.16641787 -649.17576428 696.48497044 C-649.18208888 658.58025233 -649.18621334 620.67553451 -649.18575573 582.77081585 C-649.18573995 581.35211754 -649.18572422 579.93341923 -649.18570852 578.51472093 C-649.18563514 572.10932821 -649.18554697 565.70393549 -649.18545464 559.29854278 C-649.18541351 556.44217909 -649.18537337 553.5858154 -649.18533332 550.72945171 C-649.18531293 549.29978986 -649.18529191 547.87012802 -649.18527026 546.44046617 C-649.18458996 501.22894351 -649.19190819 456.01742867 -649.20581055 410.8059082 C-649.20931152 399.4142771 -649.21278095 388.02264599 -649.21607494 376.63101482 C-649.21637925 375.57889816 -649.21637925 375.57889816 -649.21668971 374.50552662 C-649.22290382 352.89050655 -649.2266701 331.27548712 -649.22793293 309.66046619 C-649.22797288 308.98192969 -649.22801283 308.30339319 -649.22805399 307.60429497 C-649.22890723 292.70942246 -649.22916848 277.81454999 -649.22888362 262.91967746 C-649.22877512 256.92678116 -649.22872787 250.93388485 -649.22869301 244.94098854 C-649.22868135 243.62986454 -649.2286697 242.31874055 -649.22865769 240.96788552 C-649.22862688 219.84232146 -649.2350205 198.716764 -649.24362527 177.59120191 C-649.25209018 156.37056541 -649.25310084 135.14993859 -649.24651595 113.92930134 C-649.24281258 101.3136354 -649.24467608 88.69799881 -649.25445829 76.08233595 C-649.26043734 67.66181251 -649.25918604 59.24131043 -649.25198779 50.82078798 C-649.24808869 46.01883995 -649.247381 41.21694893 -649.25544515 36.41500481 C-649.26271598 32.04733414 -649.26079693 27.67976802 -649.25152128 23.31210203 C-649.24979864 21.74113834 -649.25143263 20.17016649 -649.25682249 18.59921109 C-649.29648522 6.21001274 -648.97126653 -4.39215902 -640.24609375 -13.9140625 C-630.50270808 -23.16535799 -619.79717155 -23.58302163 -607.03491211 -23.50170898 C-605.3337713 -23.50549779 -603.63263359 -23.51100243 -601.9315033 -23.51808167 C-597.33646376 -23.53197935 -592.74180104 -23.52090715 -588.14678264 -23.50437045 C-583.32503045 -23.49046244 -578.50329886 -23.49698648 -573.68153381 -23.50050354 C-565.58735115 -23.50320087 -557.49331719 -23.4897703 -549.39916992 -23.46655273 C-540.05598947 -23.43993705 -530.71305739 -23.43820057 -521.36985201 -23.4499411 C-512.36126223 -23.46073862 -503.35276185 -23.4545169 -494.34417915 -23.44038582 C-490.51943396 -23.43464404 -486.69475458 -23.4346944 -482.87000847 -23.43945122 C-478.36286059 -23.44424093 -473.85598301 -23.43403708 -469.34888649 -23.41249657 C-467.69979641 -23.40695595 -466.05068021 -23.40643821 -464.40158844 -23.41144943 C-453.47599897 -23.44047431 -443.82716642 -23.09226161 -434.91796875 -15.92578125 C-425.67905248 -6.64923192 -422.96342278 5.31266998 -420.45629883 17.69848633 C-420.10451317 19.40257156 -420.10451317 19.40257156 -419.74562073 21.14108276 C-418.97729298 24.87029979 -418.21695323 28.60109303 -417.45703125 32.33203125 C-416.9236031 34.93283129 -416.38981645 37.53355554 -415.8556366 40.13420105 C-414.73981892 45.57102267 -413.62842902 51.00873478 -412.51977539 56.44702148 C-411.23882405 62.73023397 -409.95112224 69.01203394 -408.6597746 75.29311734 C-407.41468251 81.34987369 -406.17405009 87.40753492 -404.9355526 93.46564293 C-404.40912612 96.03873303 -403.88161443 98.61160135 -403.35300636 101.18424416 C-402.61663638 104.77154709 -401.88536616 108.35985174 -401.15551758 111.94848633 C-400.93581299 113.01400223 -400.7161084 114.07951813 -400.48974609 115.17732239 C-400.29214188 116.15427063 -400.09453766 117.13121887 -399.89094543 118.13777161 C-399.71785764 118.9851933 -399.54476984 119.83261499 -399.36643696 120.70571613 C-399 123 -399 123 -399 127 C-396.03 127 -393.06 127 -390 127 C-389.60683594 125.74703125 -389.21367187 124.4940625 -388.80859375 123.203125 C-379.32303882 94.8295211 -362.64884322 68.24022184 -344 45 C-343.21753906 44.01128906 -342.43507813 43.02257812 -341.62890625 42.00390625 C-329.17039126 26.7465985 -315.01940699 12.4981145 -299 1 C-297.96101563 0.23945313 -296.92203125 -0.52109375 -295.8515625 -1.3046875 C-215.8858459 -58.3666433 -101.86964949 -59.15929022 0 0 Z " fill="#0578FF" transform="translate(2799,402)"/>
<path d="M0 0 C3.37679289 2.70930562 6.72461044 5.45300367 10.06738281 8.20410156 C15.28663664 12.49932147 20.60949014 16.65977342 25.94042969 20.81494141 C27.96044525 22.39078428 29.97680907 23.97123435 31.99316406 25.55175781 C49.3490592 39.13170063 67.03451362 52.27342272 84.82128906 65.28222656 C85.54993164 65.81525391 86.27857422 66.34828125 87.02929688 66.89746094 C118.84085911 90.12404387 151.64303489 112.05857924 184.82128906 133.28222656 C185.90506836 133.97783691 185.90506836 133.97783691 187.01074219 134.6875 C217.67845099 154.34112791 249.11293131 172.87312298 280.90185547 190.64892578 C282.89759901 191.76546068 284.89200579 192.88438741 286.88525391 194.00537109 C311.84655748 208.04297697 337.07297526 221.65060224 362.78027344 234.27783203 C365.30884699 235.52215639 367.82957074 236.78171741 370.34912109 238.04418945 C371.58915608 238.66551811 372.82972407 239.28578406 374.07080078 239.9050293 C378.55431922 242.14242818 383.02892721 244.39698501 387.50097656 246.65722656 C404.45271004 255.21215527 421.52780934 263.43597277 438.82128906 271.28222656 C439.51440186 271.59720093 440.20751465 271.91217529 440.92163086 272.23669434 C508.06283437 302.73798393 576.50834861 330.03913344 646.13098145 354.3427124 C648.72861128 355.24986146 651.32531272 356.15962479 653.921875 357.06982422 C700.70306429 373.44329787 748.08677869 387.95944033 795.82128906 401.28222656 C797.38088348 401.71764771 797.38088348 401.71764771 798.97198486 402.16186523 C876.11063864 423.65284244 954.12688469 441.50358921 1032.82128906 456.28222656 C1033.93240051 456.49129639 1035.04351196 456.70036621 1036.18829346 456.91577148 C1115.46496806 471.80024215 1195.3612268 483.09105584 1478.63378906 505.96972656 C1479.36636303 506.00054195 1480.098937 506.03135735 1480.85371017 506.06310654 C1524.39902846 507.89284842 1567.92693175 508.49147369 1611.50878906 508.46972656 C1613.31856672 508.46932625 1613.31856672 508.46932625 1615.16490555 508.46891785 C1657.41411314 508.45724057 1699.60688681 508.03795014 1741.82128906 506.28222656 C1742.60083199 506.24990685 1743.38037491 506.21758713 1744.18354034 506.18428802 C1821.4840173 502.96480811 1898.65785712 497.59515247 2809.82128906 272.28222656 C2810.76762207 271.8379834 2811.71395508 271.39374023 2812.68896484 270.93603516 C2827.29712057 264.05759697 2841.75023181 256.86801654 2856.19628906 249.65722656 C2857.07776611 249.21782745 2857.95924316 248.77842834 2858.86743164 248.32571411 C2869.06634364 243.23801951 2879.21884837 238.07703072 2889.28036499 232.72189331 C2903.67560379 225.07480648 2918.32057985 218.36988265 2933.82128906 213.28222656 C2934.84319336 212.94336426 2934.84319336 212.94336426 2935.88574219 212.59765625 C2949.41180063 208.25998923 2965.68674297 206.4671981 2979.15332031 211.89941406 C2992.955979 219.05335429 3001.22768648 229.83056942 3006.93066406 244.04785156 C3011.66721328 261.24900398 3005.09500937 278.46910914 2996.87695312 293.42626953 C2986.94191005 310.89301271 2973.21017486 327.30383037 2958.81738281 341.28613281 C2956.95317639 343.15033923 2955.2617257 345.07364217 2953.57128906 347.09472656 C2949.40641078 351.96023857 2944.63279663 356.15221424 2939.90332031 360.45410156 C2937.53969173 362.60789854 2935.24725271 364.80994987 2933.00878906 367.09472656 C2929.45389619 370.70138972 2925.66613123 373.98930529 2921.82128906 377.28222656 C2920.74296211 378.21298222 2919.66485441 379.14399193 2918.58691406 380.07519531 C2911.41952757 386.25555185 2904.1701764 392.31807022 2896.82128906 398.28222656 C2895.05037989 399.7404678 2893.27954788 401.19880275 2891.50878906 402.65722656 C2885.66531388 407.43600076 2879.73776032 412.10205906 2873.78710938 416.74609375 C2871.72011769 418.36128398 2869.65738123 419.98181494 2867.59472656 421.60253906 C2856.8251547 430.04519713 2845.88505762 438.22976132 2834.82128906 446.28222656 C2833.70004639 447.09989502 2833.70004639 447.09989502 2832.55615234 447.93408203 C2823.90911973 454.23436033 2815.20492334 460.45052351 2806.44628906 466.59472656 C2805.27078491 467.42037109 2805.27078491 467.42037109 2804.0715332 468.26269531 C2770.34459876 491.835246 2735.2963313 513.46530627 2699.82128906 534.28222656 C2699.22622559 534.63174377 2698.63116211 534.98126099 2698.01806641 535.34136963 C2682.71122399 544.32817877 2667.23114836 552.92855052 2651.56298828 561.26782227 C2648.68300986 562.81035141 2645.81932554 564.38099551 2642.95849609 565.95874023 C2629.5217962 573.36076074 2615.93131751 580.38870956 2602.19628906 587.21972656 C2600.6217395 588.00467499 2600.6217395 588.00467499 2599.01538086 588.80548096 C2583.3638344 596.60425239 2567.6659085 604.2329629 2551.72344971 611.42132568 C2549.63760929 612.36535839 2547.55511694 613.31651065 2545.47314453 614.26904297 C2455.85075763 655.27102601 2363.1049484 689.67016407 1669.82128906 815.28222656 C1668.81201733 815.32814941 1668.81201733 815.32814941 1667.78235626 815.375 C1577.77166039 819.45032043 1487.41470376 818.26373433 573.82128906 613.28222656 C572.10232422 612.495979 572.10232422 612.495979 570.34863281 611.69384766 C521.86693364 589.44622407 474.19033776 565.47299022 427.86279297 539.015625 C424.6281121 537.17213213 421.38714134 535.34002602 418.14550781 533.50878906 C381.65189731 512.84376338 346.16288149 490.52127168 311.25878906 467.28222656 C310.56576691 466.82113495 309.87274475 466.36004333 309.15872192 465.88497925 C296.16851604 457.23746797 283.25593438 448.47271704 270.50878906 439.46972656 C269.81769043 438.98165527 269.1265918 438.49358398 268.41455078 437.99072266 C260.60916245 432.45485006 252.92053095 426.76209881 245.23291016 421.06445312 C242.83675245 419.29365425 240.43380662 417.53251485 238.02832031 415.77441406 C227.83844568 408.31975468 217.80197185 400.69516077 207.87451172 392.89453125 C205.96792243 391.39737124 204.05753609 389.90524272 202.14550781 388.41503906 C193.88720077 381.96865685 185.74313504 375.38651623 177.62988281 368.75878906 C176.02893426 367.45175116 174.4253093 366.14799301 172.82128906 364.84472656 C166.30828324 359.54344275 159.89045701 354.13615213 153.49169922 348.69824219 C151.81753065 347.27904054 150.13857431 345.86571885 148.45800781 344.45410156 C142.63754229 339.56000621 136.91777106 334.59060854 131.29394531 329.46972656 C128.63449753 327.11697655 125.89900237 324.88444599 123.13378906 322.65722656 C119.34638846 319.59326203 115.85147434 316.43122939 112.46582031 312.93457031 C110.81287303 311.27377055 109.09877269 309.74600265 107.32128906 308.21972656 C101.46430772 303.1639893 95.86094452 297.82955113 90.22705078 292.52832031 C88.48341866 290.90041129 86.7283089 289.28476767 84.96630859 287.67675781 C72.46566732 276.22159617 60.55122434 264.1646576 48.57568359 252.16699219 C45.43136555 249.0169339 42.28251689 245.87144848 39.13235474 242.72723579 C36.67685289 240.27536356 34.22375722 237.82109505 31.7713623 235.36611557 C30.61121705 234.20530995 29.45034723 233.04522795 28.28869629 231.88592911 C22.77735012 226.3833144 17.29664283 220.89508625 12.26586914 214.94088745 C10.69334639 213.13532332 9.03045645 211.45830747 7.32128906 209.78222656 C4.35413106 206.86091868 1.62069935 203.80230983 -1.09667969 200.64941406 C-3.73917494 197.64500107 -6.45711267 194.71488584 -9.17871094 191.78222656 C-16.09262437 184.31849894 -22.73620236 176.64530655 -29.34790039 168.9140625 C-32.61461339 165.09657532 -35.90099745 161.29706632 -39.20068359 157.50805664 C-44.98504085 150.86308334 -50.6370974 144.13199051 -56.17871094 137.28222656 C-57.63667526 135.5110894 -59.0950163 133.74026229 -60.55371094 131.96972656 C-79.73996427 108.47567887 -97.96001656 84.1570471 -112.17871094 57.28222656 C-112.70223145 56.29295166 -112.70223145 56.29295166 -113.23632812 55.28369141 C-125.4691137 31.95120317 -135.32387399 6.67745421 -127.17871094 -19.71777344 C-121.57890878 -32.17309097 -112.57290251 -38.6804097 -100.17871094 -43.71777344 C-64.12464804 -51.56934658 -26.35797331 -20.78156658 0 0 Z " fill="#0578FF" transform="translate(680.1787109375,1816.7177734375)"/>
<path d="M0 0 C0.84135498 0.61391602 0.84135498 0.61391602 1.69970703 1.24023438 C5.54206052 4.06820654 9.29268881 6.99756867 13 10 C13.80727539 10.6506543 13.80727539 10.6506543 14.63085938 11.31445312 C23.71732437 18.71784489 32.07275948 26.86647975 40.375 35.125 C40.88519684 35.62992981 41.39539368 36.13485962 41.92105103 36.65509033 C48.7430647 43.42257405 55.01771479 50.46994601 61 58 C61.95252223 59.13920201 62.90886847 60.27523173 63.87109375 61.40625 C78.09079658 78.40984858 90.22291868 97.66440059 101 117 C101.48210938 117.84965332 101.96421875 118.69930664 102.4609375 119.57470703 C116.85436071 144.99145155 128.15766227 171.53354641 138 199 C138.3913916 200.08893555 138.7827832 201.17787109 139.18603516 202.29980469 C167.52853586 282.02591873 178.48493576 367.9270792 118 793 C117.58927246 793.9065332 117.17854492 794.81306641 116.75537109 795.74707031 C104.07862854 823.63284068 88.40261998 850.32637821 69.32910156 874.32128906 C67.66746751 876.42000246 66.05480616 878.55453101 64.4375 880.6875 C52.30098503 896.17713524 38.96489605 911.20558506 24 924 C22.96888149 924.91534972 21.93901243 925.83210815 20.91015625 926.75 C-20.40333967 963.31280608 -71.63636189 985.85563474 -126 994 C-127.16692383 994.17789062 -127.16692383 994.17789062 -128.35742188 994.359375 C-156.16381978 998.35550404 -186.33483202 997.47848137 -214 993 C-214.98178223 992.8443457 -215.96356445 992.68869141 -216.97509766 992.52832031 C-256.01816504 986.0545236 -293.03216682 969.59343248 -324 945 C-324.87269531 944.319375 -325.74539063 943.63875 -326.64453125 942.9375 C-344.17686608 928.97323917 -360.06864123 912.85240687 -373.54003906 894.93994141 C-374.56253198 893.58129112 -375.59104652 892.22716136 -376.62402344 890.87646484 C-390.46689647 872.76543843 -402.79517009 853.40965982 -413 833 C-415.12576782 832.53348793 -415.12576782 832.53348793 -417.5625 832.375 C-418.38878906 832.30023437 -419.21507812 832.22546875 -420.06640625 832.1484375 C-420.70449219 832.09945312 -421.34257812 832.05046875 -422 832 C-421.99848112 832.907806 -421.99696224 833.815612 -421.99539733 834.75092727 C-421.90588719 888.55354758 -421.83725485 942.35616 -421.79573868 996.15883987 C-421.79073585 1002.61883283 -421.78555856 1009.07882563 -421.78027344 1015.53881836 C-421.7792242 1016.82488791 -421.77817495 1018.11095746 -421.77709392 1019.43599882 C-421.75968817 1040.26050603 -421.72814951 1061.08496908 -421.69138882 1081.90945009 C-421.65398418 1103.27690493 -421.63176515 1124.64433664 -421.62364602 1146.01182288 C-421.61815728 1159.1969543 -421.60082074 1172.38196088 -421.56833413 1185.56705388 C-421.54719218 1194.60827141 -421.54079926 1203.6494244 -421.54599449 1212.69066487 C-421.54855673 1217.90717463 -421.54462573 1223.12346623 -421.5231781 1228.33993721 C-421.50367244 1233.11903736 -421.50275612 1237.8977732 -421.51640442 1242.67689034 C-421.51809056 1244.40251939 -421.51305051 1246.12817145 -421.50046727 1247.85375545 C-421.41179837 1260.76790187 -422.54495773 1271.40924088 -431.83984375 1281.12109375 C-438.24521971 1286.69249671 -445.03359614 1288.14906401 -453.31057739 1288.14717102 C-454.16842012 1288.15084771 -455.02626285 1288.1545244 -455.91010082 1288.1583125 C-458.79570472 1288.16935942 -461.68127263 1288.17319491 -464.56689453 1288.17700195 C-466.63152684 1288.1832659 -468.69615802 1288.18991264 -470.76078796 1288.19691467 C-476.37880011 1288.21433205 -481.99680375 1288.22487873 -487.61483622 1288.2331202 C-491.12475514 1288.23826943 -494.63467141 1288.24434524 -498.14458847 1288.25063133 C-509.12605577 1288.26968657 -520.10751634 1288.28391629 -531.08899701 1288.2922433 C-543.76534942 1288.30201405 -556.44152714 1288.32832809 -569.117818 1288.36874419 C-578.91496718 1288.39890856 -588.7120663 1288.41371254 -598.50926101 1288.41702431 C-604.36084798 1288.41937466 -610.2122484 1288.42833312 -616.06378555 1288.45348549 C-621.5713501 1288.47677627 -627.0786054 1288.48099523 -632.58620644 1288.47072411 C-634.60458594 1288.47022887 -636.62298072 1288.47654579 -638.64131355 1288.49028015 C-641.40375108 1288.50802185 -644.16508152 1288.50088169 -646.92752075 1288.48774719 C-648.11661299 1288.50420106 -648.11661299 1288.50420106 -649.32972729 1288.52098733 C-657.91815353 1288.42286495 -664.96265513 1284.83715704 -671.20703125 1279.06640625 C-677.58816365 1271.7121164 -679.15205369 1263.80244808 -679.12880117 1254.37899822 C-679.13057618 1253.49402414 -679.13235119 1252.60905006 -679.13417998 1251.69725859 C-679.1389451 1248.70485454 -679.13654091 1245.71249818 -679.13422108 1242.72009182 C-679.13617296 1240.55457016 -679.1385614 1238.38904886 -679.14134905 1236.22352812 C-679.14777269 1230.22944734 -679.14790879 1224.23537992 -679.14707164 1218.24129635 C-679.14722326 1212.40656682 -679.15204803 1206.57184238 -679.15672914 1200.73711501 C-679.16624804 1188.65201738 -679.17094947 1176.56692207 -679.17303848 1164.48182106 C-679.17516568 1152.22966718 -679.1794224 1139.97751687 -679.1862812 1127.72536469 C-679.18671182 1126.95234028 -679.18714243 1126.17931587 -679.1875861 1125.38286647 C-679.18934441 1122.23459499 -679.19111405 1119.08632351 -679.19289912 1115.93805205 C-679.21450779 1077.75308263 -679.22537912 1039.56811251 -679.23437535 1001.38313837 C-679.23730859 989.00220434 -679.24067838 976.62127049 -679.24434257 964.24033666 C-679.24460086 963.3671045 -679.24485915 962.49387234 -679.24512527 961.5941786 C-679.24617147 958.06150588 -679.24721989 954.52883317 -679.24827109 950.99616046 C-679.26623622 890.56914373 -679.28161602 830.14212672 -679.28903012 769.71510769 C-679.28961409 764.96783962 -679.29021136 760.22057154 -679.29080774 755.47330347 C-679.29092586 754.53158688 -679.29104398 753.5898703 -679.29116567 752.61961684 C-679.29236308 743.07854774 -679.29357183 733.53747865 -679.29479821 723.99640955 C-679.29504344 722.08338269 -679.2952873 720.17035584 -679.29552978 718.25732898 C-679.30332041 656.81080905 -679.32570555 595.36430821 -679.3582062 533.91779662 C-679.38154819 489.77201157 -679.40310184 445.6262303 -679.41021252 401.48043919 C-679.41035954 400.57277675 -679.41050656 399.6651143 -679.41065803 398.72994694 C-679.41384269 378.80551013 -679.4158937 358.88107336 -679.41688558 338.95663633 C-679.41730033 330.94004497 -679.41785523 322.92345361 -679.41844749 314.90686226 C-679.41850816 314.02948588 -679.41856883 313.1521095 -679.41863134 312.24814596 C-679.42064822 283.9734412 -679.43489317 255.69875896 -679.4553925 227.42406206 C-679.47596458 198.9480507 -679.48387216 170.47206539 -679.47431473 141.99604734 C-679.47299625 138.06217918 -679.47181821 134.12831098 -679.47072411 130.19444275 C-679.47039433 129.03770864 -679.47039433 129.03770864 -679.4700579 127.85760616 C-679.46694203 115.6406906 -679.47727607 103.42382482 -679.49319966 91.2069208 C-679.50857438 79.19753962 -679.50971257 67.18822737 -679.49565142 55.17884381 C-679.48872156 48.75305792 -679.48819832 42.32744363 -679.50521151 35.90167271 C-679.52055752 30.05816605 -679.51755566 24.21496972 -679.49980123 18.3714725 C-679.49664642 16.26852315 -679.50022347 14.16555039 -679.51129298 12.0626278 C-679.63568898 -13.21202909 -679.63568898 -13.21202909 -670.06640625 -23.27734375 C-663.13342353 -29.05701366 -655.82636783 -31.11731425 -646.98728943 -31.14717102 C-646.28109484 -31.15084771 -645.57490026 -31.1545244 -644.84730583 -31.1583125 C-642.48079741 -31.16932588 -640.11433293 -31.17318922 -637.74780273 -31.17700195 C-636.0507951 -31.18326851 -634.35378883 -31.18991548 -632.65678406 -31.19691467 C-627.08239698 -31.21793928 -621.50800968 -31.22831738 -615.93359375 -31.23828125 C-614.01211088 -31.24232977 -612.09062816 -31.24644673 -610.16914558 -31.25063133 C-601.13868011 -31.26968158 -592.10822279 -31.28391147 -583.07774109 -31.2922433 C-572.66761181 -31.30200747 -562.25769563 -31.32830625 -551.84764141 -31.36874419 C-543.79310125 -31.3989537 -535.73862199 -31.41371686 -527.6840263 -31.41702431 C-522.87754136 -31.41936979 -518.07128411 -31.42826435 -513.26486015 -31.45348549 C-508.7380837 -31.47685513 -504.2116834 -31.48096388 -499.68486214 -31.47072411 C-498.03014496 -31.47023075 -496.3754087 -31.47649175 -494.7207489 -31.49028015 C-482.84728932 -31.58362653 -471.77677337 -30.81812048 -462.76341248 -22.14950562 C-456.16620965 -14.10786776 -453.72151881 -4.25521117 -451.74609375 5.7265625 C-451.46200759 7.09711149 -451.17642202 8.46735035 -450.88951111 9.83731079 C-450.25676048 12.8754654 -449.63510722 15.9156284 -449.0211792 18.9576416 C-447.92163277 24.40254861 -446.79321485 29.84134046 -445.66455078 35.28027344 C-443.32396452 46.57950698 -441.01534986 57.88514957 -438.71166992 69.19195557 C-437.83293536 73.50061353 -436.95104131 77.80862256 -436.06919193 82.11664391 C-435.21764138 86.2785844 -434.36796669 90.44090608 -433.51888847 94.60335159 C-433.11475187 96.58348683 -432.71004903 98.56350659 -432.3047657 100.54340744 C-431.745625 103.27643836 -431.18898897 106.00996727 -430.63305664 108.74365234 C-430.46638992 109.55580704 -430.29972321 110.36796173 -430.12800598 111.20472717 C-429 116.77136463 -429 116.77136463 -429 119 C-426.03 119 -423.06 119 -420 119 C-419.87343018 118.26531494 -419.74686035 117.53062988 -419.61645508 116.77368164 C-418.63613955 112.36284414 -416.63156504 108.49814731 -414.6875 104.4375 C-414.24599609 103.51509521 -413.80449219 102.59269043 -413.34960938 101.64233398 C-405.98937513 86.56386247 -397.1298356 72.36602871 -387 59 C-386.56864746 58.42588379 -386.13729492 57.85176758 -385.69287109 57.26025391 C-378.96587602 48.34741523 -371.75219225 40.03215664 -364 32 C-363.35224609 31.32501465 -362.70449219 30.6500293 -362.03710938 29.95458984 C-353.38506778 20.98022524 -344.62150634 12.58684395 -334.58496094 5.17919922 C-333.08268882 4.06151987 -331.60681668 2.9086098 -330.1328125 1.75390625 C-290.89649031 -28.73304216 -243.09235845 -46.29158623 -194 -52 C-192.86433594 -52.13277344 -191.72867187 -52.26554687 -190.55859375 -52.40234375 C-123.36492459 -58.54143993 -54.42916063 -39.79638273 0 0 Z M-357.125 206.1875 C-368.83357202 219.04451106 -378.09485683 233.56758218 -386 249 C-386.37576172 249.72171387 -386.75152344 250.44342773 -387.13867188 251.18701172 C-414.45498662 304.12716591 -422.02066423 365.33405722 -426 424 C-426.11021484 425.59328125 -426.11021484 425.59328125 -426.22265625 427.21875 C-431.62095244 509.91605337 -426.74744416 603.74425578 -388 690 C-387.61231445 690.79986328 -387.22462891 691.59972656 -386.82519531 692.42382812 C-368.09675631 730.67831369 -339.14777769 760.36523515 -298.87109375 775.1484375 C-266.16042531 786.03834714 -228.37918533 783.63742983 -197.27734375 768.82421875 C-182.67295157 761.49812283 -170.38583764 751.68546495 -159 740 C-158.46632813 739.52304688 -157.93265625 739.04609375 -157.3828125 738.5546875 C-144.7343906 726.85096101 -135.77286441 711.20507231 -128 696 C-127.6189209 695.26233398 -127.2378418 694.52466797 -126.84521484 693.76464844 C-85.15985822 612.24109202 -82.64535206 508.12415678 -110.26171875 289.6640625 C-114.63097425 276.39055577 -119.85418639 263.54703067 -126 251 C-126.36061523 250.25959473 -126.72123047 249.51918945 -127.09277344 248.75634766 C-144.52551255 213.38182718 -172.47097224 182.11767694 -210.43505859 169.01757812 C-263.44767513 151.70438337 -319.0057264 165.7939575 -357.125 206.1875 Z " fill="#0578FF" transform="translate(679,410)"/>
<path d="M0 0 C1.12802536 0.00090637 1.12802536 0.00090637 2.27883911 0.00183105 C95.61484662 0.20309468 185.33356275 32.99649523 255.125 95.1875 C255.65512695 95.65978027 256.18525391 96.13206055 256.73144531 96.61865234 C263.51200447 102.69698396 270.04583194 109.01468459 276.5 115.4375 C277.48105713 116.41154785 277.48105713 116.41154785 278.48193359 117.40527344 C282.89797739 121.83594362 287.05059054 126.44252361 291.125 131.1875 C291.970625 132.15171875 292.81625 133.1159375 293.6875 134.109375 C314.25384196 157.97160509 332.17606815 184.47260554 347.125 212.1875 C347.61661621 213.09387207 348.10823242 214.00024414 348.61474609 214.93408203 C360.86619929 237.63287645 371.3840558 260.91784297 380.125 285.1875 C380.47304688 286.15049011 380.47304688 286.15049011 380.828125 287.13293457 C406.55194305 358.49480345 418.16230813 434.52508717 418.328125 510.26171875 C418.33095238 511.15671396 418.33377975 512.05170918 418.33669281 512.97382545 C418.35147091 517.68624773 418.36084116 522.39864094 418.36523438 527.11108398 C418.37077085 531.94001708 418.39496738 536.76867561 418.42320633 541.59752178 C418.4418792 545.35607192 418.4470402 549.11455537 418.44857025 552.87314796 C418.45157323 554.65398516 418.45952087 556.43482186 418.47275543 558.21561241 C418.6303898 580.99944154 418.6303898 580.99944154 410.98828125 590.3671875 C402.61681655 598.54559955 392.68406605 600.49621314 381.42612457 600.44921303 C380.4747813 600.45320909 379.52343803 600.45720515 378.54326618 600.46132231 C375.35516656 600.47229193 372.16724063 600.4690959 368.97912598 600.4659729 C366.67058094 600.47097601 364.36203765 600.47685185 362.05349684 600.48352563 C355.7094845 600.49933772 349.36551643 600.50275699 343.02148676 600.50417423 C336.88292651 600.50651212 330.74438592 600.52014059 324.60583951 600.5325741 C312.05050979 600.55768212 299.49518428 600.57355517 286.93983459 600.58415604 C274.50935458 600.59468168 262.07889058 600.60931742 249.64842224 600.62943649 C248.87539066 600.63068536 248.10235907 600.63193423 247.30590228 600.63322094 C243.38002879 600.63958474 239.45415543 600.64602191 235.52828211 600.65248732 C207.72491777 600.69814398 179.92154824 600.73459422 152.11816406 600.765625 C125.10839069 600.79579113 98.09862789 600.83013068 71.08886719 600.87011719 C70.2562362 600.87134819 69.42360521 600.87257919 68.56574298 600.8738475 C60.20408266 600.88621441 51.84242248 600.89866613 43.48076238 600.91117998 C26.44725864 600.93666998 9.41375409 600.96159391 -7.61975098 600.98617554 C-8.40291548 600.98730645 -9.18607998 600.98843736 -9.99297673 600.98960253 C-62.28697225 601.06505148 -114.58098501 601.12726398 -166.875 601.1875 C-166.36409008 606.38870065 -165.84669547 611.58920646 -165.32394409 616.78923035 C-165.14791569 618.54864646 -164.9734911 620.30822396 -164.8008728 622.06797791 C-159.17089758 679.39220108 -147.72567939 743.4198844 -111.875 790.1875 C-111.20984375 791.06148437 -110.5446875 791.93546875 -109.859375 792.8359375 C-107.91069434 795.3293281 -105.91320875 797.76688072 -103.875 800.1875 C-103.17761719 801.02023437 -102.48023437 801.85296875 -101.76171875 802.7109375 C-81.29368651 826.34188058 -50.17503261 842.00376859 -19.05078125 844.9765625 C0.51750896 846.27630133 20.93300586 846.55854008 40.125 842.1875 C40.92099609 842.01057617 41.71699219 841.83365234 42.53710938 841.65136719 C75.80219149 834.06252458 104.15837299 816.96648435 124.125 789.1875 C124.88425781 788.13304687 125.64351562 787.07859375 126.42578125 785.9921875 C139.48178199 766.74444218 147.37681353 745.05019023 153.43359375 722.75463867 C156.60408556 711.17022833 159.27272934 701.87495885 169.9765625 695.24609375 C180.80455362 689.91084722 194.05552539 694.14358506 205.15209961 696.69848633 C206.7892604 697.06539943 208.42670511 697.43104772 210.06441402 697.79550648 C213.437111 698.54773652 216.80823074 699.30650818 220.1782341 700.07071304 C224.79730755 701.11650493 229.42132818 702.13825365 234.04812622 703.14926147 C234.76528771 703.30603219 235.4824492 703.46280291 236.22134286 703.62432426 C237.66465594 703.93980251 239.10797567 704.25525037 240.55130208 704.57066762 C255.51846785 707.84733438 270.47475401 711.17426428 285.43252659 714.49348736 C293.96020175 716.38564001 302.48880671 718.27338144 311.01977539 720.15063477 C318.57634521 721.81347175 326.13112834 723.48415891 333.6838631 725.16433269 C337.64741718 726.04580496 341.61169738 726.92359521 345.57815742 727.79190636 C349.28669527 728.60390261 352.99271774 729.42653913 356.69714928 730.257061 C358.68001983 730.69883752 360.66531591 731.12968439 362.6506958 731.56004333 C375.52889734 734.46943871 386.74435172 737.68260433 394.0625 749.25 C402.25324693 772.987515 380.66520599 808.31032695 370.54589844 829.37084961 C358.97278411 852.90986587 345.69366568 875.79797919 329.47753906 896.45410156 C328.17029938 898.12944484 326.88974584 899.8216552 325.6171875 901.5234375 C321.09298135 907.55118635 316.36119985 913.35806725 311.4375 919.0625 C310.91486572 919.66908447 310.39223145 920.27566895 309.85375977 920.90063477 C306.59672312 924.6318132 303.19143595 928.15918471 299.66723633 931.63818359 C297.94498207 933.36834435 296.36509179 935.17930241 294.8125 937.0625 C291.41158537 941.00119846 287.67554402 944.41989311 283.76953125 947.8515625 C282.03557428 949.3831818 280.32345792 950.93996807 278.63671875 952.5234375 C270.60885709 960.05184191 261.95264892 966.6320875 253.125 973.1875 C252.53348145 973.6309375 251.94196289 974.074375 251.33251953 974.53125 C233.74739739 987.67516611 214.73700825 998.39433816 195.125 1008.1875 C194.38362793 1008.56213379 193.64225586 1008.93676758 192.87841797 1009.32275391 C152.73816698 1029.50177605 107.63445949 1040.99352742 63.125 1046.1875 C61.85462891 1046.33703125 60.58425781 1046.4865625 59.27539062 1046.640625 C-19.55000878 1055.63000407 -102.46380256 1046.87309717 -174.875 1013.1875 C-176.33462158 1012.52113525 -176.33462158 1012.52113525 -177.82373047 1011.84130859 C-214.04986119 995.26112786 -246.93983553 973.28815269 -276.36328125 946.453125 C-277.77895886 945.17615297 -279.20138513 943.90629488 -280.64575195 942.66186523 C-285.7916625 938.22660753 -290.64765349 933.56585473 -295.4375 928.75 C-296.15357422 928.03779297 -296.86964844 927.32558594 -297.60742188 926.59179688 C-302.23667501 921.95411925 -306.60951384 917.15970919 -310.875 912.1875 C-311.83617106 911.09281088 -312.79835915 909.99901363 -313.76171875 908.90625 C-321.25903126 900.32373058 -328.17629682 891.40341094 -334.875 882.1875 C-335.60952393 881.18444824 -335.60952393 881.18444824 -336.35888672 880.16113281 C-348.3893902 863.68414255 -359.02076943 846.33215364 -368.69091797 828.375 C-369.85190094 826.23017372 -371.03560272 824.09923245 -372.22265625 821.96875 C-409.42915346 754.31572343 -427.48083196 675.8377346 -434.68359375 597.27990723 C-434.86087225 595.34194122 -435.04723137 593.40481168 -435.234375 591.46777344 C-438.93319265 551.93665981 -439.02391692 509.78829335 -435.08398438 470.2869873 C-434.85084203 467.94480557 -434.6268467 465.60181414 -434.40234375 463.25878906 C-426.25188321 379.41450726 -405.10236178 295.82836989 -352.875 204.1875 C-352.09358643 202.89755127 -352.09358643 202.89755127 -351.29638672 201.58154297 C-335.65216708 175.92019524 -317.12836436 152.35349236 -296.875 130.1875 C-295.96726883 129.18636026 -295.05972519 128.18505047 -294.15234375 127.18359375 C-287.11635854 119.4373322 -279.99963338 111.90805913 -272.05078125 105.0859375 C-269.56847802 102.92004995 -267.16444855 100.67873043 -264.75 98.4375 C-193.39884785 33.4745364 -95.75066053 -0.14479846 0 0 Z M-99.875 251.1875 C-141.82791286 298.64938122 -158.72465445 368.68404447 -164.875 430.1875 C-58.945 430.1875 46.985 430.1875 156.125 430.1875 C154.87824142 417.09653489 153.58493171 404.24918855 151.4375 391.3125 C151.30905701 390.53023041 151.18061401 389.74796082 151.04827881 388.94198608 C141.41339508 330.61046978 123.8951117 262.56619322 73.6328125 225.56640625 C16.32062654 184.99994517 -54.62825723 202.15517317 -99.875 251.1875 Z " fill="#0578FF" transform="translate(4035.875,356.8125)"/>
<path d="M0 0 C1.62432449 0.00273422 1.62432449 0.00273422 3.28146362 0.00552368 C19.03116889 0.05018079 34.4113293 0.43884074 49.9375 3.3125 C50.91750977 3.48410645 51.89751953 3.65571289 52.90722656 3.83251953 C115.09602995 14.90303671 115.09602995 14.90303671 129.4375 34.75 C135.34381297 44.62722395 134.7141253 55.30609963 132.35498047 66.24536133 C132.17837828 67.09349553 132.00177608 67.94162973 131.81982231 68.81546497 C129.27987323 80.74589536 126.24317291 92.56197676 123.2578125 104.38671875 C122.60158337 107.0015803 121.945764 109.61654124 121.29049683 112.23164368 C119.74207791 118.40784084 118.18909012 124.58287847 116.63414943 130.75743657 C113.90383676 141.59992544 111.18168008 152.44446295 108.46065116 163.28928483 C107.45244819 167.30665241 106.44208905 171.32347066 105.43018413 175.33990729 C102.0457035 188.77703518 98.69952544 202.2214336 95.46998334 215.69673526 C94.98802261 217.70582148 94.50438629 219.71449623 94.02010155 221.72302341 C93.86314013 222.37413906 93.70617872 223.02525471 93.54446089 223.69610113 C93.38894865 224.34116269 93.23343641 224.98622425 93.07321167 225.65083313 C91.87897539 230.60597892 90.70190438 235.56477533 89.53445435 240.52629089 C88.99742618 242.75962968 88.45977238 244.99281815 87.92138672 247.22583008 C87.69219921 248.22182787 87.4630117 249.21782566 87.22687912 250.2440052 C85.03094211 259.23382759 81.81958571 267.05777619 73.9375 272.3125 C65.24452637 276.95000429 56.64809326 275.7906389 47.42138672 273.40527344 C41.41146418 271.52017089 35.75965673 268.87748932 30.04559326 266.24658203 C0.22300364 252.55417016 -30.4556036 241.07302573 -63.0625 236.3125 C-63.73893555 236.209375 -64.41537109 236.10625 -65.11230469 236 C-72.8402081 234.97206035 -80.65520516 235.06872643 -88.4375 235.0625 C-89.19505585 235.06182526 -89.95261169 235.06115051 -90.73312378 235.06045532 C-128.08562003 235.11326537 -162.65504271 246.97702003 -189.59228516 273.77197266 C-223.25206741 309.04152198 -234.98381622 361.37780314 -239.0625 408.3125 C-239.15066221 409.31919007 -239.23882442 410.32588014 -239.32965821 411.36307597 C-240.24182021 423.20880206 -240.20371239 435.03437347 -240.19380188 446.90948486 C-240.1955065 449.29047643 -240.19765731 451.67146772 -240.20021313 454.05245852 C-240.20538943 459.88385973 -240.20605113 465.71524902 -240.20482027 471.54665209 C-240.20362939 478.53875367 -240.20830386 485.5308482 -240.21332836 492.52294764 C-240.22195711 504.63729048 -240.22733366 516.75163189 -240.23052987 528.86597728 C-240.23568357 548.09190032 -240.25116597 567.31780493 -240.27010635 586.54371884 C-240.27412716 590.64050424 -240.27804825 594.73728972 -240.28197271 598.83407521 C-240.28275536 599.65061642 -240.28353802 600.46715763 -240.28434439 601.30844252 C-240.28592993 602.96298114 -240.28751476 604.61751976 -240.28909888 606.27205838 C-240.29069015 607.93262062 -240.2922844 609.59318285 -240.29388161 611.25374508 C-240.31269071 630.81369331 -240.32978858 650.37364276 -240.34545898 669.93359375 C-240.34649236 671.21661537 -240.34649236 671.21661537 -240.34754662 672.52555662 C-240.36982748 700.28546484 -240.38165327 728.04536767 -240.38912554 755.8052834 C-240.39689018 784.36881152 -240.41794378 812.93230293 -240.45466815 841.49580907 C-240.45984157 845.52923661 -240.46484893 849.56266434 -240.46974754 853.59609222 C-240.47119798 854.7867255 -240.47119798 854.7867255 -240.47267772 856.00141198 C-240.48781332 868.7696833 -240.48871447 881.53791784 -240.48409041 894.30619567 C-240.4797066 907.13432384 -240.48961728 919.96237654 -240.51417748 932.79048255 C-240.52831351 940.40902948 -240.53131367 948.02739142 -240.51833495 955.64594141 C-240.50986354 961.33616167 -240.52222017 967.02618556 -240.5426239 972.71636853 C-240.54762454 975.01690361 -240.54587828 977.31746537 -240.53669123 979.61798754 C-240.43782436 1006.48808289 -240.43782436 1006.48808289 -250.0625 1016.58984375 C-257.29457959 1022.8190373 -264.08007244 1024.46183553 -273.41067505 1024.45967102 C-274.26049953 1024.46334771 -275.11032402 1024.4670244 -275.98590076 1024.4708125 C-278.83842562 1024.48184056 -281.69091405 1024.48569171 -284.54345703 1024.48950195 C-286.58691015 1024.4957673 -288.63036213 1024.50241417 -290.67381287 1024.50941467 C-297.38930468 1024.53045022 -304.10479671 1024.54081708 -310.8203125 1024.55078125 C-313.13309618 1024.55482909 -315.44587974 1024.55894602 -317.75866318 1024.56313133 C-328.62533286 1024.58218244 -339.49199576 1024.59641325 -350.35867894 1024.6047433 C-362.89691094 1024.61451367 -375.4349663 1024.64082842 -387.97313607 1024.68124419 C-397.66756181 1024.71141952 -407.36193697 1024.72621356 -417.05640876 1024.72952431 C-422.84485643 1024.73187331 -428.63311537 1024.74081436 -434.4215126 1024.76598549 C-439.86999861 1024.7892956 -445.31817204 1024.79348747 -450.76669502 1024.78322411 C-452.76207965 1024.78272934 -454.75747982 1024.78903214 -456.75281715 1024.80278015 C-469.74306925 1024.88724712 -480.32724529 1024.68402467 -490.3046875 1015.3125 C-496.0811716 1008.74014476 -498.18596 1002.30154102 -498.19130117 993.69090068 C-498.19307618 993.0224637 -498.19485119 992.35402672 -498.19667998 991.66533406 C-498.20143524 989.41100858 -498.19904329 987.15674666 -498.19672108 984.90241814 C-498.19867346 983.26868724 -498.20106209 981.63495682 -498.20384905 980.00122714 C-498.2102664 975.48368928 -498.21040929 970.96616916 -498.20957164 966.44862761 C-498.2097408 961.54444006 -498.21564307 956.64025893 -498.2208125 951.73607457 C-498.23015221 941.99658424 -498.23406285 932.25709846 -498.23633147 922.51760422 C-498.23928995 910.85689422 -498.24798523 899.19619027 -498.25674575 887.53548344 C-498.27760496 859.34896843 -498.28806538 831.16245222 -498.29687535 802.97593131 C-498.30106463 789.64731241 -498.30630175 776.31869396 -498.31155988 762.99007545 C-498.32921675 718.0983449 -498.34422399 673.20661396 -498.35153012 628.31488044 C-498.35211409 624.73599234 -498.35271136 621.15710424 -498.35330774 617.57821614 C-498.35342586 616.86827454 -498.35354398 616.15833293 -498.35366567 615.42687795 C-498.35486307 608.23410694 -498.35607183 601.04133593 -498.35729821 593.84856493 C-498.35754344 592.40638728 -498.3577873 590.96420963 -498.35802978 589.52203198 C-498.36582005 543.20135597 -498.38820454 496.8807053 -498.4207062 450.56004036 C-498.44405003 417.27971869 -498.4656027 383.99940205 -498.47271252 350.71907234 C-498.47285954 350.03472767 -498.47300656 349.35038299 -498.47315803 348.6453006 C-498.47634278 333.62257434 -498.47839373 318.59984814 -498.47938558 303.57712159 C-498.47980033 297.53264734 -498.48035522 291.48817311 -498.48094749 285.44369888 C-498.48100816 284.7821656 -498.48106883 284.12063232 -498.48113134 283.43905257 C-498.48321015 261.4656171 -498.49868897 239.49222091 -498.51978934 217.5187976 C-498.54001786 196.11417935 -498.54553873 174.70959682 -498.53601871 153.30497079 C-498.53079226 140.58062347 -498.53673513 127.85639484 -498.55855338 115.13206454 C-498.5720207 106.63775316 -498.57102057 98.14352385 -498.55815142 89.64921173 C-498.55122769 84.80585336 -498.55067744 79.96272257 -498.56771151 75.11938415 C-498.58308324 70.7128949 -498.58002852 66.30681675 -498.56230123 61.90033986 C-498.55915235 60.3164772 -498.56270194 58.73258334 -498.57379298 57.14875638 C-498.65052565 45.42723473 -497.41466343 35.9108396 -489.12890625 27.0703125 C-482.25380417 21.22192699 -474.85926238 19.19276018 -466.03633118 19.17205811 C-465.32872546 19.16908698 -464.62111974 19.16611586 -463.89207143 19.1630547 C-461.52089044 19.15438293 -459.14976004 19.15286074 -456.77856445 19.15136719 C-455.0783121 19.14673787 -453.37806078 19.14171306 -451.67781067 19.13632202 C-447.05775626 19.12320548 -442.43771638 19.11675432 -437.81764627 19.11231136 C-434.92968504 19.10937896 -432.04172777 19.1052738 -429.15376854 19.10080719 C-420.11369384 19.08713318 -411.07362821 19.07746649 -402.03354388 19.0736053 C-391.60645341 19.06912699 -381.17949418 19.05158923 -370.75244361 19.0226047 C-362.68774279 19.00096709 -354.62307884 18.99089988 -346.55834931 18.98956418 C-341.74414822 18.98851749 -336.93007051 18.9826388 -332.11590004 18.96474457 C-327.58425021 18.94822831 -323.05281604 18.94612561 -318.52114677 18.95488358 C-316.86237128 18.95565209 -315.20358402 18.95133576 -313.54483795 18.94142532 C-301.09765121 18.87144858 -291.73932865 19.57693747 -282.3515625 28.703125 C-275.97016387 35.97748385 -273.733773 43.95814801 -271.7121582 53.19580078 C-271.49837934 54.15522646 -271.28460047 55.11465214 -271.06434345 56.10315132 C-268.57321302 67.37249176 -266.27230053 78.68099505 -263.98046875 89.9921875 C-263.51700828 92.27007418 -263.05332492 94.54791551 -262.58943176 96.82571411 C-261.38553855 102.74003144 -260.18461646 108.654948 -258.984375 114.57000732 C-257.75249326 120.63819208 -256.51771575 126.70578753 -255.28320312 132.7734375 C-252.87351457 144.61922616 -250.46697362 156.46565179 -248.0625 168.3125 C-245.4225 168.3125 -242.7825 168.3125 -240.0625 168.3125 C-239.55033936 167.1361499 -239.55033936 167.1361499 -239.02783203 165.93603516 C-225.33339765 134.60628895 -209.50120131 104.94550511 -186.15234375 79.5859375 C-184.20378585 77.46619788 -182.31492667 75.30766531 -180.4375 73.125 C-174.74726787 66.62930122 -168.66994222 61.03181679 -161.9296875 55.625 C-160.10152199 54.15051228 -158.29183417 52.65260265 -156.5078125 51.125 C-127.09948056 26.09663239 -89.68568781 11.3175226 -52.125 4 C-51.370979 3.85272461 -50.61695801 3.70544922 -49.84008789 3.55371094 C-33.25365675 0.55300928 -16.81860282 -0.05871125 0 0 Z " fill="#0578FF" transform="translate(1496.0625,359.6875)"/>
<path d="M0 0 C0.84095181 -0.00367669 1.68190363 -0.00735338 2.54833883 -0.01114148 C5.37089071 -0.02216888 8.19340576 -0.02602059 11.01597595 -0.02983093 C13.03810238 -0.03609638 15.06022766 -0.04274326 17.08235168 -0.04974365 C23.72810566 -0.07077977 30.37385986 -0.0811468 37.01963806 -0.09111023 C39.30887298 -0.09515819 41.59810778 -0.09927513 43.88734245 -0.10346031 C54.64455731 -0.12251234 65.4017653 -0.13674239 76.15899378 -0.14507228 C88.56760548 -0.15483997 100.97603857 -0.18114733 113.38458735 -0.22157317 C122.98051575 -0.25176041 132.57639304 -0.26654371 142.17236799 -0.26985329 C147.90104467 -0.27220112 153.62953055 -0.28112682 159.3581562 -0.30631447 C164.75165425 -0.32964515 170.14483655 -0.33380822 175.53837204 -0.32355309 C177.5123735 -0.3230588 179.48639076 -0.32934728 181.46034431 -0.34310913 C205.85541079 -0.503597 205.85541079 -0.503597 215.23838806 8.45185852 C224.08428279 18.47566612 224.02797518 29.24794788 223.99175072 41.99979877 C223.99444522 43.63277381 223.99801369 45.2657476 224.00237519 46.89871904 C224.01183534 51.39553476 224.00883183 55.89226949 224.00381964 60.3890892 C224.00055505 65.2777635 224.00883385 70.16642041 224.01563799 75.05508918 C224.02595125 83.62637081 224.02877949 92.19762986 224.02672577 100.76891708 C224.02367925 113.51472647 224.03199198 126.26051081 224.04247502 139.00631533 C224.06183178 163.09307209 224.06744385 187.17982034 224.06858914 211.26658396 C224.06950765 229.86422396 224.07362134 248.46186071 224.07999039 267.05949974 C224.08179158 272.409648 224.08356525 277.75979626 224.08534014 283.10994452 C224.08556132 283.77464112 224.0857825 284.43933772 224.08601038 285.12417665 C224.09865827 323.21370099 224.10690863 361.30322419 224.10599327 399.39275074 C224.10596171 400.81814787 224.10593024 402.243545 224.10589885 403.66894213 C224.10575209 410.10448852 224.10557575 416.54003491 224.10539109 422.97558131 C224.10530884 425.84535466 224.10522854 428.71512802 224.10514846 431.58490137 C224.10510767 433.02127433 224.10506563 434.45764729 224.10502234 435.89402025 C224.10366174 481.31736572 224.1182985 526.74068 224.14610291 572.16401672 C224.15310493 583.6092646 224.16004383 595.0545125 224.1666317 606.49976063 C224.16703745 607.2044867 224.16744319 607.90921276 224.16786124 608.63529417 C224.18029067 630.35467737 224.18782224 652.07405802 224.19034767 673.79344463 C224.19042757 674.4753195 224.19050747 675.15719436 224.1905898 675.8597321 C224.19229633 690.82832726 224.19281875 705.79692225 224.19224904 720.76551749 C224.19205608 726.1214996 224.19195199 731.4774817 224.19189159 736.83346381 C224.19186786 738.83102866 224.19183253 740.8285935 224.1917972 742.82615835 C224.19173559 764.04978832 224.20451899 785.27339202 224.22173236 806.49701418 C224.23866755 827.81826872 224.24067924 849.13948473 224.22751372 870.46074227 C224.22011064 883.1337966 224.22382304 895.806734 224.2433984 908.479776 C224.25536588 916.94103549 224.2528434 925.40220996 224.2384574 933.86346549 C224.23066711 938.68705227 224.22922094 943.51041218 224.2453721 948.33398328 C224.25994195 952.72365841 224.25604321 957.11291799 224.23752437 961.50257469 C224.23408655 963.07921739 224.23732294 964.65589272 224.24812678 966.23250214 C224.3238507 978.07789853 223.23357902 988.50412611 214.73448181 997.42451477 C207.50240222 1003.65370832 200.71690937 1005.29650655 191.38630676 1005.29434204 C190.53648228 1005.29801873 189.68665779 1005.30169542 188.81108105 1005.30548352 C185.95855619 1005.31651158 183.10606776 1005.32036273 180.25352478 1005.32417297 C178.21007166 1005.33043832 176.16661968 1005.33708519 174.12316895 1005.34408569 C167.40767713 1005.36512124 160.6921851 1005.3754881 153.97666931 1005.38545227 C151.66388563 1005.38950011 149.35110207 1005.39361704 147.03831863 1005.39780235 C136.17164895 1005.41685347 125.30498605 1005.43108427 114.43830287 1005.43941432 C101.90007088 1005.44918469 89.36201551 1005.47549944 76.82384574 1005.51591522 C67.12942 1005.54609054 57.43504484 1005.56088458 47.74057305 1005.56419533 C41.95212538 1005.56654433 36.16386644 1005.57548538 30.37546921 1005.60065651 C24.9269832 1005.62396662 19.47880977 1005.62815849 14.03028679 1005.61789513 C12.03490216 1005.61740036 10.03950199 1005.62370316 8.04416466 1005.63745117 C-4.88363385 1005.72151205 -15.55116409 1005.52906695 -25.50770569 996.21748352 C-30.81977077 989.96105131 -33.38928821 982.75921655 -33.39431936 974.6573329 C-33.39609437 973.99099266 -33.39786937 973.32465242 -33.39969817 972.63812005 C-33.40446343 970.38490917 -33.40205908 968.13176162 -33.39973927 965.87854767 C-33.40169114 964.24799032 -33.40407958 962.61743345 -33.40686724 960.98687732 C-33.41329098 956.473482 -33.41342697 951.96010442 -33.41258983 947.44670539 C-33.41275886 942.54873196 -33.41865975 937.65076498 -33.42383069 932.75279474 C-33.43317433 923.02348998 -33.4370817 913.29418977 -33.43934965 903.56488108 C-33.44230715 891.91711953 -33.45100188 880.26936405 -33.45976393 868.62160567 C-33.48062796 840.46460461 -33.49108458 812.30760234 -33.49989354 784.15059536 C-33.5040824 770.83583438 -33.50931961 757.52107385 -33.51457807 744.20631325 C-33.53223592 699.36174836 -33.54724293 654.51718308 -33.55454831 609.67261521 C-33.55513228 606.09711536 -33.55572955 602.5216155 -33.55632592 598.94611564 C-33.55644404 598.23684475 -33.55656216 597.52757386 -33.55668386 596.79680991 C-33.55788126 589.61081289 -33.55909002 582.42481586 -33.5603164 575.23881885 C-33.56056163 573.79799729 -33.56080549 572.35717574 -33.56104796 570.91635419 C-33.56883738 524.64433406 -33.59121937 478.37233929 -33.62372439 432.10033025 C-33.64706926 398.85691419 -33.66862147 365.61350316 -33.67573071 332.37007904 C-33.67587773 331.68643671 -33.67602475 331.00279439 -33.67617622 330.29843563 C-33.67936103 315.29079975 -33.68141193 300.28316393 -33.68240377 285.27552776 C-33.68281851 279.23701972 -33.68337341 273.19851169 -33.68396568 267.16000366 C-33.68402635 266.49912268 -33.68408702 265.83824169 -33.68414953 265.15733401 C-33.68622811 243.20794451 -33.70170547 221.2585968 -33.72280753 199.3092192 C-33.74303972 177.92574554 -33.74855519 156.54230763 -33.7390369 135.15882617 C-33.73381176 122.4480249 -33.73974715 109.73734246 -33.76157157 97.02655823 C-33.77504435 88.53996446 -33.77403387 80.05345281 -33.76116961 71.56685828 C-33.75424952 66.72871036 -33.75368334 61.89079021 -33.7707297 57.05266231 C-33.78611658 52.64971799 -33.78303054 48.24718484 -33.76531942 43.84425278 C-33.76217404 42.26279247 -33.76570727 40.68130084 -33.77681116 39.09987639 C-33.85419611 27.30895108 -32.79440308 16.77096571 -24.33192444 7.86982727 C-16.97374245 1.73569068 -9.32188559 -0.00218577 0 0 Z " fill="#0578FF" transform="translate(1751.2655181884766,378.8528289794922)"/>
<path d="M0 0 C0.80131348 0.39396973 1.60262695 0.78793945 2.42822266 1.19384766 C17.4912447 8.62376058 30.93368206 17.19457542 43 29 C43.62261719 29.58652344 44.24523438 30.17304687 44.88671875 30.77734375 C69.6765409 56.23565548 69.60120012 103.91331708 69.1875 136.5546875 C67.35095661 224.04302344 44.12659932 312.79074184 2 398 C1.47374023 399.04978027 0.94748047 400.09956055 0.40527344 401.18115234 C-24.4829394 450.52302192 -57.67456613 495.9729957 -95.39648438 536.28320312 C-97.10838013 538.1160367 -98.81243978 539.95594584 -100.515625 541.796875 C-116.81389883 559.38638531 -116.81389883 559.38638531 -124.7578125 566.28125 C-129.11846264 570.07099588 -133.31372759 574.01960984 -137.5 578 C-142.28190517 582.5467295 -147.10197031 587.02048548 -152.08837891 591.34277344 C-153.89189182 592.90627863 -155.68015094 594.48539492 -157.46484375 596.0703125 C-183.10528463 618.70005516 -216.79417808 647.30236887 -253.02734375 646.30078125 C-265.1209768 645.38513745 -271.97563533 639.39367439 -280.0390625 630.8359375 C-288.70474957 620.69523987 -290.08024359 609.09761274 -289.21435547 596.23876953 C-286.50061342 567.89592833 -267.99334008 540.65110973 -253.24609375 517.1953125 C-237.15465242 491.56694905 -222.73034413 464.95147737 -209 438 C-208.43321533 436.89132568 -208.43321533 436.89132568 -207.85498047 435.76025391 C-205.94273278 432.01262803 -204.06534822 428.24920555 -202.21289062 424.47167969 C-201.28476165 422.5802993 -200.35311783 420.69064332 -199.41992188 418.80175781 C-170.17514741 359.57399426 -143.77812268 296.50517574 -133 231 C-132.87012695 230.24557617 -132.74025391 229.49115234 -132.60644531 228.71386719 C-129.53204218 210.49996625 -127.41006873 186.0496406 -137.69921875 169.78125 C-151.63779858 150.69418573 -181.53774564 145.0384971 -203.58691406 141.49707031 C-210.76870656 140.4511383 -217.97573063 139.62163717 -225.1875 138.8125 C-225.93601227 138.72773407 -226.68452454 138.64296814 -227.45571899 138.55563354 C-248.65541281 136.18319902 -269.73762904 135.75825507 -291.0625 135.75 C-291.76157471 135.74941086 -292.46064941 135.74882172 -293.1809082 135.74821472 C-320.2072101 135.73220662 -347.06060478 136.75438933 -374 139 C-374.86083191 139.07025391 -375.72166382 139.14050781 -376.60858154 139.21289062 C-417.91226909 142.59647859 -458.87543937 148.70177044 -499.54937744 156.56640625 C-581.56612212 172.41890091 -581.56612212 172.41890091 -607 159 C-617.2905653 151.66992928 -623.89765062 142.50984752 -626 130 C-627.53672711 116.94730555 -622.77741339 105.29318419 -615 95 C-612.13494344 91.52736289 -609.11858329 88.24544092 -606 85 C-605.30132813 84.24976563 -604.60265625 83.49953125 -603.8828125 82.7265625 C-585.84900243 63.90005748 -561.51760528 50.63954941 -539 38 C-537.96214355 37.41718262 -536.92428711 36.83436523 -535.85498047 36.23388672 C-462.0107891 -4.9574151 -380.30906261 -29.19926287 0 0 Z " fill="#0578FF" transform="translate(3993,1757)"/>
<path d="M0 0 C0.94262695 0.47542236 0.94262695 0.47542236 1.90429688 0.96044922 C22.60227356 11.61316988 40.62841549 28.31188702 53 48 C53.38881348 48.61423828 53.77762695 49.22847656 54.17822266 49.86132812 C76.51807414 85.75972977 81.22688094 131.93986656 71.75 172.6875 C65.52840052 198.00114214 54.09474376 220.14497289 36 239 C34.77216797 240.32257813 34.77216797 240.32257813 33.51953125 241.671875 C6.98386346 269.42261769 -31.27134222 283.04901969 -69.15625 284.18359375 C-104.84039533 284.83858908 -141.88711247 275.98279856 -170 253 C-170.54994629 252.55398438 -171.09989258 252.10796875 -171.66650391 251.6484375 C-203.09463209 226.00541609 -220.11669466 191.10784635 -224.62109375 151.00390625 C-228.39224707 108.56152045 -218.54540541 66.08940935 -191 33 C-190.25878906 32.10539062 -189.51757812 31.21078125 -188.75390625 30.2890625 C-183.40333074 24.08964346 -177.47898887 18.9866375 -171 14 C-170.2059375 13.35546875 -169.411875 12.7109375 -168.59375 12.046875 C-122.15276622 -24.10654908 -51.36760336 -25.99519598 0 0 Z " fill="#0578FF" transform="translate(1921,17)"/>
</svg>
