<?xml version="1.0" encoding="UTF-8"?>
<svg version="1.1" xmlns="http://www.w3.org/2000/svg" width="1600" height="351">
<path d="M0 0 C0.97412842 0.01466309 1.94825684 0.02932617 2.9519043 0.04443359 C4.05272339 0.0727124 4.05272339 0.0727124 5.17578125 0.1015625 C5.22267892 22.18215273 5.25785662 44.26273464 5.27940559 66.34336472 C5.28968088 76.59774194 5.30366879 86.85208806 5.32666016 97.10644531 C5.34670959 106.05300521 5.35952485 114.99954257 5.36395824 123.94612432 C5.36654623 128.67519885 5.37254919 133.40420893 5.38724136 138.13326263 C5.50561028 177.85898569 4.95796406 213.62436313 -24.26171875 243.9140625 C-42.56114225 261.60350522 -65.37693456 268.5075292 -90.40258789 268.40185547 C-115.27050586 267.93364431 -137.21672132 259.45191736 -155.078125 241.97265625 C-175.67975457 220.43325692 -182.85081848 193.26550901 -182.82421875 164.1015625 C-182.1891213 140.39464483 -171.6315169 118.46785283 -154.82421875 102.1015625 C-154.08429688 101.36421875 -153.344375 100.626875 -152.58203125 99.8671875 C-133.63544641 81.9616238 -111.04674047 77.43035963 -85.84375 77.7890625 C-71.62014955 78.24622925 -58.67570203 82.09993581 -45.82421875 88.1015625 C-44.94459473 88.43124023 -44.0649707 88.76091797 -43.15869141 89.10058594 C-40.82421875 91.1015625 -40.82421875 91.1015625 -40.38954163 92.99436951 C-40.24272102 95.53790641 -40.26317052 98.03521536 -40.3359375 100.58203125 C-40.34654961 101.97401482 -40.34654961 101.97401482 -40.3573761 103.39411926 C-40.38537932 106.3599183 -40.44812842 109.32383358 -40.51171875 112.2890625 C-40.53679397 114.29880087 -40.55960849 116.30856882 -40.58007812 118.31835938 C-40.63522548 123.24682026 -40.72153878 128.17387196 -40.82421875 133.1015625 C-41.7579834 132.56249268 -42.69174805 132.02342285 -43.65380859 131.46801758 C-44.90586859 130.74811242 -46.15798764 130.02830996 -47.41015625 129.30859375 C-48.02238037 128.95478638 -48.63460449 128.600979 -49.26538086 128.2364502 C-66.92364237 118.10189021 -84.97573705 112.77533213 -105.32421875 117.2265625 C-118.17987386 121.08146605 -129.0198015 128.70657944 -135.546875 140.53125 C-143.9834945 157.50768924 -145.76690386 176.91652608 -139.82421875 195.1015625 C-133.91205608 209.55351569 -125.46793766 220.18416011 -110.82421875 226.4140625 C-96.14719617 231.70778736 -81.3399862 231.87579043 -66.82421875 226.1015625 C-66.0765625 225.8128125 -65.32890625 225.5240625 -64.55859375 225.2265625 C-52.32446306 219.83198519 -44.66353746 208.47491725 -39.6640625 196.48046875 C-35.30563861 184.13497969 -34.67708727 172.00089258 -34.68237305 159.03564453 C-34.67933553 157.63346244 -34.67581245 156.23128133 -34.67184448 154.82910156 C-34.66400134 151.82539895 -34.65882805 148.82170796 -34.65555382 145.81799698 C-34.64960282 141.05911954 -34.63302503 136.30031527 -34.61421204 131.54147339 C-34.60787599 129.90685467 -34.60155035 128.27223591 -34.59523487 126.63761711 C-34.59206906 125.81942552 -34.58890325 125.00123394 -34.5856415 124.15824866 C-34.54369343 113.09232819 -34.51058959 102.026444 -34.49829102 90.96044922 C-34.48988938 83.47729031 -34.46732705 75.99431534 -34.42893535 68.51124847 C-34.40925678 64.55999776 -34.39674292 60.60902147 -34.40176964 56.65771866 C-34.40644344 52.93924234 -34.39246356 49.22128603 -34.36475754 45.50291443 C-34.3546457 43.50484486 -34.36404975 41.50670558 -34.37425232 39.50863647 C-34.25827168 28.21766829 -31.75032474 18.44966025 -23.82421875 10.1015625 C-17.07817409 3.83530119 -9.31534643 -0.1827917 0 0 Z " fill="#41B348" transform="translate(1283.82421875,4.8984375)"/>
<path d="M0 0 C0.97066406 0.47953125 1.94132813 0.9590625 2.94140625 1.453125 C23.63483516 12.56876087 38.87227881 32.77777746 46.05004883 54.89794922 C53.87126077 80.93207805 53.25854616 109.45043315 40.6875 133.875 C27.84119173 156.26663797 8.10114269 171.79654602 -16.5078125 179.03125 C-42.47963964 185.19599139 -67.62555535 179.68722233 -91 168 C-91 154.14 -91 140.28 -91 126 C-87.37 127.98 -83.74 129.96 -80 132 C-71.89351445 136.39508252 -63.9078606 139.58745442 -55 142 C-54.36964844 142.19464844 -53.73929688 142.38929688 -53.08984375 142.58984375 C-38.26983171 145.49844424 -22.69946703 141.71821056 -10 134 C0.91691871 126.54135177 7.09591837 114.13532193 10.25 101.5625 C13.13338881 84.86505754 11.59456482 65.40405406 2 51 C-6.36356804 40.07682147 -17.1779815 32.41508322 -30.765625 29.3828125 C-46.33566003 27.53998227 -61.78209054 28.08320245 -74.66015625 37.9765625 C-89.41348716 50.7348687 -95.07035508 66.90079793 -97 86 C-97.0941394 88.47073426 -97.14541701 90.94339964 -97.15821838 93.41589355 C-97.16315636 94.11693285 -97.16809434 94.81797215 -97.17318195 95.54025507 C-97.1884118 97.86472518 -97.19687771 100.189168 -97.20532227 102.51367188 C-97.21491224 104.18970983 -97.22492296 105.86574543 -97.23532104 107.54177856 C-97.26225497 112.07420295 -97.28332654 116.60663763 -97.30332303 121.13909721 C-97.32525396 125.88234181 -97.35260775 130.62555511 -97.37937927 135.36877441 C-97.42921035 144.34289694 -97.47418458 153.31703693 -97.51740164 162.29119349 C-97.56685613 172.51127779 -97.62174371 182.73133067 -97.67708123 192.95138454 C-97.79075406 213.9675604 -97.89762488 234.98376628 -98 256 C-99.72634381 256.04260006 -101.4529988 256.07267935 -103.1796875 256.09765625 C-104.62190674 256.12484741 -104.62190674 256.12484741 -106.09326172 256.15258789 C-114.56757139 255.7077329 -122.12234303 250.87765697 -128 245 C-136.13028085 234.59750093 -137.45123933 223.07275193 -137.38818359 210.23291016 C-137.39225947 208.88606341 -137.397607 207.53922001 -137.40411377 206.19238281 C-137.41768584 202.56355591 -137.41252749 198.93498754 -137.40297651 195.30615664 C-137.39531135 191.47764741 -137.4024458 187.64915841 -137.40713501 183.82064819 C-137.41257939 177.38348481 -137.40544262 170.94642496 -137.39111328 164.50927734 C-137.3748588 157.12319231 -137.38002789 149.73735673 -137.3965925 142.35127795 C-137.41032882 135.9651968 -137.41206645 129.57918962 -137.40427649 123.19309843 C-137.39965692 119.39920513 -137.39881218 115.60542782 -137.40888596 111.81154251 C-137.49151006 75.70749256 -133.94911786 42.29327939 -108.25 14.8125 C-80.16680593 -11.93604722 -34.39644909 -17.17410361 0 0 Z " fill="#41B548" transform="translate(831,92)"/>
<path d="M0 0 C2.70881206 2.16478286 5.29987399 4.40382264 7.86328125 6.73828125 C8.64058594 7.42277344 9.41789062 8.10726562 10.21875 8.8125 C29.11360247 26.40650205 36.02735815 51.65212117 37.01953125 76.6796875 C37.09430682 85.04520454 37.09430682 85.04520454 35.86328125 88.73828125 C-13.96671875 88.73828125 -63.79671875 88.73828125 -115.13671875 88.73828125 C-108.6117217 107.00827299 -101.63188951 119.14841932 -84.13671875 127.73828125 C-70.19841566 133.436814 -56.60625063 136.46926862 -42.2578125 130.55078125 C-31.68963535 125.58387296 -17.51753574 116.49991522 -12.13671875 105.73828125 C-6.87214988 107.38805632 -2.82493313 110.68462904 1.55078125 113.92578125 C3.15585924 115.10079438 4.7613256 116.2752772 6.3671875 117.44921875 C7.13820801 118.01479492 7.90922852 118.58037109 8.70361328 119.16308594 C12.71152249 122.08633149 16.78212851 124.91838928 20.86328125 127.73828125 C12.70341359 146.09798348 -3.26993638 159.7748011 -21.76171875 167.05078125 C-47.41130449 176.4955294 -74.52987775 173.75741414 -99.13671875 162.73828125 C-123.18074799 151.21562042 -141.20375655 131.79415084 -150.13671875 106.73828125 C-158.24670879 81.13315547 -156.41246157 55.88185781 -144.28613281 31.88208008 C-140.84581417 25.31218654 -137.00464605 19.34471889 -132.13671875 13.73828125 C-131.4715625 12.93003906 -130.80640625 12.12179688 -130.12109375 11.2890625 C-96.63682874 -28.03688184 -40.03885604 -28.86986008 0 0 Z M-97.13671875 33.73828125 C-101.32527272 38.59649844 -105.27000119 43.47427042 -107.75390625 49.42529297 C-108.21023438 50.5185791 -108.6665625 51.61186523 -109.13671875 52.73828125 C-75.13198298 53.48577014 -41.1496604 53.89035452 -7.13671875 53.73828125 C-7.6074178 52.29095044 -8.08114392 50.84460385 -8.55615234 49.39868164 C-8.8196347 48.59314346 -9.08311707 47.78760529 -9.35458374 46.95765686 C-13.93316093 33.96554883 -25.5190389 27.03140017 -37.26953125 21.40234375 C-58.61673953 11.80686801 -80.84400826 17.96731694 -97.13671875 33.73828125 Z " fill="#41B548" transform="translate(1051.13671875,102.26171875)"/>
<path d="M0 0 C0.66169189 0.00182281 1.32338379 0.00364563 2.00512695 0.00552368 C27.61110012 0.12427042 52.19127088 7.13892922 70.71875 25.7265625 C88.20352895 44.55184117 93.52224776 66.98120138 93.42602539 92.19995117 C93.42617142 93.22568237 93.42631744 94.25141357 93.4264679 95.30822754 C93.42577804 98.65733039 93.41802959 102.00637577 93.41015625 105.35546875 C93.40828877 107.69387278 93.40686643 110.0322772 93.40586853 112.37068176 C93.40206934 118.49440613 93.3922615 124.61810638 93.38116455 130.74182129 C93.37089431 137.00300775 93.36635893 143.26419815 93.36132812 149.52539062 C93.35063667 161.78777095 93.33359179 174.05013346 93.3125 186.3125 C91.58747655 186.35681392 89.86211583 186.38809093 88.13671875 186.4140625 C86.69558716 186.44234131 86.69558716 186.44234131 85.2253418 186.47119141 C76.39875125 185.9903194 68.57228834 180.79908263 62.625 174.53515625 C54.46997407 164.56563705 53.74199513 153.87182204 53.8266449 141.54594803 C53.84412685 138.91995467 53.83628128 136.29504115 53.8223877 133.66903687 C53.79295899 127.15012576 53.8058759 120.63143091 53.81756592 114.11248779 C53.82582388 108.58958459 53.81761566 103.06715897 53.78843689 97.54432297 C53.78143074 94.98020958 53.79790544 92.4169793 53.81555176 89.85293579 C53.81177294 75.44840646 51.50539379 63.25847701 41.3125 52.3125 C38.15695206 49.62277104 34.88347315 47.41138116 31.3125 45.3125 C30.66667969 44.91417969 30.02085938 44.51585937 29.35546875 44.10546875 C15.87765916 36.52952104 -2.58297693 36.09850762 -17.3125 39.9375 C-31.3761099 44.60880505 -40.93376183 53.19538713 -48.20703125 65.984375 C-56.57411554 83.07243839 -56.64899998 101.55840786 -50.6875 119.3125 C-44.90435377 133.49928059 -34.36851219 143.08275338 -20.6875 149.3125 C-7.70142353 154.3175503 6.92248249 153.9042755 19.56640625 148.31640625 C29.12610461 143.51161873 40.46600338 134.00549325 45.3125 124.3125 C45.9725 124.3125 46.6325 124.3125 47.3125 124.3125 C47.69502705 130.96343973 47.95632015 137.61152635 48.13647461 144.27099609 C48.21159909 146.53183913 48.31374664 148.7919606 48.4440918 151.05029297 C49.47059867 169.30198776 49.47059867 169.30198776 45.88043213 174.31021118 C41.89685884 178.04584394 37.28734126 180.20063472 32.3125 182.3125 C30.47615798 183.28601243 28.64202072 184.26372803 26.8125 185.25 C6.79324751 193.53991072 -17.52967595 192.3392954 -37.5 184.5625 C-44.04721559 181.84755292 -49.95227684 178.46796109 -55.6875 174.3125 C-56.58984375 173.66796875 -57.4921875 173.0234375 -58.421875 172.359375 C-78.43884448 157.09219489 -90.32816358 132.94149485 -93.6875 108.3125 C-94.09051922 103.17808733 -94.16533168 98.08608125 -94.125 92.9375 C-94.12229095 92.26439789 -94.11958191 91.59129578 -94.11679077 90.89779663 C-93.96103505 65.3026982 -85.49941497 42.93706618 -67.17333984 24.74316406 C-48.62536204 6.88395441 -25.2729375 -0.11014608 0 0 Z " fill="#42B549" transform="translate(1504.6875,82.6875)"/>
<path d="M0 0 C0 48.18 0 96.36 0 146 C16.24313252 146.31255906 16.24313252 146.31255906 30 140 C34.09955319 135.28140023 37.07414813 129.99986515 40.21594238 124.6222229 C41.27154876 122.83858957 42.35447941 121.07416447 43.44433594 119.3112793 C47.25257702 113.08914699 50.48932589 107.04749486 53.0625 100.21484375 C59.32493802 84.60880706 59.32493802 84.60880706 66 81 C79.81328537 76.97596169 95.93708379 79.40812578 110 81 C108.63982097 84.614422 107.02038074 87.88612993 105.0859375 91.2265625 C104.49772217 92.24532471 103.90950684 93.26408691 103.3034668 94.3137207 C102.66707275 95.40644287 102.03067871 96.49916504 101.375 97.625 C100.71346924 98.76348389 100.05193848 99.90196777 99.37036133 101.07495117 C97.967424 103.48719056 96.56144954 105.89763163 95.15380859 108.30712891 C93.72648546 110.75141877 92.30504202 113.19896768 90.88916016 115.64990234 C73.31198744 146.06989217 73.31198744 146.06989217 64 155 C65.34191406 155.70962891 65.34191406 155.70962891 66.7109375 156.43359375 C81.10574442 164.21921292 90.21596926 172.69860612 95.8359375 188.32421875 C98.51919667 197.91006492 98.13797509 208.25235851 98.09765625 218.1015625 C98.09553383 220.07798233 98.09553383 220.07798233 98.09336853 222.09432983 C98.08958728 225.56302865 98.07979562 229.03168424 98.06866455 232.50036621 C98.0583549 236.05362361 98.05385063 239.60688814 98.04882812 243.16015625 C98.03816849 250.10678836 98.02114623 257.05339209 98 264 C96.27497655 264.04431392 94.54961583 264.07559093 92.82421875 264.1015625 C91.38308716 264.12984131 91.38308716 264.12984131 89.9128418 264.15869141 C81.08625125 263.6778194 73.25978834 258.48658263 67.3125 252.22265625 C59.52817076 242.70631376 58.44367002 232.3641461 58.4375 220.4375 C58.44813044 205.28562856 58.44813044 205.28562856 52 192 C52 191.34 52 190.68 52 190 C33.25637498 182.13977015 25.06254521 185 0 185 C0 211.07 0 237.14 0 264 C-11.75698374 264 -20.13410451 262.62445741 -28.77734375 254.28515625 C-36.41803226 246.12755012 -39.14976484 237.77986739 -39.14717102 226.77244568 C-39.15084771 225.93557742 -39.1545244 225.09870916 -39.1583125 224.23648125 C-39.16933954 221.42774887 -39.17319155 218.61905351 -39.17700195 215.81030273 C-39.18326743 213.79802839 -39.18991431 211.7857552 -39.19691467 209.77348328 C-39.21795049 203.16019495 -39.22831781 196.54690642 -39.23828125 189.93359375 C-39.24232923 187.65550283 -39.24644616 185.37741204 -39.25063133 183.09932137 C-39.26968331 172.39443225 -39.28391336 161.68955002 -39.2922433 150.98464721 C-39.3020109 138.63659566 -39.32831805 126.2887236 -39.36874419 113.94073528 C-39.398932 104.39151561 -39.41371478 94.84234731 -39.41702431 85.29308087 C-39.41937208 79.59234946 -39.42829699 73.89180981 -39.45348549 68.19112968 C-39.47681717 62.82389601 -39.48097885 57.45697963 -39.47072411 52.08970833 C-39.47022985 50.12538216 -39.47651762 48.1610401 -39.49028015 46.19676208 C-39.58090364 32.48960493 -38.95707864 20.48720088 -29 10 C-20.2152813 1.84005656 -12.13366542 0 0 0 Z " fill="#41B549" transform="translate(368,5)"/>
<path d="M0 0 C20.8083425 15.4600135 35.56956099 36.14895896 39.6796875 62.078125 C42.53593943 82.16973724 40.71512157 102.51903234 32 121 C31.71527832 121.60392578 31.43055664 122.20785156 31.13720703 122.83007812 C26.32321916 132.69755576 19.77317911 140.3579799 12 148 C10.8553125 149.14275391 10.8553125 149.14275391 9.6875 150.30859375 C-10.2712914 169.13002756 -35.83104423 174.88839146 -62.37158203 174.13623047 C-88.21123738 172.7969654 -111.50402249 159.60012722 -128.61132812 140.64746094 C-145.42754309 120.69742251 -151.68914445 95.03126972 -149.7265625 69.43359375 C-147.52881058 49.88189507 -140.99698541 32.00510333 -128 17 C-127.35804688 16.20335937 -126.71609375 15.40671875 -126.0546875 14.5859375 C-95.31717359 -22.04954956 -38.58006501 -25.49861251 0 0 Z M-96.15625 37.72265625 C-109.02568474 53.61858941 -110.57751291 71.29124425 -109 91 C-107.18277246 104.44521935 -100.15033994 117.29280625 -89.68359375 125.90625 C-84.13837423 130.00224939 -78.55298415 132.8830457 -72 135 C-71.3296875 135.22558594 -70.659375 135.45117188 -69.96875 135.68359375 C-55.8837297 139.61114749 -40.14064283 137.30289359 -27.25 130.8125 C-13.2916053 122.3126954 -4.7491528 109.47740015 -0.87890625 93.734375 C0.1395703 88.89027759 0.34615739 84.18898166 0.3125 79.25 C0.30686035 78.37601563 0.3012207 77.50203125 0.29541016 76.6015625 C0.00440061 60.97348571 -4.71093461 47.61824343 -15.66015625 36.25 C-28.56283523 23.84274943 -42.40128339 20.46066082 -59.8359375 20.7265625 C-74.05113611 21.25228021 -86.44040345 27.34979548 -96.15625 37.72265625 Z " fill="#41B548" transform="translate(264,99)"/>
<path d="M0 0 C21.53930531 16.74960626 35.61092119 38.03140155 39.24609375 65.46875 C42.07504011 90.92636877 36.33391868 116.59107577 20.59375 137.03125 C5.13951699 156.26520532 -17.01846532 169.36746502 -41.51953125 172.96484375 C-68.30341157 175.35415466 -93.66097516 170.11543305 -115.25390625 153.46875 C-125.58728129 144.74467107 -133.33170348 135.91391842 -140.06640625 124.28125 C-140.57042969 123.41628906 -141.07445312 122.55132812 -141.59375 121.66015625 C-153.01553883 100.51769607 -154.10025999 72.97472067 -147.43212891 50.10595703 C-143.37873576 37.57285395 -137.58135395 26.3555194 -129.06640625 16.28125 C-128.39867187 15.46785156 -127.7309375 14.65445313 -127.04296875 13.81640625 C-96.06672079 -22.47165318 -38.30004473 -27.02309804 0 0 Z M-97.22265625 37.00390625 C-108.40235947 50.81273459 -111.99622257 67.59149276 -110.8125 85.01953125 C-109.01390617 99.84577771 -103.19622187 113.98617055 -92.06640625 124.28125 C-78.63972656 134.66993096 -63.61967406 137.3165482 -47.06640625 136.28125 C-32.97290118 134.36751744 -20.70823622 126.86982324 -12.02734375 115.64453125 C-7.93486337 109.5406403 -5.17439291 103.30434124 -3.06640625 96.28125 C-2.72802734 95.26224609 -2.72802734 95.26224609 -2.3828125 94.22265625 C1.97952826 78.78899549 -0.7934807 59.96789713 -8.2734375 46.09765625 C-16.72540227 32.82125844 -28.25515123 24.69613462 -43.3671875 20.66796875 C-63.55054262 17.7762869 -82.86964983 21.68030718 -97.22265625 37.00390625 Z " fill="#41B548" transform="translate(635.06640625,99.71875)"/>
<path d="M0 0 C0 14.85 0 29.7 0 45 C20.79 45 41.58 45 63 45 C63 57.21 63 69.42 63 82 C42.21 82 21.42 82 0 82 C0.09079245 99.06946303 0.09079245 99.06946303 0.20898438 116.13867188 C0.26328132 123.10211131 0.31439265 130.0654707 0.34643555 137.02905273 C0.37247499 142.6442487 0.41288248 148.25917545 0.46318626 153.87420464 C0.47985053 156.01473068 0.49136754 158.15530329 0.49761391 160.29588509 C0.50725955 163.29788453 0.53532519 166.2991959 0.56762695 169.30102539 C0.56619186 170.1828801 0.56475677 171.0647348 0.5632782 171.97331238 C0.64538664 177.38119195 1.41212532 181.21730473 4 186 C8.16960627 189.1272047 11.88036505 190.11645075 17.0222168 190.20532227 C18.04304855 190.22526749 19.06388031 190.24521271 20.11564636 190.26576233 C21.21572525 190.28247482 22.31580414 190.29918732 23.44921875 190.31640625 C25.14084892 190.3475779 25.14084892 190.3475779 26.86665344 190.37937927 C30.4735396 190.44482847 34.08049929 190.50373844 37.6875 190.5625 C40.13086702 190.60568961 42.57422656 190.64930404 45.01757812 190.69335938 C51.01164444 190.80130552 57.00576558 190.90041392 63 191 C63 203.21 63 215.42 63 228 C55.66834565 228.0842988 48.33848565 228.16438368 41.00676727 228.20700073 C37.59129215 228.22796853 34.17622565 228.25590042 30.76098633 228.30175781 C26.8263879 228.35424748 22.89194591 228.3730748 18.95703125 228.390625 C17.15465752 228.42159271 17.15465752 228.42159271 15.31587219 228.45318604 C0.17731605 228.45712815 -12.89013113 223.48127731 -23.93359375 213.1484375 C-37.57037987 198.97030448 -39.3107999 179.19653031 -39.2746582 160.46411133 C-39.27901847 159.05971509 -39.28420594 157.65532123 -39.29014587 156.25093079 C-39.30339929 152.47839482 -39.30413048 148.70595983 -39.30158257 144.93340516 C-39.30050447 141.76986456 -39.30541698 138.6063437 -39.310188 135.44280738 C-39.32123378 127.97691154 -39.32174714 120.51106604 -39.31567383 113.04516602 C-39.3096245 105.36799921 -39.32198065 97.69101523 -39.3432439 90.0138796 C-39.36089922 83.39354665 -39.36685546 76.77327173 -39.36360615 70.15291613 C-39.36180097 66.21128167 -39.36435347 62.26977797 -39.37832069 58.32816505 C-39.39096047 54.6237041 -39.38889745 50.91952767 -39.37590981 47.21507072 C-39.37244502 45.22277956 -39.3836736 43.23047943 -39.39547729 41.23822021 C-39.32176787 28.55877117 -36.42291586 18.8010956 -27.875 9.3125 C-19.98729747 1.75345175 -10.52217337 0 0 0 Z " fill="#42B548" transform="translate(41,41)"/>
<path d="M0 0 C12.54 0 25.08 0 38 0 C38 60.39 38 120.78 38 183 C24.76111427 183 18.46013603 181.22493774 9.19921875 172.37109375 C2.94770877 165.63101105 -0.25547553 158.65030277 -0.24050903 149.35610962 C-0.24221788 148.7139489 -0.24392673 148.07178818 -0.24568737 147.41016805 C-0.24896401 145.27284112 -0.23800913 143.13583284 -0.22705078 140.99853516 C-0.22648627 139.46072395 -0.22680401 137.92291221 -0.22793579 136.38510132 C-0.22850875 132.22025272 -0.21676362 128.05551973 -0.20278788 123.89069796 C-0.19027108 119.53450897 -0.18910927 115.17831723 -0.18673706 110.82211304 C-0.18052509 102.57745016 -0.16411808 94.33284042 -0.14403808 86.08820093 C-0.1216703 76.70009794 -0.11068344 67.31199238 -0.10064721 57.92386937 C-0.07975161 38.61587668 -0.04307889 19.30795682 0 0 Z " fill="#42B549" transform="translate(1333,86)"/>
<path d="M0 0 C5.52998123 3.8974296 9.13556436 7.664315 10.5 14.5078125 C11.48439401 21.87025933 10.76329031 27.70896912 6.70703125 34.0078125 C3.54098548 38.06510439 0.14712496 40.96688531 -5 42 C-12.68139565 42.78582053 -19.71348201 42.8941094 -26 38 C-31.53680919 33.13332049 -34.51892394 28.4186993 -35 21 C-35.06346975 14.80112139 -33.84655261 8.97543218 -30 4 C-21.16498811 -3.47078212 -10.4931136 -5.93949826 0 0 Z " fill="#42B549" transform="translate(1364,30)"/>
</svg>
