<?xml version="1.0" encoding="UTF-8"?>
<svg version="1.1" xmlns="http://www.w3.org/2000/svg" width="1271" height="282">
<path d="M0 0 C-0.06566162 0.8765625 -0.13132324 1.753125 -0.19897461 2.65625 C-1.05951666 15.09736484 -1.32499867 27.53360374 -1.5625 40 C-1.60581243 42.1432354 -1.64943017 44.28646465 -1.69335938 46.4296875 C-1.79908564 51.61972766 -1.90070485 56.80983298 -2 62 C-1.48760269 61.69427063 -0.97520538 61.38854126 -0.44728088 61.07354736 C9.15170733 55.36897968 18.6046527 49.75522908 29.0625 45.75 C30.1050293 45.34434814 31.14755859 44.93869629 32.22167969 44.52075195 C53.73961149 36.38157013 79.75716098 28.53073166 103 29 C101.63389732 32.03726958 100.06926193 34.20915026 97.76953125 36.609375 C97.13080078 37.28226563 96.49207031 37.95515625 95.83398438 38.6484375 C94.83334961 39.68871094 94.83334961 39.68871094 93.8125 40.75 C88.74061089 46.05908194 83.79047556 51.43498228 79 57 C78.50669189 57.57121582 78.01338379 58.14243164 77.50512695 58.73095703 C74.50184673 62.21568696 71.51587237 65.71523752 68.52880859 69.21386719 C67.10372046 70.87882164 65.67196522 72.53776082 64.23828125 74.1953125 C35.78035085 105.55256835 35.78035085 105.55256835 24 144.5625 C24.80619005 149.85770282 27.52732026 153.07308789 31 157 C31.65226562 157.7940625 32.30453125 158.588125 32.9765625 159.40625 C43.63029248 171.95828096 57.88146316 180.75330417 73 187 C73 187.66 73 188.32 73 189 C60.96605444 189.97792786 51.09574528 185.579078 40.4375 180.625 C24.52257575 173.31334146 8.57264635 169.61206547 -8.60873413 166.62216187 C-33.46240945 162.2840237 -59.49374385 156.59980768 -76 136 C-85.61974897 124.55099228 -95.01616727 120.69403348 -109.22265625 116.6171875 C-111.32751626 116.00144665 -113.43233276 115.38555707 -115.53710938 114.76953125 C-118.82174019 113.81453282 -122.10709122 112.86211584 -125.39331055 111.91259766 C-128.58840089 110.98742317 -131.78062708 110.05285929 -134.97265625 109.1171875 C-135.96419205 108.83382538 -136.95572784 108.55046326 -137.97731018 108.2585144 C-138.88593307 107.99128571 -139.79455597 107.72405701 -140.73071289 107.44873047 C-141.93456383 107.10042679 -141.93456383 107.10042679 -143.16273499 106.74508667 C-145 106 -145 106 -146 104 C-134.45213206 104.35862944 -123.1755029 105.87187984 -111.76269531 107.62792969 C-101.17608986 109.82235698 -101.17608986 109.82235698 -91.25 107 C-86.21052421 104.29612741 -81.60289574 104.11689458 -76 105 C-71.05937024 106.61899718 -66.41202204 108.71820732 -61.82421875 111.15625 C-59.47396484 112.24330534 -57.55679682 112.14204427 -55 112 C-54.360625 110.948125 -53.72125 109.89625 -53.0625 108.8125 C-52.70285156 108.22082031 -52.34320312 107.62914063 -51.97265625 107.01953125 C-47.32569245 97.37101604 -50.35823479 86.27480128 -53.4375 76.6875 C-54.0850266 74.60900371 -54.72965346 72.52960138 -55.37109375 70.44921875 C-55.65911865 69.54518311 -55.94714355 68.64114746 -56.24389648 67.7097168 C-59.4356509 56.2711368 -59.92392217 42.5830069 -54 32 C-42.68174015 15.16350143 -21.02416621 -0.2768015 0 0 Z " fill="#009CD9" transform="translate(1168,0)"/>
<path d="M0 0 C15.33021342 -0.58668038 31.0098661 3.82441476 42.953125 13.63671875 C54.80752883 24.7226302 60.63577555 38.41325277 63.78515625 54.16015625 C63.78515625 63.40015625 63.78515625 72.64015625 63.78515625 82.16015625 C29.79515625 82.16015625 -4.19484375 82.16015625 -39.21484375 82.16015625 C-35.37944949 97.50173328 -32.06194298 108.14464802 -19.21484375 117.16015625 C-5.99993607 124.74470063 7.25399784 125.74096749 21.81738281 121.99658203 C32.39540029 119.03323671 40.50386152 113.23787886 48.78515625 106.16015625 C52.85966088 109.74801045 55.36944528 114.03593679 58.09765625 118.66015625 C58.56494141 119.41941406 59.03222656 120.17867188 59.51367188 120.9609375 C59.95001953 121.69699219 60.38636719 122.43304688 60.8359375 123.19140625 C61.23466064 123.85720703 61.63338379 124.52300781 62.04418945 125.20898438 C62.97815348 127.6683717 62.77671601 128.74485767 61.78515625 131.16015625 C52.02108412 141.15129983 38.96483536 146.38759454 25.78515625 150.16015625 C25.19879395 150.33973877 24.61243164 150.51932129 24.00830078 150.7043457 C19.07840019 151.7151215 13.91786175 151.38639784 8.89794922 151.40039062 C6.81956405 151.40999721 4.74221169 151.44099675 2.6640625 151.47265625 C-8.8602694 151.56678661 -19.12346502 149.8084163 -29.40234375 144.41015625 C-30.42231445 143.88518555 -30.42231445 143.88518555 -31.46289062 143.34960938 C-36.86807153 140.49472395 -41.67390026 137.2716745 -46.21484375 133.16015625 C-46.88644531 132.58007812 -47.55804688 132 -48.25 131.40234375 C-62.36764468 118.3999658 -68.95800384 99.40856001 -70.08935547 80.65917969 C-70.94134014 59.79758899 -65.74806765 39.81419785 -51.77734375 23.84765625 C-50.27245789 22.26979098 -48.75259914 20.70600509 -47.21484375 19.16015625 C-46.62445313 18.53496094 -46.0340625 17.90976563 -45.42578125 17.265625 C-33.39940155 5.53063335 -16.24622734 1.17477129 0 0 Z M-30.09375 40.328125 C-33.87394039 45.68102617 -35.73152305 50.9518545 -38.21484375 57.16015625 C-14.12484375 57.16015625 9.96515625 57.16015625 34.78515625 57.16015625 C32.55574718 46.01311089 29.79503946 38.29761517 20.78515625 31.16015625 C4.17836912 20.92863384 -17.53399638 25.8361016 -30.09375 40.328125 Z " fill="#393839" transform="translate(525.21484375,130.83984375)"/>
<path d="M0 0 C15.29806934 -0.42082068 30.78232363 3.01274874 42.6640625 13.12109375 C56.02207791 26.86629801 58.8533019 43.62730039 58.77758789 62.04711914 C58.77773392 62.99452972 58.77787994 63.94194031 58.7780304 64.9180603 C58.77733931 68.01831431 58.76958491 71.11850661 58.76171875 74.21875 C58.75985171 76.3806505 58.75842916 78.54255143 58.75743103 80.70445251 C58.75362838 86.37117702 58.74381749 92.03787554 58.73272705 97.70458984 C58.72246434 103.4964157 58.71792303 109.28824578 58.71289062 115.08007812 C58.70219305 126.42709653 58.68461466 137.77408891 58.6640625 149.12109375 C49.4240625 149.12109375 40.1840625 149.12109375 30.6640625 149.12109375 C30.3340625 144.83109375 30.0040625 140.54109375 29.6640625 136.12109375 C28.2203125 137.33796875 26.7765625 138.55484375 25.2890625 139.80859375 C14.15190355 148.70886929 4.00602067 151.48005092 -10.0234375 151.49609375 C-11.13138672 151.52058594 -12.23933594 151.54507813 -13.38085938 151.5703125 C-27.57925552 151.62010232 -39.74340114 146.54880887 -50.1484375 136.93359375 C-57.80834408 128.86768506 -61.19409968 118.60512446 -61.40234375 107.6171875 C-60.96884768 94.80934913 -57.79606834 84.52659847 -48.71875 75.26953125 C-27.6666049 56.28808894 2.74058633 54.81003947 29.6640625 55.12109375 C28.22017856 46.92641908 26.72982583 39.18685708 20.6640625 33.12109375 C17.78011956 31.29510518 14.9194 30.12086032 11.6640625 29.12109375 C10.8596875 28.87359375 10.0553125 28.62609375 9.2265625 28.37109375 C-6.54021971 26.8328711 -23.06154319 30.92982406 -35.609375 40.93359375 C-36.46402344 41.52140625 -36.46402344 41.52140625 -37.3359375 42.12109375 C-42.33567044 40.4545161 -44.026889 35.67986639 -46.6484375 31.30859375 C-47.22400391 30.39271484 -47.79957031 29.47683594 -48.39257812 28.53320312 C-48.92689453 27.64826172 -49.46121094 26.76332031 -50.01171875 25.8515625 C-50.50583252 25.04098389 -50.99994629 24.23040527 -51.5090332 23.39526367 C-52.3359375 21.12109375 -52.3359375 21.12109375 -51.61962891 18.93457031 C-43.72339055 7.77951925 -25.01026495 3.7262998 -12.3359375 1.12109375 C-8.21663809 0.45400073 -4.16029725 0.21566758 0 0 Z M-26.89453125 92.66796875 C-31.29760774 97.70718377 -31.68990311 101.87876759 -31.61328125 108.33203125 C-31.06159303 113.87999445 -28.51149626 116.94553499 -24.5859375 120.87109375 C-16.80127784 126.26047351 -9.6581997 127.10828878 -0.3359375 126.12109375 C9.36714543 123.82838217 15.91245053 118.04000289 21.4140625 109.93359375 C27.0932162 100.44240538 29.27449693 91.10684274 29.6640625 80.12109375 C-0.78076502 79.27585722 -0.78076502 79.27585722 -26.89453125 92.66796875 Z " fill="#393839" transform="translate(1028.3359375,130.87890625)"/>
<path d="M0 0 C17.28126388 -0.47384111 32.74927109 3.72631084 45.40625 15.703125 C59.90062681 31.05670456 59.17278567 52.05726001 59.02734375 71.6796875 C59.02173648 73.92269098 59.01747174 76.16569817 59.01448059 78.40870667 C59.00312087 84.26285252 58.97373166 90.11676892 58.94036865 95.9708252 C58.90947475 101.96424253 58.89593427 107.95769757 58.88085938 113.95117188 C58.84885211 125.67459531 58.79615831 137.3977894 58.734375 149.12109375 C49.494375 149.12109375 40.254375 149.12109375 30.734375 149.12109375 C30.404375 144.83109375 30.074375 140.54109375 29.734375 136.12109375 C28.661875 137.15234375 27.589375 138.18359375 26.484375 139.24609375 C15.90790031 148.52403329 4.29756646 151.48118287 -9.390625 151.49609375 C-10.55078125 151.52058594 -11.7109375 151.54507813 -12.90625 151.5703125 C-26.94260651 151.61741437 -39.2442383 146.95166908 -49.578125 137.37109375 C-57.45618128 129.04741004 -60.66174995 118.58601623 -60.578125 107.30859375 C-60.57248535 106.51324219 -60.5668457 105.71789062 -60.56103516 104.8984375 C-60.31212665 92.83253591 -56.1258529 82.53127827 -47.390625 73.99609375 C-26.09301068 56.31370472 3.30744325 54.81577618 29.734375 55.12109375 C27.36170281 42.99983217 27.36170281 42.99983217 20.671875 32.87109375 C10.62469035 26.88553694 -0.12011321 27.13712987 -11.140625 29.74609375 C-19.35995355 31.84248646 -27.31114896 34.85003528 -33.91015625 40.30859375 C-36.265625 42.12109375 -36.265625 42.12109375 -39.265625 42.12109375 C-41.7226951 39.13409963 -43.55387166 35.69874076 -45.515625 32.37109375 C-46.36640625 30.99050781 -46.36640625 30.99050781 -47.234375 29.58203125 C-47.76546875 28.69257813 -48.2965625 27.803125 -48.84375 26.88671875 C-49.33262695 26.06977539 -49.82150391 25.25283203 -50.32519531 24.41113281 C-51.41255611 21.76330201 -51.35074099 20.73171372 -50.265625 18.12109375 C-38.00690169 5.08876168 -17.1658379 0.91748444 0 0 Z M-26.265625 92.12109375 C-30.38555741 96.86073744 -31.64508378 101.55890222 -31.53515625 107.71484375 C-30.97710916 112.69682936 -29.03954314 116.41888719 -25.4296875 119.8828125 C-17.63640581 126.04876142 -10.01821075 127.00769245 -0.265625 126.12109375 C8.94799582 124.1457995 16.33418773 118.0961046 21.58984375 110.40625 C26.20770728 102.27652976 29.80184315 93.41231869 29.75390625 83.96875 C29.74423828 82.06416016 29.74423828 82.06416016 29.734375 80.12109375 C11.20257487 79.66663544 -11.50100498 79.20603736 -26.265625 92.12109375 Z " fill="#393839" transform="translate(243.265625,130.87890625)"/>
<path d="M0 0 C20.5649995 -0.56570387 39.62663959 6.0834538 55.1015625 19.62109375 C56.65976982 21.10390394 58.20288733 22.60282168 59.7265625 24.12109375 C60.35046875 24.72179687 60.974375 25.3225 61.6171875 25.94140625 C75.13243894 40.00457329 80.13899895 60.05537276 79.93359375 79.02734375 C79.22294185 97.30374115 72.58910811 113.28837011 60.7265625 127.12109375 C59.80617188 128.20970703 59.80617188 128.20970703 58.8671875 129.3203125 C48.21924583 140.90108666 31.10056412 150.2515355 15.34619141 151.35864258 C11.30352859 151.49929495 7.27126378 151.55986692 3.2265625 151.55859375 C2.51102203 151.55966125 1.79548157 151.56072876 1.05825806 151.56182861 C-9.80249697 151.53837356 -19.31665846 150.8322289 -29.2734375 146.12109375 C-30.77583984 145.43466797 -30.77583984 145.43466797 -32.30859375 144.734375 C-38.96819937 141.3908316 -44.67484949 137.00660858 -50.2734375 132.12109375 C-50.88832031 131.60160156 -51.50320313 131.08210937 -52.13671875 130.546875 C-61.49473726 122.00633857 -67.51441631 110.03259128 -71.2734375 98.12109375 C-71.62341797 97.02474609 -71.62341797 97.02474609 -71.98046875 95.90625 C-77.26118024 76.11307961 -73.79566574 54.78678564 -64.1484375 36.99609375 C-52.87398784 18.69341574 -35.49419027 6.95817513 -14.75 1.8671875 C-9.79024592 0.80279084 -5.05074864 0.26902613 0 0 Z M-34.18359375 44.40625 C-38.53437349 50.23500163 -41.20730418 56.16733323 -43.2734375 63.12109375 C-43.46550781 63.72308594 -43.65757812 64.32507813 -43.85546875 64.9453125 C-46.56100239 79.02925865 -43.52176353 93.04193832 -35.76171875 104.98046875 C-28.06601532 116.04935453 -18.1634937 121.69903917 -5.2109375 124.87109375 C9.09703794 126.08879379 22.58619001 123.17418071 33.9140625 113.93359375 C43.24601713 105.22376943 49.40548672 93.73148622 49.96484375 80.8984375 C50.32344118 65.3324144 47.49693985 52.6739583 36.625 40.83203125 C27.33238329 32.06479216 15.52762178 27.21792767 2.7265625 26.74609375 C-11.73639575 27.27918356 -24.91011559 33.31221172 -34.18359375 44.40625 Z " fill="#393839" transform="translate(744.2734375,130.87890625)"/>
<path d="M0 0 C9.57 0 19.14 0 29 0 C29 34.65 29 69.3 29 105 C41.97145251 105.40334599 41.97145251 105.40334599 46.75390625 101 C47.7329065 99.69777005 48.66821972 98.36180288 49.5625 97 C50.08585938 96.28521484 50.60921875 95.57042969 51.1484375 94.83398438 C52.24631829 93.33127641 53.32713547 91.81596285 54.39111328 90.2890625 C56.9801672 86.60545559 59.75034671 83.06425823 62.5 79.5 C63.56782708 78.09384017 64.635535 76.68758984 65.703125 75.28125 C78.65625 58.34375 78.65625 58.34375 83 54 C85.6662603 53.91144839 88.30647114 53.88475327 90.97265625 53.90234375 C91.77029892 53.9037587 92.56794159 53.90517365 93.38975525 53.90663147 C95.94737435 53.91224684 98.50490718 53.92480188 101.0625 53.9375 C102.79231645 53.94251302 104.52213426 53.94707627 106.25195312 53.95117188 C110.50133553 53.96222125 114.75065312 53.97949614 119 54 C115.06794857 59.32163928 111.01158532 64.51217729 106.8125 69.625 C102.65654283 74.71082887 98.54077717 79.82217213 94.5 85 C90.47650782 90.15401125 86.38056178 95.24395279 82.25 100.3125 C81.70142334 100.99030518 81.15284668 101.66811035 80.58764648 102.36645508 C78.27535932 105.22247922 75.9529822 108.05444166 73.55078125 110.8359375 C72.89464844 111.61195313 72.23851562 112.38796875 71.5625 113.1875 C71.00691406 113.82042969 70.45132813 114.45335937 69.87890625 115.10546875 C68.756766 117.0151217 68.756766 117.0151217 69.53125 119.28125 C71.43557442 122.80627605 73.62902406 126.0416262 75.9375 129.3125 C76.93632799 130.74600313 77.9350222 132.17959948 78.93359375 133.61328125 C79.44390137 134.34240723 79.95420898 135.0715332 80.47998047 135.82275391 C82.83917244 139.2020141 85.16886481 142.60135523 87.5 146 C88.41650756 147.33344271 89.33317469 148.66677575 90.25 150 C92.08333333 152.66666667 93.91666667 155.33333333 95.75 158 C96.2039917 158.66032227 96.6579834 159.32064453 97.12573242 160.00097656 C98.04006826 161.33097867 98.95429398 162.6610565 99.8684082 163.99121094 C102.19482773 167.37614927 104.52329465 170.75964843 106.85546875 174.140625 C123 197.55642071 123 197.55642071 123 199 C118.16240424 199.27364565 113.32937451 199.47223893 108.48583984 199.60424805 C106.8421378 199.65929641 105.19896798 199.73417216 103.55712891 199.82983398 C90.21096751 200.58749403 90.21096751 200.58749403 85.60180664 197.27807617 C83.87051981 194.95069247 82.46770587 192.58335013 81.12139893 190.01705933 C79.27689517 186.69935193 77.11703096 183.59626645 74.99984741 180.44813538 C73.08950912 177.60534235 71.20633501 174.74624543 69.33007812 171.88085938 C68.69013916 170.9039917 68.0502002 169.92712402 67.39086914 168.9206543 C66.74625732 167.93621338 66.10164551 166.95177246 65.4375 165.9375 C63.49584874 162.97504792 61.55337685 160.01314331 59.60914612 157.05238342 C58.40763136 155.22240491 57.20759842 153.39145219 56.00938416 151.55931091 C52.55310755 146.29210878 48.9904698 141.12587129 45.29408264 136.0236969 C44 134 44 134 44 132 C39.05 132 34.1 132 29 132 C29 154.11 29 176.22 29 199 C19.43 199 9.86 199 0 199 C0 133.33 0 67.66 0 0 Z " fill="#393839" transform="translate(847,81)"/>
<path d="M0 0 C10.23 0 20.46 0 31 0 C34.26230897 7.82954152 37.43529962 15.6340888 40.40625 23.5703125 C41.00956146 25.1735865 41.00956146 25.1735865 41.62506104 26.80924988 C42.47924136 29.07966267 43.33251577 31.35041647 44.18493652 33.62149048 C46.40538284 39.5370641 48.63258317 45.45009397 50.859375 51.36328125 C51.29920715 52.53169052 51.73903931 53.70009979 52.19219971 54.90391541 C56.01433932 65.05180384 59.87039361 75.18645674 63.75 85.3125 C64.02593994 86.03286438 64.30187988 86.75322876 64.58618164 87.49542236 C66.05574223 91.33093991 67.52692942 95.16582883 69 99 C70.73298487 96.40052269 71.72824839 94.3474548 72.80908203 91.46069336 C73.1582518 90.53395309 73.50742157 89.60721283 73.86717224 88.65238953 C74.24358353 87.64174942 74.61999481 86.63110931 75.0078125 85.58984375 C75.406017 84.53017899 75.8042215 83.47051422 76.2144928 82.3787384 C77.07361945 80.09136391 77.93104332 77.80334929 78.78695679 75.51477051 C80.58112186 70.71805411 82.38394259 65.92460729 84.18626404 61.13095093 C85.10479199 58.6876096 86.02288963 56.24410647 86.94056702 53.80044556 C90.98700073 43.02566822 95.05278455 32.25835591 99.14276123 21.50003052 C99.83875141 19.66799912 100.53361821 17.83554055 101.22735596 16.00265503 C102.18418153 13.47475299 103.14434375 10.9481449 104.10546875 8.421875 C104.38681168 7.67654007 104.6681546 6.93120514 104.95802307 6.1632843 C106.88568455 1.11431545 106.88568455 1.11431545 108 0 C110.29151417 -0.08790975 112.58572524 -0.10694038 114.87890625 -0.09765625 C115.90889992 -0.09553383 115.90889992 -0.09553383 116.95970154 -0.09336853 C119.16067801 -0.08775479 121.36155409 -0.07520007 123.5625 -0.0625 C125.05143083 -0.05748676 126.54036324 -0.05292355 128.02929688 -0.04882812 C131.68623075 -0.03778093 135.34310558 -0.02050713 139 0 C130.67060564 22.92953603 121.85232155 45.67199619 113.07432556 68.43241882 C108.49899657 80.29583572 103.93510771 92.16364333 99.37200928 104.0317688 C98.09341074 107.35710831 96.81458303 110.68235958 95.53564453 114.00756836 C95.13692139 115.04434219 94.73819824 116.08111603 94.32739258 117.14930725 C93.56356995 119.13490059 92.79942269 121.12036908 92.03491211 123.10569763 C90.46950504 127.17179086 88.90668508 131.2386711 87.36279297 135.31298828 C86.91178223 136.50005371 86.46077148 137.68711914 85.99609375 138.91015625 C85.62540771 139.89250244 85.25472168 140.87484863 84.87280273 141.88696289 C84 144 84 144 83 145 C81.00035018 145.08758003 78.9976389 145.10696576 76.99609375 145.09765625 C75.78115234 145.09443359 74.56621094 145.09121094 73.31445312 145.08789062 C72.03505859 145.07951172 70.75566406 145.07113281 69.4375 145.0625 C68.15423828 145.05798828 66.87097656 145.05347656 65.54882812 145.04882812 C62.36583978 145.03699545 59.18294238 145.02051068 56 145 C51.68679856 136.06146583 48.19251316 126.84970036 44.70175171 117.57003784 C42.93496593 112.87539008 41.15480232 108.18581911 39.375 103.49609375 C39.00972702 102.53310867 38.64445404 101.5701236 38.26811218 100.57795715 C34.63306516 91.00817025 30.91925054 81.46991002 27.1875 71.9375 C26.54119326 70.28493812 25.89495347 68.63235005 25.2487793 66.97973633 C24.24967775 64.42475651 23.25051683 61.86980002 22.25114441 59.31492615 C18.09220504 48.68178741 13.94015492 38.04598627 9.80117798 27.40505981 C8.93686077 25.18473945 8.07128944 22.96490685 7.20443726 20.74557495 C5.99774529 17.65580989 4.79524791 14.56444409 3.59375 11.47265625 C3.22897049 10.54139923 2.86419098 9.61014221 2.48835754 8.65066528 C2.1589769 7.80051849 1.82959625 6.9503717 1.49023438 6.07446289 C1.20096069 5.33208878 0.91168701 4.58971466 0.61364746 3.82484436 C0 2 0 2 0 0 Z " fill="#393839" transform="translate(314,135)"/>
<path d="M0 0 C9.24 0 18.48 0 28 0 C28 12.87 28 25.74 28 39 C39.22 39 50.44 39 62 39 C62 47.25 62 55.5 62 64 C50.78 64 39.56 64 28 64 C28.12010436 76.04406477 28.12010436 76.04406477 28.2578125 88.08789062 C28.31794082 93.00557511 28.37608024 97.92322287 28.421875 102.84106445 C28.45895801 106.80935284 28.50537779 110.77743553 28.55806351 114.74554634 C28.57648597 116.25363084 28.59163792 117.76175922 28.60334396 119.26991081 C28.56569194 135.75096553 28.56569194 135.75096553 36 150 C42.8560269 155.59307458 49.38474784 156.46201668 58 156 C60.31 155.67 62.62 155.34 65 155 C65 164.24 65 173.48 65 183 C47.74623594 185.46482344 31.77213696 183.88233363 17 174 C6.4848019 165.88936626 1.31871278 153.11182398 -0.54051208 140.26525879 C-1.01281325 136.32633685 -1.12051449 132.45223108 -1.11352539 128.48242188 C-1.11367142 127.77899658 -1.11381744 127.07557129 -1.1139679 126.35083008 C-1.11327869 124.05677052 -1.10553345 121.76279513 -1.09765625 119.46875 C-1.09578854 117.86592656 -1.0943663 116.26310254 -1.09336853 114.66027832 C-1.08957117 110.46490878 -1.07976496 106.26957448 -1.06866455 102.07421875 C-1.05839031 97.78385901 -1.05385809 93.49349352 -1.04882812 89.203125 C-1.03813991 80.80206545 -1.02056597 72.40104118 -1 64 C-6.61 64 -12.22 64 -18 64 C-18 55.75 -18 47.5 -18 39 C-12.06 39 -6.12 39 0 39 C0 26.13 0 13.26 0 0 Z " fill="#393839" transform="translate(18,97)"/>
<path d="M0 0 C9.57 0 19.14 0 29 0 C29.00808685 2.01400406 29.01617371 4.02800812 29.02450562 6.1030426 C29.10160004 25.07003338 29.1895585 44.03695155 29.28752708 63.00384617 C29.33763405 72.75523373 29.38407723 82.50661296 29.421875 92.25805664 C29.4548315 100.75809727 29.49468299 109.25807292 29.54279006 117.7580418 C29.56801864 122.25807499 29.58981069 126.75806528 29.60334396 131.2581501 C29.61619735 135.49591378 29.63828704 139.73353007 29.66738319 143.97121239 C29.67643337 145.52437367 29.68214322 147.07755867 29.68421364 148.63074493 C29.68755436 150.75668666 29.70307989 152.88221506 29.7215271 155.0080719 C29.72705786 156.19626306 29.73258862 157.38445421 29.73828697 158.60865116 C30.0304091 162.39404939 30.59211899 165.46641986 32 169 C37.74316054 173.02899151 37.74316054 173.02899151 49 172 C49 180.91 49 189.82 49 199 C35.93282285 200.86673959 23.07894321 200.92824829 11.96875 192.796875 C4.10128468 185.61625189 1.01338755 176.302808 0 166 C-0.08325893 163.57975387 -0.12208912 161.15763902 -0.12025452 158.73596191 C-0.12110894 158.05125682 -0.12196337 157.36655173 -0.12284368 156.661098 C-0.12447642 154.39187632 -0.11901366 152.12273037 -0.11352539 149.85351562 C-0.11324302 148.21688845 -0.11340224 146.58026114 -0.1139679 144.94363403 C-0.11425391 140.51861786 -0.10838892 136.093629 -0.10139394 131.66861916 C-0.0951277 127.03750371 -0.09455402 122.40638759 -0.09336853 117.77526855 C-0.09026485 109.01361866 -0.08206445 100.25198129 -0.07201904 91.49033689 C-0.06082798 81.51210835 -0.05533992 71.5338792 -0.05032361 61.55564594 C-0.03988102 41.03709012 -0.02209798 20.51854629 0 0 Z " fill="#393839" transform="translate(613,81)"/>
<path d="M0 0 C0 9.57 0 19.14 0 29 C-1.98 28.67 -3.96 28.34 -6 28 C-15.33740016 27.29117546 -23.76219076 28.50253726 -31.3125 34.375 C-43.1333246 45.75801628 -48.04602637 63.29134082 -48.43237305 79.26879883 C-48.48375395 82.33161243 -48.49969725 85.3938482 -48.51171875 88.45703125 C-48.52860628 90.09756273 -48.54676183 91.73808159 -48.56611633 93.37858582 C-48.61318103 97.65109307 -48.64326966 101.92354918 -48.66955566 106.19622803 C-48.6995836 110.57428081 -48.74603619 114.95215794 -48.79101562 119.33007812 C-48.87655215 127.88664595 -48.94259308 136.44319718 -49 145 C-58.57 145 -68.14 145 -78 145 C-78 97.15 -78 49.3 -78 0 C-68.76 0 -59.52 0 -50 0 C-49.505 7.92 -49.505 7.92 -49 16 C-47.329375 14.205625 -47.329375 14.205625 -45.625 12.375 C-33.1498923 -0.07806687 -16.92784596 -4.83652742 0 0 Z " fill="#393839" transform="translate(178,135)"/>
<path d="M0 0 C-1.36610268 3.03726958 -2.93073807 5.20915026 -5.23046875 7.609375 C-5.86919922 8.28226563 -6.50792969 8.95515625 -7.16601562 9.6484375 C-7.83310547 10.34195313 -8.50019531 11.03546875 -9.1875 11.75 C-14.25938911 17.05908194 -19.20952444 22.43498228 -24 28 C-24.49330811 28.57121582 -24.98661621 29.14243164 -25.49487305 29.73095703 C-28.49815327 33.21568696 -31.48412763 36.71523752 -34.47119141 40.21386719 C-35.89627954 41.87882164 -37.32803478 43.53776082 -38.76171875 45.1953125 C-68.24957458 78.46457817 -68.24957458 78.46457817 -79 120 C-88.68968278 108.66614028 -94.00057942 94.16802615 -98 80 C-98.19432617 79.31502441 -98.38865234 78.63004883 -98.58886719 77.92431641 C-101.78827886 66.31877163 -103.55521259 54.40796464 -104.75219727 42.43920898 C-104.96580714 40.33657225 -105.2622639 38.24265344 -105.57421875 36.15234375 C-104.91954299 32.55830745 -104.57299422 32.26775707 -101.72265625 30.26171875 C-100.18790841 29.37073927 -98.63239006 28.51499053 -97.0625 27.6875 C-96.2156665 27.22311523 -95.36883301 26.75873047 -94.49633789 26.28027344 C-67.1888814 11.75110099 -31.36058461 -0.63316402 0 0 Z " fill="#0098C1" transform="translate(1271,29)"/>
<path d="M0 0 C0.01458252 1.13091064 0.02916504 2.26182129 0.04418945 3.42700195 C-0.19125379 46.38006554 -0.19125379 46.38006554 8.08203125 88.23828125 C9.00407643 91.01226399 9.17049526 93.10158053 9 96 C-0.68968278 84.66614028 -6.00057942 70.16802615 -10 56 C-10.29148926 54.97253662 -10.29148926 54.97253662 -10.58886719 53.92431641 C-14.0095823 41.51601561 -15.71310443 28.78836479 -17 16 C-17.26683594 14.08380859 -17.26683594 14.08380859 -17.5390625 12.12890625 C-17 9 -17 9 -15.62109375 7.62109375 C-13.68246221 6.27355882 -11.7153505 5.15917111 -9.625 4.0625 C-8.57699219 3.46598633 -8.57699219 3.46598633 -7.5078125 2.85742188 C-2.39297816 0 -2.39297816 0 0 0 Z " fill="#007CA6" transform="translate(1183,53)"/>
</svg>
